<svg preserveAspectRatio="none" width="100%" height="100%" overflow="visible" style="display: block;" viewBox="0 0 110.379 19.4171" fill="none" xmlns="http://www.w3.org/2000/svg">
<g id="Group">
<path id="Vector" d="M17.8556 10.482C17.8379 10.297 17.8205 10.1328 17.8027 9.99205H9.63045V12.0356H15.7329V12.4345C15.7329 13.124 15.5819 13.7708 15.2813 14.3721C14.9806 14.9734 14.5555 15.5002 14.0075 15.9521C13.4596 16.404 12.8186 16.7529 12.0841 17.0008C11.3496 17.2487 10.5667 17.372 9.73549 17.372C8.67431 17.372 7.68467 17.187 6.7641 16.8145C5.84518 16.4433 5.03586 15.9169 4.33653 15.2345C3.63721 14.5538 3.09794 13.7575 2.7183 12.845C2.337 11.9342 2.148 10.9555 2.148 9.91135C2.148 8.83166 2.33411 7.83721 2.70506 6.9247C3.07602 6.01385 3.59793 5.22591 4.27078 4.56171C4.94198 3.89874 5.72484 3.38103 6.61936 3.00817C7.51222 2.63696 8.48118 2.45073 9.525 2.45073C10.1962 2.45073 10.8736 2.55792 11.5539 2.77063C12.2354 2.98168 12.8851 3.27385 13.5051 3.6463C14.1237 4.01751 14.6808 4.46032 15.1762 4.97389L16.5558 3.56726C16.0956 2.9643 15.4947 2.42466 14.7515 1.94627C14.0083 1.46953 13.1816 1.09708 12.271 0.831395C11.3591 0.565713 10.4356 0.433699 9.49894 0.433699C8.17226 0.433699 6.92911 0.668344 5.77116 1.13639C4.61155 1.60568 3.60289 2.26575 2.74559 3.11535C1.88829 3.96495 1.21503 4.96933 0.729926 6.12849C0.243172 7.28888 0 8.54901 0 9.91177C0 11.2762 0.243172 12.5359 0.729926 13.6963C1.21503 14.855 1.90111 15.8598 2.78529 16.7094C3.67071 17.5586 4.69674 18.2232 5.8638 18.7C7.03085 19.1784 8.29591 19.4171 9.65775 19.4171C10.826 19.4171 11.9034 19.2264 12.8946 18.8465C13.8859 18.4666 14.7565 17.9269 15.5083 17.2271C16.2602 16.5273 16.8482 15.6955 17.2734 14.7305C17.6968 13.7666 17.9094 12.7089 17.9094 11.5588C17.9094 11.3991 17.9049 11.2257 17.8962 11.0411C17.8875 10.8549 17.8734 10.6687 17.8556 10.482Z" fill="var(--fill-0, white)"/>
<path id="Vector_2" d="M25.4994 0.565713H23.4291V19.1515H34.4136V17.1328H25.4994V0.565713Z" fill="var(--fill-0, white)"/>
<path id="Vector_3" d="M53.8345 3.07562C53.0107 2.21733 52.0475 1.55312 50.9421 1.08342C49.8354 0.615373 48.62 0.380728 47.2933 0.380728C45.9844 0.380728 44.7764 0.615373 43.671 1.08342C42.5656 1.55271 41.6024 2.21733 40.7802 3.07562C39.9581 3.93392 39.3204 4.94285 38.8688 6.102C38.4188 7.26074 38.193 8.53121 38.193 9.91135C38.193 11.2931 38.4188 12.562 38.8688 13.7224C39.3204 14.8811 39.9581 15.8859 40.7802 16.7355C41.6024 17.5851 42.5656 18.2448 43.671 18.7128C44.7764 19.1821 45.984 19.4167 47.2933 19.4167C48.62 19.4167 49.835 19.1821 50.9421 18.7128C52.0475 18.2448 53.0107 17.5805 53.8345 16.7223C54.6571 15.864 55.2931 14.855 55.7447 13.6959C56.1947 12.5355 56.4205 11.2754 56.4205 9.91135C56.4205 8.5308 56.1947 7.26074 55.7447 6.102C55.2931 4.94326 54.6571 3.93392 53.8345 3.07562ZM53.7539 12.8992C53.4094 13.8101 52.9272 14.6022 52.3085 15.2742C51.6886 15.9476 50.9512 16.4653 50.0935 16.8278C49.2345 17.1915 48.302 17.372 47.2937 17.372C46.2855 17.372 45.3529 17.1915 44.4952 16.8278C43.6363 16.4653 42.8972 15.9476 42.2786 15.2742C41.6599 14.6026 41.1822 13.8101 40.8464 12.8992C40.5094 11.9867 40.3423 10.9906 40.3423 9.91135C40.3423 8.81428 40.5094 7.81073 40.8464 6.89822C41.1822 5.98737 41.6599 5.19529 42.2786 4.52198C42.8972 3.85032 43.6358 3.32806 44.4952 2.9552C45.3529 2.58399 46.2851 2.39776 47.2937 2.39776C48.3024 2.39776 49.2345 2.58399 50.0935 2.9552C50.9512 3.32765 51.6886 3.84991 52.3085 4.52198C52.9272 5.19529 53.4094 5.98737 53.7539 6.89822C54.1 7.81073 54.2712 8.81386 54.2712 9.91135C54.2712 10.991 54.0996 11.9871 53.7539 12.8992Z" fill="var(--fill-0, white)"/>
<path id="Vector_4" d="M72.973 9.81907C72.5272 9.50248 72.0036 9.28439 71.4449 9.11182C72.1227 8.81552 72.7212 8.43313 73.1591 7.88108C73.7426 7.14611 74.0342 6.26588 74.0342 5.23915C74.0342 4.28278 73.8216 3.45552 73.3981 2.75697C72.973 2.05717 72.3676 1.51753 71.5806 1.13598C70.7936 0.756077 69.8598 0.565299 68.7821 0.565299H61.2458V19.1511H69.0475C69.9491 19.1511 70.7671 19.0236 71.5016 18.7666C72.2344 18.51 72.8634 18.1417 73.3853 17.6633C73.9072 17.1866 74.3088 16.6113 74.5917 15.938C74.8745 15.2664 75.0168 14.5136 75.0168 13.6806C75.0168 12.8678 74.8348 12.1328 74.473 11.4773C74.1095 10.823 73.6107 10.271 72.973 9.81907ZM63.3157 2.58399H68.4359C69.5322 2.58399 70.3871 2.85836 70.997 3.4071C71.607 3.95585 71.9118 4.68172 71.9118 5.58388C71.9118 6.15 71.7712 6.65902 71.4884 7.11093C71.2055 7.56284 70.8155 7.91625 70.3201 8.17283C69.8246 8.42941 69.2589 8.55728 68.6224 8.55728H63.3157V2.58399ZM72.3502 15.5399C72.0235 16.0547 71.5632 16.4479 70.9706 16.7222C70.3767 16.9966 69.6836 17.1332 68.8875 17.1332H63.3157V10.576H68.7543C69.5678 10.576 70.2804 10.708 70.8904 10.9737C71.5016 11.2393 71.9797 11.6118 72.3241 12.0898C72.6686 12.5665 72.8415 13.124 72.8415 13.7621C72.8415 14.4337 72.6769 15.028 72.3502 15.5399Z" fill="var(--fill-0, white)"/>
<path id="Vector_5" d="M101.464 17.1328V0.565713H99.3946V19.1515H110.379V17.1328H101.464Z" fill="var(--fill-0, white)"/>
<path id="Vector_6" d="M87.1505 2.64259e-10L78.5515 18.952L78.4282 19.2177H80.8091L82.8028 14.8993H91.1334L93.0656 19.2177H95.4654L87.1505 2.64259e-10ZM83.8462 12.7221L87.0976 5.45104L90.1542 12.7221H83.8462Z" fill="var(--fill-0, white)"/>
</g>
</svg>
