<svg preserveAspectRatio="none" width="100%" height="100%" overflow="visible" style="display: block;" viewBox="0 0 59.4539 19.4151" fill="none" xmlns="http://www.w3.org/2000/svg">
<g id="Group">
<path id="Vector" d="M0 0.294651V19.4151H2.11202V7.24708L8.6615 16.9163L8.78267 17.0964L15.4533 7.24708V19.4151H17.5666V0.294651L8.78267 13.2725L0 0.294651Z" fill="var(--fill-0, white)"/>
<path id="Vector_2" d="M30.7644 0L22.253 19.2082L22.1574 19.4151H24.4349L26.4183 15.1215H34.7527L36.6732 19.4151H38.9718L30.7644 0ZM30.716 5.22177L33.8139 13.0399H27.4187L30.716 5.22177Z" fill="var(--fill-0, white)"/>
<path id="Vector_3" d="M54.806 14.0154L51.1911 9.81576L57.7104 1.05156L57.8845 0.818566H55.2307L45.9968 13.3466V0.818566H43.764V19.4151H45.9997V16.7777L49.9082 11.5377L56.7145 19.365L56.7571 19.4151H59.4539L54.806 14.0154Z" fill="var(--fill-0, white)"/>
</g>
</svg>
