<?xml version="1.0" encoding="UTF-8"?>
<svg id="Layer_2" data-name="Layer 2" xmlns="http://www.w3.org/2000/svg" viewBox="0 0 319.4698 47.9272">
  <defs>
    <style>
      .cls-1 {
        fill: #114548;
      }
    </style>
  </defs>
  <g id="Layer_1-2" data-name="Layer 1">
    <g>
      <g>
        <polygon class="cls-1" points="64.2894 .7231 64.2894 47.6488 69.4757 47.6488 69.4757 17.7854 85.5603 41.5163 85.8582 41.9579 102.2407 17.7854 102.2407 47.6488 107.4305 47.6488 107.4305 .7231 85.8582 32.5734 64.2894 .7231"/>
        <path class="cls-1" d="M139.8427,0l-20.903,47.1407-.2348.5081h5.5928l4.8709-10.5374h20.4685l4.7168,10.5374h5.6454L139.8427,0ZM139.7236,12.8151l7.6078,19.1871h-15.7062l8.0984-19.1871Z"/>
        <polyline class="cls-1" points="198.8855 34.3965 190.0074 24.0896 206.0185 2.5803 206.446 2.0091 199.928 2.0091 177.2519 32.7557 177.2519 2.0091 171.7677 2.0091 171.7677 47.6488 177.2589 47.6488 177.2589 41.1764 186.8571 28.3157 203.5725 47.5262 203.6776 47.6488 210.3007 47.6488 198.8855 34.3965"/>
      </g>
      <g>
        <path class="cls-1" d="M227.6807,25.3793c-.0147-.1543-.0294-.2914-.0441-.4089h-6.8254v1.7054h5.0967v.333c0,.5754-.1261,1.1153-.3771,1.6173-.251.502-.606.9415-1.0639,1.3186-.4579.3771-.9929.6685-1.6063.8754s-1.2671.3097-1.9613.3097c-.8864,0-1.7128-.1543-2.4816-.4652-.7676-.3097-1.4434-.7493-2.0274-1.3186-.584-.5681-1.0345-1.2329-1.3516-1.9944-.3183-.7603-.4762-1.5769-.4762-2.4486,0-.9011.1555-1.7311.4652-2.4926.3097-.7603.7456-1.4177,1.3075-1.9723.5607-.5534,1.2145-.9855,1.9613-1.2965.7456-.3097,1.5548-.4652,2.4265-.4652.5607,0,1.1263.0894,1.6944.2669.5693.1763,1.1116.4199,1.6295.7309.5166.3097.9819.6795,1.3957,1.108l1.152-1.1741c-.3844-.5032-.8864-.9537-1.5071-1.3528-.6207-.3979-1.3112-.7089-2.0715-.9305-.7615-.2216-1.5328-.3318-2.3151-.3318-1.108,0-2.1462.1959-3.1133.5864-.9684.3918-1.8107.9427-2.5269,1.6516-.7162.7089-1.2781,1.5475-1.6834,2.5147-.4065.9684-.6097,2.0201-.6097,3.1574,0,1.1386.2032,2.1902.6097,3.1586.4052.9672.9782,1.8058,1.7164,2.5147.7395.7089,1.5965,1.2635,2.571,1.6613.9745.3991,2.0311.5987,3.1684.5987.9758,0,1.8756-.1592,2.7032-.4762.8276-.3171,1.5548-.7676,2.1829-1.3516.6281-.584,1.119-1.2781,1.474-2.0837.3538-.8044.5313-1.6871.5313-2.6469,0-.1334-.0037-.2779-.011-.4322-.0073-.1555-.0184-.311-.0331-.4665Z"/>
        <polygon class="cls-1" points="236.9678 17.1032 235.2391 17.1032 235.2391 32.6148 244.4126 32.6148 244.4126 30.9302 236.9678 30.9302 236.9678 17.1032"/>
        <path class="cls-1" d="M263.5358,19.1979c-.688-.7162-1.4924-1.2708-2.4155-1.6626-.9243-.3905-1.9393-.5864-3.0472-.5864-1.0933,0-2.1021.1959-3.0252.5864-.9231.3918-1.7275.9464-2.4143,1.6626-.6868.7162-1.2194,1.5585-1.5965,2.5257-.3759.9672-.5644,2.0274-.5644,3.1795,0,1.1533.1885,2.2123.5644,3.1807.3771.9672.9096,1.8058,1.5965,2.5147.6868.7089,1.4912,1.2598,2.4143,1.6503.9231.3918,1.9319.5877,3.0252.5877,1.108,0,2.1229-.1959,3.0472-.5877.9231-.3905,1.7275-.9451,2.4155-1.6613.6868-.7162,1.2182-1.5585,1.5952-2.5257.3759-.9684.5644-2.0201.5644-3.1586,0-1.152-.1885-2.2123-.5644-3.1795-.3771-.9672-.9084-1.8095-1.5952-2.5257ZM263.4685,27.3969c-.2877.7603-.6905,1.4214-1.2071,1.9821-.5179.5619-1.1337.9941-1.8499,1.2965-.7174.3036-1.4961.4542-2.3384.4542s-1.6209-.1506-2.3372-.4542c-.7174-.3024-1.3345-.7346-1.8511-1.2965-.5166-.5607-.9158-1.2218-1.1961-1.9821-.2816-.7615-.4212-1.5928-.4212-2.4939,0-.9158.1396-1.7532.4212-2.5147.2804-.7603.6795-1.4214,1.1961-1.9833.5166-.5607,1.1337-.9966,1.8511-1.3075.7162-.3097,1.4948-.4652,2.3372-.4652s1.6209.1555,2.3384.4652c.7162.311,1.332.7468,1.8499,1.3075.5166.5619.9194,1.2231,1.2071,1.9833.2889.7615.4322,1.5989.4322,2.5147,0,.9011-.1432,1.7324-.4322,2.4939Z"/>
        <path class="cls-1" d="M282.1391,24.8259c-.3722-.2641-.8096-.4463-1.2763-.5903.5662-.2475,1.0657-.5664,1.4318-1.027.4873-.6134.7309-1.3479.7309-2.2049,0-.7982-.1775-1.4887-.5313-2.0715-.355-.584-.8607-1.0345-1.5181-1.3528-.6574-.3171-1.4373-.4762-2.3372-.4762h-6.294v15.5116h6.5156c.7529,0,1.4361-.1065,2.0494-.3208.6121-.2142,1.1374-.5215,1.5732-.9207.4358-.3979.7713-.8778,1.0076-1.4398.2363-.5607.355-1.1888.355-1.8842,0-.6783-.1518-1.2916-.4542-1.8389-.3036-.546-.7199-1.0076-1.2524-1.3847ZM274.0736,18.7878h4.2764c.9158,0,1.6295.2289,2.1388.6868.5093.4579.764,1.0639.764,1.8168,0,.4726-.1175.8974-.3538,1.2745-.2363.3771-.5619.6721-.9758.8864-.4138.2142-.8864.3208-1.4177.3208h-4.4319v-4.9853ZM281.6188,29.6006c-.273.4297-.6574.7578-1.152.9868-.4958.2289-1.0749.3428-1.7397.3428h-4.6535v-5.4725h4.5421c.6795,0,1.2745.1102,1.7838.3318.5105.2216.9096.5326,1.1973.9317.2877.3979.4322.8631.4322,1.3957,0,.5607-.1371,1.0566-.4101,1.4838Z"/>
        <polygon class="cls-1" points="312.0249 30.9302 312.0249 17.1032 310.2962 17.1032 310.2962 32.6148 319.4698 32.6148 319.4698 30.9302 312.0249 30.9302"/>
        <path class="cls-1" d="M296.8831,16.8216l-7.1816,15.6267-.1028.2216h1.9882l1.665-3.6043h6.9576l1.6136,3.6043h2.0041l-6.8046-15.5276-.1396-.3208ZM294.1235,27.2488l2.7155-5.8778,2.5526,5.8778h-5.2681Z"/>
      </g>
      <g>
        <polygon class="cls-1" points="0 33.8893 7.0563 .6557 0 .6557 0 33.8893"/>
        <g>
          <path class="cls-1" d="M35.6852.6557L.0996,47.9272l24.5816-14.0378,24.5816,13.5941V.6557h-13.5777Z"/>
          <polygon class="cls-1" points="15.6833 .6557 .0002 41.4381 25.4303 .6557 15.6833 .6557"/>
        </g>
      </g>
    </g>
  </g>
</svg>