<svg preserveAspectRatio="none" width="100%" height="100%" overflow="visible" style="display: block;" viewBox="0 0 206 11.6039" fill="none" xmlns="http://www.w3.org/2000/svg">
<g id="Group">
<path id="Vector" d="M5.65536 5.56443C5.65536 6.03289 5.55198 6.45376 5.34561 6.82704C5.13966 7.20032 4.85514 7.49414 4.4941 7.70851C4.13307 7.92288 3.72199 8.03047 3.26171 8.03047C2.82541 8.03047 2.43088 7.92329 2.07729 7.70851C1.72411 7.49414 1.44455 7.20032 1.23777 6.82704C1.03182 6.45376 0.928844 6.03289 0.928844 5.56443V0.525156H0V5.67161C0 6.29898 0.141022 6.86098 0.423067 7.35758C0.704284 7.85418 1.09179 8.24318 1.5835 8.52501C2.07522 8.80683 2.63476 8.94794 3.26171 8.94794C3.89734 8.94794 4.46226 8.80724 4.95811 8.52501C5.45438 8.24318 5.84353 7.85377 6.12516 7.35758C6.40638 6.86098 6.54782 6.2994 6.54782 5.67161V0.525156H5.65495L5.65536 5.56443Z" fill="var(--fill-0, white)"/>
<path id="Vector_2" d="M15.5894 0.525156H14.3388L9.88686 4.93581V0.525156H8.95801V8.86435H9.88686V6.08255L11.3686 4.63827L14.5418 8.86435H15.7085L12.0196 4.00385L15.5894 0.525156Z" fill="var(--fill-0, white)"/>
<path id="Vector_3" d="M25.7086 5.24867C26.0895 5.03017 26.3906 4.73469 26.6131 4.36099C26.8356 3.98771 26.9468 3.57098 26.9468 3.10997C26.9468 2.61751 26.8314 2.17677 26.6011 1.78777C26.3707 1.39876 26.0598 1.09087 25.6665 0.864502C25.274 0.638134 24.8356 0.525156 24.3514 0.525156H21.0897V8.86435H22.0177V5.57601H24.2951L26.1727 8.86435H27.2802L25.2885 5.43324C25.4336 5.38358 25.5755 5.32523 25.7086 5.24867ZM22.0177 1.43063H24.2323C24.5734 1.43063 24.877 1.50222 25.1429 1.645C25.4088 1.78777 25.6173 1.98641 25.7678 2.2405C25.9187 2.49501 25.9944 2.7847 25.9944 3.10997C25.9944 3.41207 25.9307 3.67982 25.8038 3.91405C25.6764 4.1487 25.5019 4.33285 25.2802 4.46818C25.0577 4.6035 24.7997 4.67054 24.506 4.67054H22.0177V1.43063Z" fill="var(--fill-0, white)"/>
<path id="Vector_4" d="M33.3301 3.35455C33.0803 3.08887 32.7825 2.87988 32.4372 2.72924C32.0923 2.57861 31.7089 2.50287 31.2887 2.50287C30.8442 2.50287 30.4319 2.5844 30.0506 2.74704C29.6697 2.91009 29.3426 3.13853 29.0688 3.43235C28.7942 3.72617 28.5824 4.06965 28.4311 4.4628C28.2805 4.85594 28.2049 5.29461 28.2049 5.77921C28.2049 6.40658 28.3401 6.96278 28.6097 7.44696C28.8794 7.93157 29.2545 8.30857 29.735 8.5788C30.2152 8.84904 30.7648 8.98395 31.3839 8.98395C31.7011 8.98395 32.0108 8.94215 32.3127 8.85897C32.6142 8.77538 32.8921 8.66447 33.146 8.52542C33.3999 8.38637 33.6183 8.2258 33.8007 8.04289L33.3367 7.39979C32.9872 7.69361 32.6675 7.89018 32.378 7.9895C32.0886 8.08924 31.7966 8.13848 31.503 8.13848C31.0034 8.13848 30.5762 8.03916 30.2234 7.84052C29.8702 7.64229 29.5981 7.36213 29.4079 7.00085C29.2445 6.69089 29.1556 6.3292 29.1325 5.92281H34.0509L34.0629 5.50566C34.0786 5.06907 34.0232 4.66806 33.8962 4.30265C33.7688 3.93764 33.5798 3.62064 33.3301 3.35455ZM30.1337 3.62851C30.4591 3.45014 30.8438 3.36076 31.2883 3.36076C31.6692 3.36076 31.9963 3.44435 32.2705 3.61071C32.5447 3.77749 32.7569 3.99392 32.9078 4.26043C33.0588 4.52653 33.1415 4.80214 33.1576 5.0881V5.1717H29.1635C29.2044 4.8907 29.2751 4.63785 29.3835 4.421C29.558 4.07172 29.8078 3.80728 30.1337 3.62851Z" fill="var(--fill-0, white)"/>
<path id="Vector_5" d="M40.2865 3.75224C40.2674 3.71955 40.2546 3.68437 40.2335 3.6521C40.0867 3.42573 39.9043 3.2275 39.686 3.05617C39.4676 2.88526 39.2195 2.75242 38.942 2.65724C38.6641 2.56205 38.3622 2.51446 38.0371 2.51446C37.4896 2.51446 36.9958 2.65351 36.5549 2.93119C36.1145 3.20929 35.7634 3.59043 35.5012 4.07462C35.2394 4.55922 35.1083 5.11542 35.1083 5.74238C35.1083 6.36189 35.2353 6.91601 35.4892 7.40434C35.7431 7.89266 36.0889 8.27836 36.5252 8.55977C36.9615 8.84159 37.4499 8.98271 37.9896 8.98271C38.2993 8.98271 38.5946 8.93511 38.8771 8.83993C39.1583 8.74475 39.4126 8.61357 39.6384 8.44679C39.865 8.28002 40.0569 8.08758 40.2161 7.86908C40.2492 7.82356 40.2707 7.77596 40.2993 7.7292V8.86352H41.2041V2.64482H40.3113L40.2865 3.75224ZM40.0669 6.97602C39.8803 7.33771 39.6248 7.61912 39.2993 7.8219C38.9738 8.02468 38.6045 8.12565 38.1922 8.12565C37.7712 8.12565 37.3982 8.02261 37.0731 7.81569C36.7477 7.60919 36.4933 7.32571 36.311 6.96402C36.1282 6.60274 36.0372 6.19553 36.0372 5.74279C36.0372 5.28219 36.1302 4.87332 36.3163 4.51577C36.5033 4.15822 36.7572 3.87681 37.0785 3.66989C37.3998 3.46297 37.7708 3.35993 38.1918 3.35993C38.6041 3.35993 38.9734 3.46297 39.2989 3.66989C39.6244 3.87639 39.8799 4.15822 40.0664 4.51577C40.2534 4.87332 40.3464 5.28219 40.3464 5.74279C40.3464 6.2038 40.2534 6.61433 40.0669 6.97602Z" fill="var(--fill-0, white)"/>
<path id="Vector_6" d="M43.9448 0.0484181H43.0519V8.86393H43.9448V0.0484181Z" fill="var(--fill-0, white)"/>
<path id="Vector_7" d="M49.8735 8.86435H54.8974V7.95888H50.8019V5.0281H54.2543V4.12262H50.8019V1.43063H54.9213V0.525156H49.8735V8.86435Z" fill="var(--fill-0, white)"/>
<path id="Vector_8" d="M60.3724 5.93357C60.214 5.79866 60.0134 5.68154 59.7715 5.58222C59.5296 5.48332 59.2339 5.38565 58.8848 5.29047C58.583 5.21101 58.3311 5.13362 58.1285 5.05831C57.9266 4.98257 57.7695 4.90146 57.6582 4.81415C57.571 4.74255 57.5032 4.65937 57.4564 4.56377C57.4085 4.46859 57.3845 4.36141 57.3845 4.24222C57.3845 4.09945 57.4142 3.96827 57.4738 3.84908C57.5334 3.7299 57.6202 3.62851 57.7356 3.54533C57.8505 3.46215 57.9895 3.39635 58.152 3.34875C58.3146 3.30116 58.4911 3.27716 58.6818 3.27716C58.8964 3.27716 59.1044 3.31317 59.3067 3.38435C59.5093 3.45594 59.7016 3.55526 59.8844 3.68189C60.0668 3.80935 60.2335 3.95213 60.384 4.11104L60.9319 3.51512C60.757 3.30861 60.5465 3.12984 60.3009 2.97879C60.0548 2.82815 59.7885 2.7131 59.5031 2.63323C59.2173 2.55378 58.9279 2.51405 58.6338 2.51405C58.3249 2.51405 58.0371 2.55585 57.7711 2.63903C57.5048 2.72262 57.2753 2.84553 57.0809 3.00817C56.8857 3.1708 56.7352 3.35951 56.6285 3.57388C56.5214 3.78825 56.4672 4.02289 56.4672 4.27657C56.4672 4.47521 56.4974 4.65771 56.5565 4.8249C56.6161 4.99168 56.7054 5.14646 56.8245 5.28923C56.9912 5.46428 57.2215 5.61698 57.5152 5.74776C57.8088 5.87894 58.1781 6.00806 58.6227 6.13511C58.8923 6.2067 59.1222 6.27995 59.3129 6.35568C59.5031 6.431 59.6499 6.50466 59.7537 6.57626C59.9841 6.75089 60.0986 6.9694 60.0986 7.23136C60.0986 7.37413 60.0672 7.50532 60.0035 7.6245C59.9402 7.74369 59.8484 7.84714 59.7297 7.93446C59.6106 8.02178 59.4717 8.08758 59.3133 8.13103C59.1545 8.1749 58.9758 8.19642 58.7773 8.19642C58.3886 8.19642 58.0375 8.12483 57.7236 7.98205C57.4097 7.83928 57.138 7.62905 56.9081 7.35054L56.2774 7.89846C56.523 8.22456 56.8568 8.48652 57.2774 8.68475C57.6975 8.88339 58.1739 8.98271 58.7058 8.98271C59.1425 8.98271 59.5312 8.90532 59.8728 8.75054C60.214 8.59577 60.4816 8.38347 60.6764 8.11283C60.8707 7.84301 60.9679 7.53304 60.9679 7.18376C60.9679 6.92181 60.922 6.68758 60.8315 6.48107C60.7401 6.27457 60.5866 6.0929 60.3724 5.93357Z" fill="var(--fill-0, white)"/>
<path id="Vector_9" d="M64.3045 1.01348H63.4116V2.64565H62.0072V3.50353H63.4116V8.86435H64.3045V3.50353H65.876V2.64565H64.3045V1.01348Z" fill="var(--fill-0, white)"/>
<path id="Vector_10" d="M71.6604 3.75224C71.6414 3.71955 71.6285 3.68437 71.6079 3.65251C71.4606 3.42614 71.2783 3.22791 71.0599 3.05659C70.842 2.88567 70.5934 2.75283 70.3159 2.65765C70.038 2.56247 69.7361 2.51488 69.4111 2.51488C68.8635 2.51488 68.3697 2.65392 67.9293 2.93161C67.4884 3.20971 67.1378 3.59085 66.8751 4.07503C66.6134 4.55964 66.4827 5.11583 66.4827 5.74279C66.4827 6.3623 66.6092 6.91643 66.8636 7.40475C67.1175 7.89308 67.4632 8.27877 67.8995 8.56018C68.3358 8.842 68.8242 8.98312 69.3639 8.98312C69.6737 8.98312 69.969 8.93553 70.2514 8.84035C70.533 8.74516 70.787 8.61398 71.0132 8.44721C71.2394 8.28043 71.4317 8.08799 71.5905 7.86949C71.6236 7.82397 71.6451 7.77638 71.6736 7.72962V8.86393H72.5789V2.64523H71.686L71.6604 3.75224ZM71.4412 6.97602C71.2547 7.33771 70.9991 7.61912 70.6732 7.8219C70.3482 8.02468 69.9785 8.12565 69.5661 8.12565C69.1456 8.12565 68.7725 8.02261 68.4471 7.81569C68.1216 7.60919 67.8677 7.32571 67.6853 6.96402C67.5025 6.60274 67.4115 6.19553 67.4115 5.74279C67.4115 5.28219 67.5046 4.87332 67.6911 4.51577C67.8776 4.15822 68.1315 3.87681 68.4529 3.66989C68.7746 3.46339 69.1456 3.35993 69.5661 3.35993C69.9785 3.35993 70.3482 3.46297 70.6732 3.66989C70.9987 3.87639 71.2547 4.15822 71.4412 4.51577C71.6277 4.87332 71.7212 5.28219 71.7212 5.74279C71.7212 6.2038 71.6277 6.61433 71.4412 6.97602Z" fill="var(--fill-0, white)"/>
<path id="Vector_11" d="M76.0978 1.01348H75.2045V2.64565H73.8001V3.50353H75.2045V8.86435H76.0978V3.50353H77.6693V2.64565H76.0978V1.01348Z" fill="var(--fill-0, white)"/>
<path id="Vector_12" d="M83.4012 3.35455C83.1514 3.08887 82.8537 2.87988 82.5083 2.72924C82.1634 2.57861 81.7801 2.50287 81.3599 2.50287C80.9149 2.50287 80.5026 2.5844 80.1213 2.74704C79.7404 2.91009 79.4133 3.13853 79.1395 3.43235C78.8649 3.72617 78.6532 4.06965 78.5018 4.4628C78.3513 4.85594 78.276 5.29461 78.276 5.77921C78.276 6.40658 78.4108 6.96278 78.6805 7.44696C78.9501 7.93157 79.3252 8.30857 79.8058 8.5788C80.2859 8.84904 80.8355 8.98395 81.4546 8.98395C81.7718 8.98395 82.0816 8.94215 82.3835 8.85897C82.6845 8.77538 82.9624 8.66447 83.2164 8.52542C83.4707 8.38637 83.6886 8.2258 83.871 8.04289L83.407 7.39979C83.0575 7.69361 82.7379 7.89018 82.4484 7.9895C82.1589 8.08924 81.8669 8.13848 81.5733 8.13848C81.0737 8.13848 80.6465 8.03916 80.2938 7.84052C79.9406 7.64229 79.6685 7.36213 79.4782 7.00085C79.3145 6.69089 79.226 6.3292 79.2024 5.92281H84.1208L84.1328 5.50566C84.1485 5.06907 84.0931 4.66806 83.9661 4.30265C83.8388 3.93764 83.651 3.62064 83.4012 3.35455ZM80.2053 3.62851C80.5303 3.45014 80.9153 3.36076 81.3599 3.36076C81.7408 3.36076 82.0679 3.44435 82.3417 3.61071C82.6159 3.77749 82.828 3.99392 82.979 4.26043C83.1299 4.52653 83.2126 4.80214 83.2292 5.0881V5.1717H79.2351C79.2764 4.8907 79.3467 4.63785 79.4551 4.421C79.6296 4.07172 79.8794 3.80728 80.2053 3.62851Z" fill="var(--fill-0, white)"/>
<path id="Vector_13" d="M89.1811 1.40663H90.5263V7.98247H89.1811V8.86435H92.8005V7.98247H91.4552V1.40663H92.8005V0.525156H89.1811V1.40663Z" fill="var(--fill-0, white)"/>
<path id="Vector_14" d="M98.5576 2.78842C98.2478 2.60551 97.8628 2.51446 97.4029 2.51446C97.0618 2.51446 96.7301 2.58399 96.4083 2.72304C96.087 2.86208 95.8108 3.04252 95.5808 3.26475C95.4402 3.4009 95.3372 3.54864 95.2529 3.70258L95.2239 2.64523H94.3426V8.86393H95.2355V5.07528C95.2355 4.83732 95.2835 4.61468 95.3782 4.40817C95.4733 4.20167 95.6044 4.01917 95.7711 3.86025C95.9377 3.70134 96.1362 3.57636 96.3662 3.48491C96.5965 3.39345 96.8463 3.34793 97.1163 3.34793C97.4414 3.34006 97.7152 3.39966 97.9377 3.5267C98.1602 3.65375 98.3248 3.85032 98.4319 4.116C98.5394 4.38251 98.5927 4.72186 98.5927 5.13445V8.86352H99.4972V5.08686C99.4972 4.49922 99.4182 4.01462 99.2594 3.63347C99.1006 3.25233 98.8673 2.97134 98.5576 2.78842Z" fill="var(--fill-0, white)"/>
<path id="Vector_15" d="M103.323 7.51773L101.338 2.64565H100.35L102.97 8.86435H103.612L106.398 2.64565H105.446L103.323 7.51773Z" fill="var(--fill-0, white)"/>
<path id="Vector_16" d="M111.985 3.35455C111.735 3.08887 111.437 2.87988 111.092 2.72924C110.747 2.57861 110.364 2.50287 109.944 2.50287C109.499 2.50287 109.087 2.5844 108.705 2.74704C108.324 2.91009 107.997 3.13853 107.723 3.43235C107.449 3.72617 107.237 4.06965 107.086 4.4628C106.935 4.85594 106.86 5.29461 106.86 5.77921C106.86 6.40658 106.995 6.96278 107.264 7.44696C107.534 7.93157 107.909 8.30857 108.389 8.5788C108.87 8.84904 109.419 8.98395 110.038 8.98395C110.356 8.98395 110.666 8.94215 110.967 8.85897C111.269 8.77538 111.546 8.66447 111.8 8.52542C112.054 8.38637 112.272 8.2258 112.455 8.04289L111.991 7.39979C111.641 7.69361 111.322 7.89018 111.032 7.9895C110.743 8.08924 110.451 8.13848 110.157 8.13848C109.657 8.13848 109.23 8.03916 108.877 7.84052C108.524 7.64229 108.252 7.36213 108.062 7.00085C107.898 6.69089 107.81 6.3292 107.786 5.92281H112.704L112.716 5.50566C112.732 5.06907 112.676 4.66806 112.55 4.30265C112.422 3.93764 112.235 3.62064 111.985 3.35455ZM108.789 3.62851C109.114 3.45014 109.499 3.36076 109.943 3.36076C110.324 3.36076 110.651 3.44435 110.925 3.61071C111.2 3.77749 111.411 3.99392 111.563 4.26043C111.713 4.52653 111.796 4.80214 111.812 5.0881V5.1717H107.818C107.859 4.8907 107.93 4.63785 108.038 4.421C108.213 4.07172 108.463 3.80728 108.789 3.62851Z" fill="var(--fill-0, white)"/>
<path id="Vector_17" d="M117.761 5.93357C117.603 5.79866 117.402 5.68154 117.161 5.58222C116.919 5.48332 116.623 5.38565 116.274 5.29047C115.972 5.21101 115.72 5.13362 115.517 5.05831C115.316 4.98257 115.159 4.90146 115.047 4.81415C114.96 4.74255 114.892 4.65937 114.845 4.56377C114.797 4.46859 114.773 4.36141 114.773 4.24222C114.773 4.09945 114.803 3.96827 114.863 3.84908C114.922 3.7299 115.009 3.62851 115.125 3.54533C115.24 3.46215 115.379 3.39635 115.541 3.34875C115.704 3.30116 115.88 3.27716 116.071 3.27716C116.285 3.27716 116.493 3.31317 116.696 3.38435C116.898 3.45594 117.091 3.55526 117.273 3.68189C117.456 3.80935 117.622 3.95213 117.773 4.11104L118.321 3.51512C118.146 3.30861 117.936 3.12984 117.69 2.97879C117.444 2.82815 117.177 2.7131 116.892 2.63323C116.606 2.55378 116.317 2.51405 116.023 2.51405C115.714 2.51405 115.426 2.55585 115.16 2.63903C114.894 2.72262 114.664 2.84553 114.47 3.00817C114.275 3.1708 114.124 3.35951 114.018 3.57388C113.91 3.78825 113.856 4.02289 113.856 4.27657C113.856 4.47521 113.886 4.65771 113.946 4.8249C114.005 4.99168 114.094 5.14646 114.214 5.28923C114.38 5.46428 114.611 5.61698 114.904 5.74776C115.198 5.87894 115.567 6.00806 116.012 6.13511C116.281 6.2067 116.511 6.27995 116.702 6.35568C116.892 6.431 117.039 6.50466 117.143 6.57626C117.373 6.75089 117.488 6.9694 117.488 7.23136C117.488 7.37413 117.456 7.50532 117.393 7.6245C117.329 7.74369 117.237 7.84714 117.119 7.93446C117 8.02178 116.861 8.08758 116.702 8.13103C116.544 8.1749 116.365 8.19642 116.166 8.19642C115.778 8.19642 115.426 8.12483 115.113 7.98205C114.799 7.83928 114.527 7.62905 114.297 7.35054L113.666 7.89846C113.912 8.22456 114.246 8.48652 114.666 8.68475C115.087 8.88339 115.563 8.98271 116.095 8.98271C116.532 8.98271 116.92 8.90532 117.262 8.75054C117.603 8.59577 117.871 8.38347 118.065 8.11283C118.26 7.84301 118.357 7.53304 118.357 7.18376C118.357 6.92181 118.311 6.68758 118.22 6.48107C118.129 6.27457 117.976 6.0929 117.761 5.93357Z" fill="var(--fill-0, white)"/>
<path id="Vector_18" d="M121.694 1.01348H120.801V2.64565H119.396V3.50353H120.801V8.86435H121.694V3.50353H123.265V2.64565H121.694V1.01348Z" fill="var(--fill-0, white)"/>
<path id="Vector_19" d="M132.684 2.80663C132.382 2.61999 132.013 2.52646 131.577 2.52646C131.323 2.52646 131.075 2.56454 130.833 2.63985C130.591 2.71559 130.369 2.8207 130.166 2.95561C129.963 3.09052 129.785 3.24323 129.63 3.41414C129.491 3.56809 129.386 3.72741 129.309 3.89046C129.225 3.63389 129.123 3.41414 128.999 3.23536C128.821 2.97713 128.602 2.79463 128.345 2.68703C128.086 2.57985 127.795 2.52605 127.469 2.52605C127.2 2.52605 126.942 2.56412 126.695 2.63944C126.449 2.71517 126.223 2.82401 126.017 2.96678C125.811 3.10956 125.634 3.27882 125.487 3.47291C125.432 3.54657 125.388 3.62602 125.344 3.70548L125.327 2.64482H124.434V8.86352H125.339V5.08686C125.339 4.84849 125.384 4.62626 125.475 4.41976C125.566 4.21326 125.693 4.03075 125.856 3.87184C126.019 3.71293 126.211 3.58795 126.433 3.49649C126.656 3.40545 126.898 3.35951 127.159 3.35951C127.461 3.35951 127.715 3.42697 127.922 3.56188C128.128 3.6972 128.285 3.89543 128.392 4.15739C128.499 4.41935 128.553 4.74917 128.553 5.14604V8.86311H129.457V5.09845C129.457 4.86008 129.503 4.63785 129.594 4.43135C129.685 4.22484 129.812 4.04027 129.975 3.87764C130.137 3.715 130.332 3.58795 130.558 3.49649C130.785 3.40545 131.032 3.35951 131.302 3.35951C131.612 3.35951 131.867 3.4249 132.07 3.55609C132.272 3.68727 132.425 3.88384 132.528 4.1458C132.632 4.40776 132.683 4.74586 132.683 5.15846V8.86352H133.6V5.11086C133.6 4.52322 133.522 4.03862 133.368 3.65748C133.213 3.27633 132.986 2.99327 132.684 2.80663Z" fill="var(--fill-0, white)"/>
<path id="Vector_20" d="M140.13 3.35455C139.88 3.08887 139.582 2.87988 139.237 2.72924C138.892 2.57861 138.509 2.50287 138.088 2.50287C137.643 2.50287 137.232 2.5844 136.85 2.74704C136.469 2.91009 136.142 3.13853 135.868 3.43235C135.594 3.72617 135.382 4.06965 135.23 4.4628C135.08 4.85594 135.005 5.29461 135.005 5.77921C135.005 6.40658 135.139 6.96278 135.409 7.44696C135.679 7.93157 136.054 8.30857 136.534 8.5788C137.014 8.84904 137.564 8.98395 138.183 8.98395C138.5 8.98395 138.811 8.94215 139.112 8.85897C139.414 8.77538 139.691 8.66447 139.945 8.52542C140.199 8.38637 140.417 8.2258 140.6 8.04289L140.136 7.39979C139.786 7.69361 139.467 7.89018 139.177 7.9895C138.887 8.08924 138.595 8.13848 138.302 8.13848C137.802 8.13848 137.375 8.03916 137.022 7.84052C136.669 7.64229 136.397 7.36213 136.207 7.00085C136.043 6.69089 135.955 6.3292 135.931 5.92281H140.849L140.861 5.50566C140.877 5.06907 140.821 4.66806 140.695 4.30265C140.567 3.93764 140.38 3.62064 140.13 3.35455ZM136.934 3.62851C137.259 3.45014 137.644 3.36076 138.088 3.36076C138.469 3.36076 138.796 3.44435 139.07 3.61071C139.344 3.77749 139.557 3.99392 139.708 4.26043C139.859 4.52653 139.941 4.80214 139.958 5.0881V5.1717H135.964C136.005 4.8907 136.075 4.63785 136.184 4.421C136.358 4.07172 136.608 3.80728 136.934 3.62851Z" fill="var(--fill-0, white)"/>
<path id="Vector_21" d="M146.52 2.78842C146.21 2.60551 145.825 2.51446 145.365 2.51446C145.024 2.51446 144.692 2.58399 144.371 2.72304C144.049 2.86208 143.773 3.04252 143.543 3.26475C143.403 3.4009 143.3 3.54864 143.216 3.70258L143.186 2.64523H142.305V8.86393H143.198V5.07528C143.198 4.83732 143.246 4.61468 143.341 4.40817C143.436 4.20167 143.567 4.01917 143.734 3.86025C143.9 3.70134 144.099 3.57636 144.329 3.48491C144.559 3.39345 144.809 3.34793 145.079 3.34793C145.404 3.34006 145.678 3.39966 145.901 3.5267C146.123 3.65375 146.288 3.85032 146.394 4.116C146.502 4.38251 146.556 4.72186 146.556 5.13445V8.86352H147.46V5.08686C147.46 4.49922 147.381 4.01462 147.222 3.63347C147.063 3.25233 146.829 2.97134 146.52 2.78842Z" fill="var(--fill-0, white)"/>
<path id="Vector_22" d="M150.834 1.01348H149.941V2.64565H148.536V3.50353H149.941V8.86435H150.834V3.50353H152.405V2.64565H150.834V1.01348Z" fill="var(--fill-0, white)"/>
<path id="Vector_23" d="M159.929 0.525156L156.739 8.86435H157.691L158.561 6.56508H162.278L163.144 8.86435H164.155L160.989 0.525156H159.929ZM161.938 5.65961H158.904L159.715 3.51512C159.786 3.31648 159.858 3.11783 159.929 2.91961C160.001 2.72138 160.072 2.52067 160.143 2.31789C160.215 2.11552 160.284 1.91316 160.352 1.71038C160.38 1.62803 160.405 1.54774 160.432 1.46622C160.453 1.52829 160.473 1.58913 160.495 1.65658C160.562 1.86309 160.633 2.0758 160.709 2.2943C160.784 2.51281 160.856 2.72304 160.923 2.92581C160.99 3.12818 161.052 3.3053 161.108 3.45594L161.938 5.65961Z" fill="var(--fill-0, white)"/>
<path id="Vector_24" d="M170.09 3.64051C169.94 3.422 169.749 3.22791 169.519 3.05659C169.289 2.88567 169.029 2.75283 168.739 2.65765C168.449 2.56247 168.15 2.51488 167.84 2.51488C167.285 2.51488 166.785 2.65392 166.34 2.93161C165.896 3.20971 165.543 3.59292 165.281 4.08124C165.018 4.56957 164.888 5.12783 164.888 5.75521C164.888 6.37472 165.016 6.92884 165.275 7.41717C165.532 7.90549 165.886 8.2887 166.334 8.5668C166.783 8.8449 167.289 8.98353 167.852 8.98353C168.154 8.98353 168.445 8.93594 168.727 8.84076C169.008 8.74558 169.261 8.61439 169.483 8.44762C169.705 8.28084 169.89 8.09213 170.037 7.8819C170.057 7.85294 170.067 7.82273 170.086 7.79335L170.102 8.86435H170.983V0.0488325H170.09V3.64051ZM169.858 6.99382C169.671 7.35923 169.415 7.64519 169.09 7.8517C168.764 8.0582 168.395 8.16166 167.983 8.16166C167.554 8.16166 167.177 8.05655 166.852 7.8459C166.527 7.63567 166.272 7.34764 166.09 6.98223C165.907 6.61723 165.816 6.20422 165.816 5.7432C165.816 5.27474 165.909 4.85967 166.095 4.49839C166.282 4.13711 166.536 3.85115 166.857 3.64051C167.179 3.43028 167.554 3.32475 167.983 3.32475C168.395 3.32475 168.764 3.43028 169.09 3.64051C169.415 3.85115 169.671 4.13711 169.857 4.49839C170.044 4.86008 170.137 5.27474 170.137 5.7432C170.137 6.21167 170.044 6.6284 169.858 6.99382Z" fill="var(--fill-0, white)"/>
<path id="Vector_25" d="M175.106 7.51773L173.122 2.64565H172.134L174.753 8.86435H175.396L178.182 2.64565H177.23L175.106 7.51773Z" fill="var(--fill-0, white)"/>
<path id="Vector_26" d="M179.884 0.000827567C179.671 0.000827567 179.504 0.0604199 179.385 0.179604C179.266 0.298789 179.206 0.457701 179.206 0.655928C179.206 0.854569 179.264 1.01141 179.379 1.12646C179.494 1.2415 179.662 1.29903 179.884 1.29903C180.099 1.29903 180.266 1.23944 180.384 1.12025C180.504 1.00107 180.563 0.846292 180.563 0.655514C180.563 0.44901 180.504 0.288444 180.384 0.172984C180.265 0.0575239 180.099 0.000827567 179.884 0.000827567Z" fill="var(--fill-0, white)"/>
<path id="Vector_27" d="M180.337 2.64565H179.444V8.86435H180.337V2.64565Z" fill="var(--fill-0, white)"/>
<path id="Vector_28" d="M185.943 5.93357C185.785 5.79866 185.584 5.68154 185.343 5.58222C185.101 5.48332 184.805 5.38565 184.456 5.29047C184.154 5.21101 183.902 5.13362 183.699 5.05831C183.498 4.98257 183.341 4.90146 183.229 4.81415C183.142 4.74255 183.075 4.65937 183.027 4.56377C182.979 4.46859 182.956 4.36141 182.956 4.24222C182.956 4.09945 182.985 3.96827 183.045 3.84908C183.105 3.7299 183.192 3.62851 183.307 3.54533C183.422 3.46215 183.561 3.39635 183.724 3.34875C183.886 3.30116 184.063 3.27716 184.254 3.27716C184.468 3.27716 184.676 3.31317 184.879 3.38435C185.082 3.45594 185.273 3.55526 185.456 3.68189C185.639 3.80935 185.805 3.95213 185.956 4.11104L186.504 3.51512C186.329 3.30861 186.119 3.12984 185.873 2.97879C185.627 2.82815 185.361 2.7131 185.075 2.63323C184.789 2.55378 184.5 2.51405 184.206 2.51405C183.897 2.51405 183.609 2.55585 183.343 2.63903C183.077 2.72262 182.847 2.84553 182.653 3.00817C182.458 3.1708 182.307 3.35951 182.2 3.57388C182.094 3.78825 182.039 4.02289 182.039 4.27657C182.039 4.47521 182.07 4.65771 182.129 4.8249C182.188 4.99168 182.278 5.14646 182.397 5.28923C182.564 5.46428 182.794 5.61698 183.087 5.74776C183.381 5.87894 183.75 6.00806 184.195 6.13511C184.465 6.2067 184.695 6.27995 184.886 6.35568C185.076 6.431 185.223 6.50466 185.326 6.57626C185.556 6.75089 185.671 6.9694 185.671 7.23136C185.671 7.37413 185.639 7.50532 185.576 7.6245C185.512 7.74369 185.421 7.84714 185.302 7.93446C185.183 8.02178 185.044 8.08758 184.886 8.13103C184.726 8.1749 184.548 8.19642 184.35 8.19642C183.961 8.19642 183.61 8.12483 183.296 7.98205C182.982 7.83928 182.711 7.62905 182.48 7.35054L181.85 7.89846C182.095 8.22456 182.429 8.48652 182.85 8.68475C183.27 8.88339 183.746 8.98271 184.278 8.98271C184.715 8.98271 185.104 8.90532 185.445 8.75054C185.786 8.59577 186.054 8.38347 186.249 8.11283C186.443 7.84301 186.54 7.53304 186.54 7.18376C186.54 6.92181 186.494 6.68758 186.404 6.48107C186.312 6.27457 186.158 6.0929 185.943 5.93357Z" fill="var(--fill-0, white)"/>
<path id="Vector_29" d="M192.41 2.93161C191.93 2.65392 191.384 2.51488 190.773 2.51488C190.154 2.51488 189.605 2.65392 189.124 2.93161C188.644 3.20971 188.268 3.59085 187.993 4.07503C187.72 4.55964 187.582 5.11169 187.582 5.73079C187.582 6.35816 187.72 6.9185 187.993 7.41055C188.267 7.90301 188.644 8.28829 189.124 8.56598C189.605 8.84407 190.154 8.98271 190.773 8.98271C191.384 8.98271 191.93 8.84407 192.41 8.56598C192.89 8.28829 193.267 7.90301 193.541 7.41055C193.815 6.91808 193.952 6.35816 193.952 5.73079C193.952 5.11128 193.815 4.55922 193.541 4.07503C193.267 3.59085 192.89 3.20971 192.41 2.93161ZM192.737 6.96402C192.547 7.32571 192.281 7.61126 191.94 7.8219C191.599 8.03254 191.21 8.13765 190.773 8.13765C190.337 8.13765 189.946 8.03254 189.601 7.8219C189.255 7.61167 188.985 7.32571 188.791 6.96402C188.596 6.60274 188.503 6.1918 188.512 5.73079C188.503 5.27805 188.597 4.87125 188.791 4.50956C188.985 4.14828 189.255 3.86646 189.601 3.66368C189.946 3.46132 190.337 3.35993 190.773 3.35993C191.21 3.35993 191.599 3.46132 191.94 3.66368C192.281 3.86605 192.547 4.14621 192.737 4.50335C192.928 4.86091 193.023 5.26978 193.023 5.73038C193.023 6.19139 192.928 6.60233 192.737 6.96402Z" fill="var(--fill-0, white)"/>
<path id="Vector_30" d="M198.233 2.51446C197.908 2.51446 197.61 2.58606 197.341 2.72883C197.071 2.8716 196.839 3.06238 196.644 3.30075C196.5 3.47663 196.396 3.66741 196.31 3.86522L196.293 2.64565H195.4V8.86435H196.305V5.33806C196.305 5.08397 196.344 4.8456 196.424 4.62337C196.503 4.40072 196.618 4.20457 196.769 4.03365C196.92 3.86274 197.102 3.7299 197.317 3.6343C197.531 3.53912 197.773 3.49153 198.043 3.49153C198.138 3.49153 198.24 3.50187 198.347 3.52132C198.454 3.54119 198.559 3.57471 198.662 3.6223L198.912 2.62165C198.833 2.58978 198.733 2.56412 198.615 2.54426C198.496 2.5244 198.368 2.51446 198.233 2.51446Z" fill="var(--fill-0, white)"/>
<path id="Vector_31" d="M204.976 2.64565L203.107 7.49414C203.062 7.62367 203.014 7.75651 202.965 7.89308C202.96 7.88108 202.957 7.86949 202.952 7.85749C202.889 7.68658 202.826 7.53801 202.762 7.41055L200.63 2.64523H199.618L202.512 9.02078L201.452 11.6039H202.416L203.488 8.86393L206 2.64523L204.976 2.64565Z" fill="var(--fill-0, white)"/>
</g>
</svg>
