<?xml version="1.0" encoding="UTF-8"?>
<svg id="Layer_2" data-name="Layer 2" xmlns="http://www.w3.org/2000/svg" viewBox="0 0 28.1635 28.1645">
  <defs>
    <style>
      .cls-1 {
        fill: none;
        stroke: #e2c27a;
        stroke-miterlimit: 10;
        stroke-width: .2164px;
      }

      .cls-3 {
        fill: #114548;
      }
    </style>
  </defs>
  <g id="Layer_1-2" data-name="Layer 1">
    <g>
      <circle class="cls-1" cx="14.0818" cy="14.0818" r="12.0524"/>
      <g transform="translate(7.078,7.078) scale(0.0547)">
        <path class="cls-3" d="M232,172H220V72a20,20,0,0,0-20-20H56A20,20,0,0,0,36,72V172H24a4,4,0,0,0-4,4v16a20,20,0,0,0,20,20H216a20,20,0,0,0,20-20V176A4,4,0,0,0,232,172ZM44,72A12,12,0,0,1,56,60H200a12,12,0,0,1,12,12V172H44ZM228,192a12,12,0,0,1-12,12H40a12,12,0,0,1-12-12V180H228ZM148,88a4,4,0,0,1-4,4H112a4,4,0,0,1,0-8h32A4,4,0,0,1,148,88Z"/>
      </g>
      <path class="cls-3" d="M14.0818,28.1645C6.3169,28.1645,0,21.8466,0,14.0818S6.3169,0,14.0818,0s14.0818,6.3169,14.0818,14.0818-6.3169,14.0828-14.0818,14.0828ZM14.0818.3106C6.4883.3106.3106,6.4883.3106,14.0818s6.1778,13.7722,13.7712,13.7722,13.7712-6.1778,13.7712-13.7722S21.6752.3106,14.0818.3106Z"/>
    </g>
  </g>
</svg>
