<?xml version="1.0" encoding="UTF-8"?>
<svg id="Layer_2" data-name="Layer 2" xmlns="http://www.w3.org/2000/svg" viewBox="0 0 28.1635 28.1645">
  <defs>
    <style>
      .cls-1 {
        fill: none;
        stroke: #e2c27a;
        stroke-miterlimit: 10;
        stroke-width: .2164px;
      }

      .cls-2 {
        fill: #114548;
      }
    </style>
  </defs>
  <g id="Layer_1-2" data-name="Layer 1">
    <g>
      <circle class="cls-1" cx="14.0816" cy="14.1665" r="12.0524"/>
      <g>
        <path class="cls-2" d="M19.4941,18.037h-1.8736v-1.6654h1.4572c.115.0002.2083-.0928.2085-.2078,0-.0177-.0022-.0353-.0066-.0524l-1.6654-6.6615c-.028-.1115-.141-.1793-.2525-.1513-.0745.0187-.1326.0768-.1513.1513l-1.6654,6.6615c-.0287.1113.0382.2249.1495.2536.0171.0044.0347.0066.0524.0066h1.4572v1.6654h-3.7471v-1.249h.6245c.115,0,.2082-.0932.2082-.2082s-.0932-.2082-.2082-.2082h-.6245v-1.249h.6245c.115,0,.2082-.0932.2082-.2082s-.0932-.2082-.2082-.2082h-4.5798c-.115,0-.2082.0932-.2082.2082s.0932.2082.2082.2082h.6245v1.249h-.6245c-.115,0-.2082.0932-.2082.2082s.0932.2082.2082.2082h.6245v1.249h-1.4572c-.115,0-.2082.0932-.2082.2082s.0932.2082.2082.2082h10.825c.115,0,.2082-.0932.2082-.2082s-.0932-.2082-.2082-.2082ZM17.4124,10.3601l1.3989,5.5952h-2.7978l1.3989-5.5952ZM10.5427,15.1226h2.4981v1.249h-2.4981v-1.249ZM10.5427,16.788h2.4981v1.249h-2.4981v-1.249ZM13.4571,12.6245c.6898,0,1.249-.5592,1.249-1.249s-.5592-1.249-1.249-1.249-1.249.5592-1.249,1.249.5592,1.249,1.249,1.249ZM13.4571,10.5428c.4599,0,.8327.3728.8327.8327s-.3728.8327-.8327.8327-.8327-.3728-.8327-.8327.3728-.8327.8327-.8327Z"/>
        <path class="cls-2" d="M14.0818,28.1645C6.3169,28.1645,0,21.8466,0,14.0818S6.3169,0,14.0818,0s14.0818,6.3169,14.0818,14.0818-6.3169,14.0828-14.0818,14.0828ZM14.0818.3106C6.4883.3106.3106,6.4883.3106,14.0818s6.1778,13.7722,13.7712,13.7722,13.7712-6.1778,13.7712-13.7722S21.6752.3106,14.0818.3106Z"/>
      </g>
    </g>
  </g>
</svg>