<?xml version="1.0" encoding="UTF-8"?>
<svg id="Layer_2" data-name="Layer 2" xmlns="http://www.w3.org/2000/svg" viewBox="0 0 28.1635 28.1645">
  <defs>
    <style>
      .cls-1 {
        fill: none;
        stroke: #e2c27a;
        stroke-miterlimit: 10;
        stroke-width: .2164px;
      }

      .cls-2 {
        fill: #114548;
      }
    </style>
  </defs>
  <g id="Layer_1-2" data-name="Layer 1">
    <g>
      <circle class="cls-1" cx="14.1044" cy="14.01" r="12.0524"/>
      <g>
        <g id="call-bell">
          <path class="cls-2" d="M8.7508,16.2332h10.6616c.1132,0,.205-.0918.205-.205s-.0918-.205-.205-.205h-.6151v-1.0252c-.003-2.5234-1.9897-4.5985-4.5107-4.7111v-1.2348h1.0252c.1132,0,.205-.0918.205-.205s-.0918-.205-.205-.205h-2.4604c-.1132,0-.205.0918-.205.205s.0918.205.205.205h1.0252v1.2348c-2.5209.1126-4.5077,2.1876-4.5107,4.7111v1.0252h-.6151c-.1132,0-.205.0918-.205.205s.0918.205.205.205ZM9.776,14.7979c0-2.3779,1.9277-4.3056,4.3056-4.3056s4.3056,1.9277,4.3056,4.3056v1.0252h-8.6113v-1.0252ZM19.6174,17.6684c0,.1132-.0918.205-.205.205h-10.6616c-.1132,0-.205-.0918-.205-.205s.0918-.205.205-.205h10.6616c.1132,0,.205.0918.205.205Z"/>
        </g>
        <path class="cls-2" d="M14.0818,28.1645C6.3169,28.1645,0,21.8466,0,14.0818S6.3169,0,14.0818,0s14.0818,6.3169,14.0818,14.0818-6.3169,14.0828-14.0818,14.0828ZM14.0818.3106C6.4883.3106.3106,6.4883.3106,14.0818s6.1778,13.7722,13.7712,13.7722,13.7712-6.1778,13.7712-13.7722S21.6752.3106,14.0818.3106Z"/>
      </g>
    </g>
  </g>
</svg>