<?xml version="1.0" encoding="UTF-8"?>
<svg id="Layer_2" data-name="Layer 2" xmlns="http://www.w3.org/2000/svg" viewBox="0 0 28.1635 28.1645">
  <defs>
    <style>
      .cls-1 {
        fill: none;
        stroke: #e2c27a;
        stroke-miterlimit: 10;
        stroke-width: .2164px;
      }

      .cls-2 {
        fill: #114548;
      }
    </style>
  </defs>
  <g id="Layer_1-2" data-name="Layer 1">
    <g>
      <circle class="cls-1" cx="14.0234" cy="14.0424" r="12.0524"/>
      <g>
        <g id="barbell">
          <path class="cls-2" d="M20.1426,13.8802h-.6061v-1.8182c0-.3347-.2713-.6061-.6061-.6061h-1.0101v-.6061c0-.3347-.2713-.6061-.6061-.6061h-1.2121c-.3347,0-.6061.2713-.6061.6061v3.0304h-2.8283v-3.0304c0-.3347-.2713-.6061-.6061-.6061h-1.2121c-.3347,0-.6061.2713-.6061.6061v.6061h-1.0101c-.3347,0-.6061.2713-.6061.6061v1.8182h-.6061c-.1116,0-.202.0904-.202.202s.0904.202.202.202h.6061v1.8182c0,.3347.2713.6061.6061.6061h1.0101v.6061c0,.3347.2713.6061.6061.6061h1.2121c.3347,0,.6061-.2713.6061-.6061v-3.0304h2.8283v3.0304c0,.3347.2713.6061.6061.6061h1.2121c.3347,0,.6061-.2713.6061-.6061v-.6061h1.0101c.3347,0,.6061-.2713.6061-.6061v-1.8182h.6061c.1116,0,.202-.0904.202-.202s-.0904-.202-.202-.202ZM9.2333,16.3044c-.1116,0-.202-.0904-.202-.202v-4.0405c0-.1116.0904-.202.202-.202h1.0101v4.4445h-1.0101ZM12.2636,17.3146c0,.1116-.0904.202-.202.202h-1.2121c-.1116,0-.202-.0904-.202-.202v-6.4648c0-.1116.0904-.202.202-.202h1.2121c.1116,0,.202.0904.202.202v6.4648ZM17.5163,17.3146c0,.1116-.0904.202-.202.202h-1.2121c-.1116,0-.202-.0904-.202-.202v-6.4648c0-.1116.0904-.202.202-.202h1.2121c.1116,0,.202.0904.202.202v6.4648ZM19.1324,16.1024c0,.1116-.0904.202-.202.202h-1.0101v-4.4445h1.0101c.1116,0,.202.0904.202.202v4.0405Z"/>
        </g>
        <path class="cls-2" d="M14.0818,28.1645C6.3169,28.1645,0,21.8466,0,14.0818S6.3169,0,14.0818,0s14.0818,6.3169,14.0818,14.0818-6.3169,14.0828-14.0818,14.0828ZM14.0818.3106C6.4883.3106.3106,6.4883.3106,14.0818s6.1778,13.7722,13.7712,13.7722,13.7712-6.1778,13.7712-13.7722S21.6752.3106,14.0818.3106Z"/>
      </g>
    </g>
  </g>
</svg>