<?xml version="1.0" encoding="UTF-8"?>
<svg id="Layer_2" data-name="Layer 2" xmlns="http://www.w3.org/2000/svg" viewBox="0 0 28.1645 28.1645">
  <defs>
    <style>
      .cls-1 {
        fill: none;
        stroke: #e2c27a;
        stroke-miterlimit: 10;
        stroke-width: .2164px;
      }

      .cls-2 {
        fill: #114548;
      }
    </style>
  </defs>
  <g id="Layer_1-2" data-name="Layer 1">
    <g>
      <circle class="cls-1" cx="14.0821" cy="14.1665" r="12.0524"/>
      <g>
        <path class="cls-2" d="M19.3426,18.9216h-3.4092c2.6724-1.1384,3.9159-4.2277,2.7775-6.9-1.1384-2.6724-4.2277-3.9159-6.9001-2.7775-2.6724,1.1384-3.9159,4.2277-2.7775,6.9.8263,1.9397,2.731,3.1985,4.8394,3.1982h5.4699c.1162,0,.2104-.0942.2104-.2104s-.0942-.2104-.2104-.2104ZM9.034,14.0829c0-2.6724,2.1664-4.8388,4.8388-4.8388s4.8388,2.1664,4.8388,4.8388-2.1664,4.8388-4.8388,4.8388c-2.6712-.0029-4.8359-2.1676-4.8388-4.8388ZM13.8727,12.6102c.5809,0,1.0519-.471,1.0519-1.0519s-.471-1.0519-1.0519-1.0519-1.0519.471-1.0519,1.0519.471,1.0519,1.0519,1.0519ZM13.8727,10.9272c.3486,0,.6311.2826.6311.6311s-.2826.6311-.6311.6311-.6311-.2826-.6311-.6311.2826-.6311.6311-.6311ZM14.9246,16.6074c0-.5809-.471-1.0519-1.0519-1.0519s-1.0519.471-1.0519,1.0519.471,1.0519,1.0519,1.0519h0c.5809,0,1.0519-.471,1.0519-1.0519ZM13.2416,16.6074c0-.3486.2826-.6311.6311-.6311s.6311.2826.6311.6311-.2826.6311-.6311.6311-.6311-.2826-.6311-.6311ZM16.3973,15.1348c.5809,0,1.0519-.471,1.0519-1.0519s-.471-1.0519-1.0519-1.0519-1.0519.471-1.0519,1.0519.471,1.0519,1.0519,1.0519ZM16.3973,13.4517c.3486,0,.6311.2826.6311.6311s-.2826.6311-.6311.6311-.6311-.2826-.6311-.6311.2826-.6311.6311-.6311ZM11.3482,13.031c-.5809,0-1.0519.471-1.0519,1.0519s.471,1.0519,1.0519,1.0519,1.0519-.471,1.0519-1.0519-.471-1.0519-1.0519-1.0519ZM11.3482,14.714c-.3486,0-.6311-.2826-.6311-.6311s.2826-.6311.6311-.6311.6311.2826.6311.6311-.2826.6311-.6311.6311Z"/>
        <path class="cls-2" d="M14.0818,28.1645C6.3169,28.1645,0,21.8466,0,14.0818S6.3169,0,14.0818,0s14.0828,6.3169,14.0828,14.0818-6.3179,14.0828-14.0828,14.0828ZM14.0818.3106C6.4883.3106.3106,6.4883.3106,14.0818s6.1778,13.7722,13.7712,13.7722,13.7722-6.1778,13.7722-13.7722S21.6762.3106,14.0818.3106Z"/>
      </g>
    </g>
  </g>
</svg>