<?xml version="1.0" encoding="UTF-8"?>
<svg id="Layer_2" data-name="Layer 2" xmlns="http://www.w3.org/2000/svg" viewBox="0 0 28.1635 28.1645">
  <defs>
    <style>
      .cls-1 {
        fill: none;
        stroke: #e2c27a;
        stroke-miterlimit: 10;
        stroke-width: .2164px;
      }

      .cls-2 {
        fill: #114548;
      }
    </style>
  </defs>
  <g id="Layer_1-2" data-name="Layer 1">
    <g>
      <circle class="cls-1" cx="14.0819" cy="14.0823" r="12.0524"/>
      <g>
        <g id="train">
          <path class="cls-2" d="M16.7953,9.3172h-5.8442c-.8069,0-1.4611.6541-1.4611,1.4611v6.6791c0,.8069.6541,1.4611,1.4611,1.4611h.8349l-1.0019,1.3358c-.0692.0922-.0505.223.0417.2922.0922.0692.223.0505.2922-.0417l1.1897-1.5863h3.1308l1.1897,1.5863c.0692.0922.2001.1107.2922.0415.092-.0692.1107-.1998.0417-.292l-1.0019-1.3358h.8349c.8069,0,1.4611-.6541,1.4611-1.4611v-6.6791c0-.8069-.6541-1.4611-1.4611-1.4611ZM9.9075,14.3265v-2.5047h3.757v2.5047h-3.757ZM14.0819,11.8219h3.757v2.5047h-3.757v-2.5047ZM10.9511,9.7346h5.8442c.5764,0,1.0436.4672,1.0436,1.0436v.6262h-7.9315v-.6262c0-.5764.4672-1.0436,1.0436-1.0436ZM16.7953,18.501h-5.8442c-.5764,0-1.0436-.4672-1.0436-1.0436v-2.7134h7.9315v2.7134c0,.5764-.4672,1.0436-1.0436,1.0436ZM11.9947,16.8312c0,.2305-.1869.4174-.4174.4174s-.4174-.1869-.4174-.4174.1869-.4174.4174-.4174.4174.1869.4174.4174ZM16.5866,16.8312c0,.2305-.1869.4174-.4174.4174s-.4174-.1869-.4174-.4174.1869-.4174.4174-.4174.4174.1869.4174.4174Z"/>
        </g>
        <path class="cls-2" d="M14.0818,28.1645C6.3169,28.1645,0,21.8466,0,14.0818S6.3169,0,14.0818,0s14.0818,6.3169,14.0818,14.0818-6.3169,14.0828-14.0818,14.0828ZM14.0818.3106C6.4883.3106.3106,6.4883.3106,14.0818s6.1778,13.7722,13.7712,13.7722,13.7712-6.1778,13.7712-13.7722S21.6752.3106,14.0818.3106Z"/>
      </g>
    </g>
  </g>
</svg>