<?xml version="1.0" encoding="utf-8"?>
<!-- Generator: Adobe Illustrator 16.0.0, SVG Export Plug-In . SVG Version: 6.00 Build 0)  -->
<!DOCTYPE svg PUBLIC "-//W3C//DTD SVG 1.1//EN" "http://www.w3.org/Graphics/SVG/1.1/DTD/svg11.dtd">
<svg version="1.1" id="Layer_1" xmlns="http://www.w3.org/2000/svg" xmlns:xlink="http://www.w3.org/1999/xlink" x="0px" y="0px"
	 width="503px" height="164px" viewBox="0 0 503 164" enable-background="new 0 0 503 164" xml:space="preserve">
<g>
	<defs>
		<rect id="SVGID_1_" x="-170" y="-215.28" width="841.89" height="595.28"/>
	</defs>
	<clipPath id="SVGID_2_">
		<use xlink:href="#SVGID_1_"  overflow="visible"/>
	</clipPath>
	<path clip-path="url(#SVGID_2_)" fill="#bfbfbf" d="M109.335,71.442v6.529c-5.2-5.393-11.074-8.089-17.622-8.089
		c-7.589,0-13.906,2.812-18.952,8.435c-5.046,5.625-7.568,12.654-7.568,21.089c0,8.59,2.522,15.754,7.568,21.494
		c5.085,5.624,11.518,8.436,19.298,8.436c6.163,0,11.922-2.504,17.276-7.512v5.895h13.058V71.442H109.335z M105.695,112.754
		c-2.967,3.313-6.856,4.969-11.671,4.969c-4.507,0-8.243-1.713-11.209-5.143c-2.889-3.389-4.334-7.779-4.334-13.174
		c0-5.046,1.483-9.281,4.449-12.711c3.005-3.389,6.74-5.084,11.209-5.084c4.738,0,8.589,1.675,11.556,5.026
		c2.966,3.429,4.449,7.781,4.449,13.058C110.144,104.974,108.661,109.325,105.695,112.754"/>
	<rect x="131.968" y="15.77" clip-path="url(#SVGID_2_)" fill="#bfbfbf" width="13" height="111.948"/>
	<rect x="155.831" y="5.901" clip-path="url(#SVGID_2_)" fill="#bfbfbf" width="13" height="121.817"/>
	<path clip-path="url(#SVGID_2_)" fill="#bfbfbf" d="M53.442,78.376c-5.047-5.662-11.363-8.494-18.951-8.494
		c-6.587,0-12.481,2.697-17.681,8.089V31.286h-13v96.432h13v-5.893c5.123,5.007,10.94,7.511,17.449,7.511
		c7.704,0,14.078-2.812,19.125-8.437c5.084-5.661,7.627-12.825,7.627-21.492C61.011,91.01,58.488,84,53.442,78.376 M43.215,112.695
		c-2.967,3.352-6.702,5.027-11.209,5.027c-4.776,0-8.629-1.676-11.556-5.027c-2.927-3.272-4.391-7.646-4.391-13.115
		c0-5.315,1.483-9.629,4.449-12.942c3.005-3.351,6.895-5.027,11.671-5.027c4.469,0,8.185,1.734,11.152,5.2
		c2.926,3.391,4.391,7.781,4.391,13.174C47.722,105.068,46.219,109.307,43.215,112.695"/>
	<path clip-path="url(#SVGID_2_)" fill="#bfbfbf" d="M414.51,69.882c-2.581,0-4.815,0.482-6.702,1.444
		c-1.849,0.925-3.968,2.639-6.355,5.143v-5.027h-13v56.275h13V98.54c0-10.708,3.544-16.062,10.631-16.062
		c2.349,0,4.757,0.886,7.223,2.657l5.951-11.901C421.52,71,417.938,69.882,414.51,69.882"/>
	<path clip-path="url(#SVGID_2_)" fill="#bfbfbf" d="M465.573,106.86c-2.658,4.159-5.027,7.011-7.107,8.551
		c-2.118,1.541-4.796,2.312-8.03,2.312c-4.16,0-7.569-1.349-10.228-4.045c-2.657-2.734-4.16-6.413-4.507-11.035h40.329l0.057-3.063
		c0-9.282-2.388-16.544-7.163-21.782c-4.815-5.277-11.362-7.916-19.645-7.916c-8.204,0-14.791,2.716-19.76,8.147
		c-4.932,5.509-7.396,12.711-7.396,21.609c0,8.977,2.542,16.178,7.626,21.609c5.085,5.393,11.825,8.089,20.224,8.089
		c2.926,0,5.642-0.309,8.146-0.924c2.504-0.617,4.834-1.589,6.991-2.918c2.158-1.329,4.18-3.024,6.067-5.085
		c1.887-2.061,3.678-4.535,5.373-7.424L465.573,106.86z M438.417,87.678c0.81-1.271,1.781-2.358,2.918-3.264
		c1.136-0.905,2.398-1.598,3.784-2.08c1.387-0.482,2.869-0.723,4.449-0.723c6.934,0,11.305,3.467,13.116,10.4h-26.116
		C436.992,90.394,437.608,88.949,438.417,87.678"/>
	<polygon clip-path="url(#SVGID_2_)" fill="#bfbfbf" points="206.875,103.798 189.657,71.442 174.578,71.442 199.884,117.26 
		177.929,158.34 192.777,158.34 237.613,71.442 222.938,71.442 	"/>
	<path clip-path="url(#SVGID_2_)" fill="#bfbfbf" d="M496.493,115.643c-1.579-1.579-3.467-2.369-5.662-2.369
		c-2.196,0-4.083,0.79-5.663,2.369c-1.579,1.58-2.368,3.447-2.368,5.604c0,2.313,0.771,4.238,2.312,5.778
		c1.54,1.54,3.446,2.311,5.72,2.311c2.234,0,4.121-0.771,5.662-2.311c1.579-1.579,2.369-3.486,2.369-5.72
		C498.862,119.109,498.072,117.223,496.493,115.643"/>
	<path clip-path="url(#SVGID_2_)" fill="#bfbfbf" d="M300.106,69.882c-6.972,0-12.5,2.773-16.582,8.32
		c-3.698-5.547-8.725-8.32-15.08-8.32c-2.852,0-5.22,0.482-7.106,1.444c-1.772,0.925-3.91,2.697-6.413,5.316v-5.2h-13v56.275h13
		V98.655c0-5.894,0.837-10.206,2.513-12.942c1.675-2.735,4.342-4.102,8.002-4.102c5.778,0,8.667,5.007,8.667,15.021v31.085h13.058
		V98.655c0-5.97,0.817-10.303,2.455-13c1.638-2.695,4.247-4.044,7.829-4.044c3.082,0,5.296,1.136,6.646,3.409
		c1.309,2.233,1.964,6.047,1.964,11.439v31.258h13.058V92.936C319.115,77.566,312.779,69.882,300.106,69.882"/>
	<path clip-path="url(#SVGID_2_)" fill="#bfbfbf" d="M375.297,78.491c-5.855-5.739-12.98-8.609-21.378-8.609
		c-8.359,0-15.447,2.851-21.262,8.551c-5.817,5.702-8.726,12.616-8.726,20.743c0,8.629,2.851,15.794,8.552,21.493
		c5.699,5.778,12.769,8.667,21.204,8.667c8.513,0,15.695-2.832,21.552-8.493c5.814-5.7,8.724-12.77,8.724-21.204
		C383.963,91.28,381.074,84.231,375.297,78.491 M366.11,112.812c-3.043,3.273-7.107,4.911-12.191,4.911
		c-5.047,0-9.11-1.655-12.191-4.97c-3.005-3.272-4.507-7.722-4.507-13.347c0-5.237,1.54-9.513,4.622-12.826
		c3.082-3.313,7.107-4.969,12.076-4.969c5.046,0,9.109,1.656,12.191,4.969c3.042,3.274,4.563,7.646,4.563,13.115
		C370.674,105.165,369.152,109.538,366.11,112.812"/>
</g>
</svg>
