<?xml version="1.0" encoding="UTF-8"?>
<svg id="Layer_2" data-name="Layer 2" xmlns="http://www.w3.org/2000/svg" viewBox="0 0 38.616 8.5942">
  <defs>
    <style>
      .cls-1 {
        fill: #bfbfbf;
      }
    </style>
  </defs>
  <g id="Layer_1-2" data-name="Layer 1">
    <g>
      <path class="cls-1" d="M3.3145,1.7992c.5217.157.8002.5212.763,1.0166-.0325.4323-.4168.8627-.9355.8656L.0005,3.699l-.0005-3.6949,3.0665.009c.4789.0014.8195.3595.8838.7575.0762.4717-.1341.8769-.6358,1.0285ZM3.0194,1.6434c.3499-.0021.5569-.368.5866-.611.0312-.2556-.1245-.677-.4582-.6797l-2.8191-.0229v1.3298s2.6907-.0162,2.6907-.0162ZM3.1815,3.3479c.4202-.0033.5951-.4301.5514-.7558-.0354-.2635-.2812-.5941-.6374-.5957l-2.7684-.0128.0024,1.387,2.852-.0226Z"/>
      <polygon class="cls-1" points="29.7431 8.5043 29.0298 8.5191 27.331 6.7416 27.3204 8.5155 26.709 8.5162 26.7062 6.0262 27.4258 6.0303 29.1257 7.8127 29.1289 6.0264 29.7414 6.0251 29.7431 8.5043"/>
      <path class="cls-1" d="M21.9198,7.8764c-.2303.3779-.6815.629-1.1201.6314l-1.9197.0106-.0004-2.4959,2.0142.0257c.4215.0054.8096.2846.983.5577.2518.3965.2924.8612.043,1.2705ZM20.803,8.0045c.425-.0459.6644-.4508.6366-.7949-.0253-.3129-.2779-.6794-.6607-.6854l-1.2856-.0201.0002,1.5306c.4259-.0034.8633.018,1.3094-.0302Z"/>
      <path class="cls-1" d="M21.8285,3.6927l-1.1618-1.5096-2.0294.0012-.0036,1.5093-.3275-.0066L18.3084,0l2.9205.0107c.545.002.9551.4376.9882.9464.089.6831-.3745,1.2041-1.11,1.2185l1.1154,1.5087-.3941.0084ZM21.8619,1.053c-.0119-.4174-.2685-.6728-.6759-.7196l-2.5515-.0032.0003,1.5281,2.5032.0003c.455,0,.7371-.3418.7239-.8056Z"/>
      <path class="cls-1" d="M15.5306,3.6927l-1.1618-1.5096-2.0294.0012-.0036,1.5093-.3275-.0066.0023-3.6871,2.9205.0107c.545.002.9551.4376.9882.9464.089.6831-.3745,1.2041-1.11,1.2185l1.1154,1.5087-.3941.0084ZM15.5641,1.053c-.0119-.4174-.2685-.6728-.6759-.7196l-2.5515-.0032.0003,1.5281,2.5032.0003c.455,0,.7371-.3418.7239-.8056Z"/>
      <polygon class="cls-1" points="18.0779 8.5037 17.3574 8.5155 15.6688 6.7444 15.6521 8.5158 15.0439 8.5097 15.0434 6.026 15.7589 6.0256 17.4571 7.8149 17.4651 6.0254 18.076 6.0265 18.0779 8.5037"/>
      <path class="cls-1" d="M13.6432,8.3605c-.6764.331-1.4677.31-2.0954-.0606-.3718-.2195-.5809-.5941-.596-.9823-.0166-.4278.1884-.8162.5741-1.0549.6673-.4129,1.5182-.4168,2.2033-.0341.412.2302.6402.6411.6234,1.0895-.0161.4289-.2647.8248-.7093,1.0424ZM13.2303,8.0004c.3511-.1447.5158-.4665.4976-.776-.0184-.314-.2099-.5751-.5311-.6951-.3794-.1417-.8251-.1367-1.1884.0471-.3113.1575-.462.4655-.4262.7944.0741.6794.9824.9039,1.648.6295Z"/>
      <path class="cls-1" d="M25.3229,8.3605c-.6764.331-1.4677.31-2.0954-.0606-.3718-.2195-.5809-.5941-.596-.9823-.0166-.4278.1884-.8162.5741-1.0549.6673-.4129,1.5182-.4168,2.2033-.0341.412.2302.6402.6411.6234,1.0895-.0161.4289-.2647.8248-.7093,1.0424ZM24.91,8.0004c.3511-.1447.5158-.4665.4976-.776-.0184-.314-.2099-.5751-.5311-.6951-.3794-.1417-.8251-.1367-1.1884.0471-.3113.1575-.462.4655-.4262.7944.0741.6794.9824.9039,1.648.6295Z"/>
      <path class="cls-1" d="M27.5177,2.7439l-2.6297-.0036-.508.9492-.383-.0047L25.9506.0053l.4972.0049,1.9376,3.669-.3874.0029-.4802-.9382ZM27.3348,2.4099l-1.1354-2.1215-1.1396,2.1258,2.275-.0043Z"/>
      <path class="cls-1" d="M9.2146,2.7408h-2.6144s-.5204.9548-.5204.9548l-.372-.0166L7.6528.0156l.4976-.0132,1.9454,3.6817-.3817.004-.4994-.9473ZM9.0381,2.406L7.9082.2847l-1.1425,2.134,2.2725-.0127Z"/>
      <rect class="cls-1" x=".0274" y="7.1207" width="6.8433" height=".3994"/>
      <rect class="cls-1" x="31.7894" y="7.1207" width="6.8266" height=".3994"/>
      <polygon class="cls-1" points="31.3186 3.6802 30.9876 3.6912 30.9882 .331 29.2184 .3318 29.21 .0035 33.0769 .0028 33.0931 .3316 31.3173 .3308 31.3186 3.6802"/>
      <polygon class="cls-1" points="36.8285 3.6784 36.4974 3.6922 36.498 .3312 34.723 .3315 34.7385 .0033 38.5957 .0024 38.5983 .3319 36.827 .3306 36.8285 3.6784"/>
      <polygon class="cls-1" points="10.7822 8.0322 10.7839 8.5174 8.2447 8.5175 8.2447 6.0269 8.8592 6.0272 8.8578 8.0343 10.7822 8.0322"/>
    </g>
  </g>
</svg>