<?xml version="1.0" encoding="UTF-8"?>
<svg id="Layer_2" data-name="Layer 2" xmlns="http://www.w3.org/2000/svg" viewBox="0 0 36.1794 12.2008">
  <defs>
    <style>
      .cls-1 {
        fill: #bfbfbf;
      }
    </style>
  </defs>
  <g id="Layer_1-2" data-name="Layer 1">
    <g id="layer1">
      <g id="g13459">
        <g id="g11578">
          <g id="g11580">
            <g id="g11586">
              <path id="path11588" class="cls-1" d="M12.7056,10.0872v1.3607h-.2588v-.2588h-.0079c-.1452.2001-.4273.2979-.7411.2979-.6429,0-1.1056-.4627-1.1056-1.4547s.4627-1.4547,1.1056-1.4547c.4785,0,.8472.2272,1.0195.8314l-.2979.0587c-.1411-.4511-.3766-.6233-.7057-.6233-.4157,0-.8081.2821-.8081,1.188s.3924,1.188.8081,1.188c.4627,0,.6782-.2821.6782-.6271v-.2393h-.6391v-.2667h.9529Z"/>
            </g>
            <g id="g11590">
              <path id="path11592" class="cls-1" d="M13.1643,9.4088h.2825v.404h.0075c.1569-.2784.3258-.4352.6629-.4352v.2821c-.3529.0079-.5372.2393-.6703.6587v1.1293h-.2825v-2.0389Z"/>
            </g>
            <g id="g11594">
              <path id="path11596" class="cls-1" d="M15.0465,9.6126c-.3375,0-.553.29-.553.8156s.2155.8156.553.8156.553-.29.553-.8156-.2155-.8156-.553-.8156M15.0465,11.4871c-.5567,0-.8351-.4706-.8351-1.059,0-.588.2784-1.0586.8351-1.0586s.8351.4706.8351,1.0586c0,.5884-.2784,1.059-.8351,1.059"/>
            </g>
            <g id="g11598">
              <path id="path11600" class="cls-1" d="M17.4463,11.4477v-.2746h-.0079c-.1606.1806-.3724.3137-.6038.3137-.3021,0-.5884-.1569-.5884-.5959v-1.4822h.2825v1.4742c0,.2705.1294.3608.3333.3608.2118,0,.4548-.1727.5842-.3096v-1.5254h.2825v2.0389h-.2825Z"/>
            </g>
            <g id="g11602">
              <path id="path11604" class="cls-1" d="M18.5757,10.9616c.1531.1685.3449.2821.5135.2821.3296,0,.5767-.2155.5767-.831,0-.5176-.2234-.8002-.5767-.8002-.1802,0-.3133.0786-.5135.2746v1.0744ZM18.2931,12.2008v-2.792h.2825v.2393h.0079c.1057-.1531.3333-.2784.5293-.2784.3608,0,.8351.243.8351,1.0586,0,.7923-.4744,1.059-.8193,1.059-.1922,0-.3803-.0982-.5372-.2276l-.0158-.0079v.9491h-.2825Z"/>
            </g>
          </g>
        </g>
        <g id="g11606">
          <g id="g11608">
            <g id="g11614">
              <path id="path11616" class="cls-1" d="M2.9824,1.3419c.2255-.0491.409-.1872.5218-.3691.1302.0865.2863.1373.4544.1373.2305,0,.4348-.0949.5838-.248.1494.1531.3537.248.5838.248.1685,0,.3241-.0508.4544-.1373.1132.1818.2963.32.5218.3691.1273.0279.2538.0241.372-.0054l-.3216.5093c-.4964-.2068-1.039-.3179-1.6103-.3179-.5709,0-1.1139.1111-1.6103.3179l-.3216-.5093c.1186.0295.2451.0333.372.0054M3.3519.2509c.156-.0341.3104.0649.3441.221.0341.1565-.0649.3104-.2214.3445-.156.0341-.31-.0649-.3441-.2214-.0341-.156.0649-.31.2214-.3441M4.5424.1847c.1602,0,.2896.1294.2896.2896,0,.1594-.1294.2892-.2896.2892-.1598,0-.2892-.1298-.2892-.2892,0-.1602.1294-.2896.2892-.2896M5.3887.4719c.0341-.156.1881-.2551.3445-.221.156.0341.2551.1881.221.3441-.0337.1565-.1881.2555-.3441.2214-.1565-.0341-.2551-.1881-.2214-.3445M6.1552,2.0622c-.0046.0104-.0125.0154-.0183.0179-.0062.0025-.0158.0046-.027-.0004-.4972-.2135-1.0249-.3221-1.5675-.3221s-1.0702.1086-1.567.3221c-.0112.005-.0208.0029-.027.0004-.0058-.0025-.0137-.0075-.0183-.0179-.0083-.0183.0087-.0458.0433-.0624l.0196-.0083c.4877-.2026,1.0095-.3054,1.5496-.3054.5405,0,1.0619.1028,1.5496.3054l.0196.0083c.0345.0166.0516.0441.0437.0624M2.7902,1.9607c-.0254.0491-.0291.109-.0058.1639.042.0978.1552.1423.2534.1003.4619-.1981.9704-.3092,1.5046-.3092.5347,0,1.0432.1111,1.505.3092.0978.042.211-.0025.253-.1003.0237-.0549.02-.1148-.0054-.1639l.6229-.9812c.0928-.1735-.0499-.3042-.1614-.248-.1115.0558-.2151.1203-.2151.1203-.1332-.0703-.2709-.1336-.4115-.1906.0025-.01.0029-.0166.005-.0266.0558-.2555-.1069-.5085-.3624-.5642-.1236-.027-.2505-.0037-.357.0645-.099.0637-.171.1573-.2018.2705-.0653-.0104-.1361-.0187-.2022-.0258-.0179-.092-.0662-.1731-.1336-.2405-.0895-.0895-.2089-.139-.3354-.139s-.2455.0495-.335.139c-.0678.0674-.1157.1485-.1336.2405-.0666.0071-.1369.0154-.2022.0258-.0312-.1132-.1028-.2068-.2018-.2705-.1069-.0682-.2334-.0915-.357-.0645-.2555.0558-.4182.3087-.3624.5642.0021.01.0021.0166.005.0266-.1406.057-.2784.1203-.4115.1906,0,0-.1036-.0645-.2151-.1203-.1115-.0562-.2542.0745-.1614.248l.6229.9812Z"/>
            </g>
            <g id="g11618">
              <path id="path11620" class="cls-1" d="M8.6865,5.903c-.0545,0-.0986-.0441-.0986-.099,0-.0541.0441-.0986.0986-.0986s.0986.0445.0986.0986c0,.0549-.0441.099-.0986.099M8.4681,6.1622c-.1069,0-.2001-.0841-.1419-.1069.0587-.0233.1323-.0978.1323-.0978.042.0374.2189.0791.2189.0791,0,0-.1024.1257-.2093.1257M8.3154,5.66c.0362-.0774.1993-.0279.1714.0046-.0283.0325-.0512.1627-.0512.1627,0,0-.191-.0183-.1203-.1673M8.0753,3.976s-.0075-.0558.0112-.0599c.0187-.005.037.0391.037.0391.0204.0483-.01.1577-.082.2334l-.0154.0158c-.0903.094-.1731.206-.2734.3025-.0433.0416-.0749.0025-.0404-.0337.0841-.0886.1685-.1935.2755-.3054l.0154-.0158c.0632-.0662.0811-.1548.072-.176M7.9629,5.149c.0508-.0716-.0266-.1323-.0949-.052-.414.4885-.1115,1.0232-.1115,1.0232,0,0-.3208-.1298-.3208-.5855,0-.456.5488-1.019.739-1.2192.191-.1997.2376-.5904-.1947-.5904-.4327,0-.8359.4885-.8359.4885-.087-.1019-.2713.1019-.2713.1019,0,0-.0187-.0836.0512-.367.0699-.2838.2185-.3258.2185-.3258,0,0-.0495.1756-.0187.2746.0216.0687.0786.0279.0745-.0374-.0233-.372.2842-.3162.2842-.3162,0,0-.149.1444-.0886.2093s.2788-.1581.7024-.1581c.3578,0,.8043.1581.8043.6279s-.5305.9113-.7577,1.1256c-.4049.3816.062.8938.062.8938-.3087,0-.6387-.5309-.2418-1.0931M8.0262,7.2507s-.0137.1577-.1535.1577c-.1394,0-.2185-.1111-.2185-.1111,0,0-.0562.0882,0,.1719.0553.0836.1698.2892.0799.3375-.0895.0487-.1498-.0724-.2101-.342-.0608-.2696-.1211-.6-.186-.6s-.0374.4698.1069.8418c.144.372.2322.5863.5397.8605.3067.2746.4927.5022.4927.7997,0,.2979-.1394.3491-.1394.4748,0,.1252.037.1673-.0279.1997-.0653.0325-.0978-.0092-.1302-.0882-.0329-.0791-.1282-.0853-.1689-.0146-.0404.0703-.0008.1427.0899.1681.1161.0325.0741.1394.0741.1394,0,0-.2276-.1581-.2463-.1906-.0187-.0325.0258-.5817.0316-.64.0058-.0578.0474-.0903.0986-.025.0516.0649.3162.1968.3162-.0886,0-.2651-.5197-.6341-.558-.6649-.0745-.0608-.0745-.1631-.1348-.2372-.0603-.0745-.2393-.2805-.2638-.3333-.0246-.0533-.1082-.0341-.0849.0262.0229.0603,0,.0978-.042.0466s-.1232-.1061-.1864-.0233c-.0628.0824-.1452.1506-.1631.0753-.0179-.0753-.032-.1082-.0458-.1406-.0141-.0325.0416-.0836.1207-.1531.0795-.0699.1427-.161.1427-.2946s-.0632-.1477-.0632-.4407.1673-.781.4228-.781c.2563,0,.1723.3953.1723.5859s.1302.4415.335.2838M7.9467,10.4035c-.4631.8276-1.3515,1.3844-2.3676,1.3844-.2218,0-.4377-.025-.6437-.0766-.1094-.0275-.0628-.0566-.0208-.0932.042-.0374.0978-.1956.1257-.3071.0279-.1119.0462-.1673.1157-.1544.1369.0266.278.0424.4232.0424.8197,0,1.5209-.4694,1.8858-1.143.0637-.1173.1103-.057.1614-.015.0508.042.1997.1906.2742.2189.0745.0279.0745.0928.0462.1436M7.826,11.3343c-.0836.0882-.223.0416-.223.0416,0,0,.0137-.1581.0978-.2185.109-.0791.2301.0662.1252.1768M7.3937,11.7621c-.0978-.1257.1581-.1535.1581-.1535.0791.1581-.0603.2792-.1581.1535M4.7219,11.4679c-.0578-.0133-.1169-.0275-.1793-.0275s-.1215.0141-.1793.0275c-.0616.0137-.1061-.0578-.1136-.1336-.0075-.0761-.0541-.1598-.1019-.2609-.0474-.1007-.0766-.1719.0046-.2014.1215-.0445.2538-.0628.3903-.0628s.2688.0183.3903.0628c.0807.0295.052.1007.0046.2014-.0479.1011-.0945.1847-.1019.2609-.0079.0757-.052.1473-.1136.1336M4.1498,11.7113c-.206.0516-.4219.0766-.6437.0766-1.0161,0-1.9049-.5567-2.368-1.3844-.0279-.0508-.0279-.1157.0466-.1436.0741-.0283.223-.1768.2742-.2189.0512-.042.0978-.1024.161.015.3653.6737,1.0665,1.143,1.8862,1.143.1448,0,.2863-.0158.4236-.0424.0687-.0129.0874.0424.1153.1544.0279.1115.0836.2696.1252.3071.042.0366.0886.0657-.0204.0932M1.6915,11.7621c-.0978.1257-.2372.0046-.1581-.1535,0,0,.2559.0279.1581.1535M1.2587,11.3343c-.1044-.1107.0162-.2559.1257-.1768.0836.0603.0978.2185.0978.2185,0,0-.1394.0466-.2234-.0416M.91,10.2458s-.042-.1069.0745-.1394c.0907-.0254.1302-.0978.0895-.1681-.0404-.0707-.1361-.0645-.1685.0146-.0325.0791-.0649.1207-.1302.0882s-.0279-.0745-.0279-.1997c0-.1257-.1394-.1768-.1394-.4748,0-.2975.186-.5251.4927-.7997.3071-.2742.3957-.4885.5397-.8605.1444-.372.1723-.8418.1069-.8418-.0649,0-.1252.3304-.186.6-.0603.2696-.1211.3907-.2105.342-.0895-.0483.0246-.2538.0803-.3375.0558-.0836,0-.1719,0-.1719,0,0-.0791.1111-.2185.1111-.1398,0-.1535-.1577-.1535-.1577.2047.1577.335-.0932.335-.2838s-.0836-.5859.1719-.5859c.2559,0,.4232.4881.4232.781s-.0632.3071-.0632.4407.0632.2247.1423.2946c.0791.0695.1348.1207.1211.1531-.0141.0325-.0279.0653-.0462.1406-.0179.0753-.1003.0071-.1631-.0753-.0628-.0828-.144-.0279-.186.0233s-.0653.0137-.042-.0466-.0603-.0795-.0845-.0262c-.025.0528-.2039.2588-.2642.3333-.0603.0741-.0603.1764-.1348.2372-.0383.0308-.5584.3999-.5584.6649,0,.2854.2655.1535.3162.0886.0512-.0653.0932-.0329.099.025.0054.0583.0499.6075.0316.64-.0187.0325-.2467.1906-.2467.1906M1.0819,4.152l.015.0158c.1074.1119.1918.2168.2759.3054.0345.0362.0025.0753-.0404.0337-.1003-.0965-.1831-.2085-.2734-.3025l-.0154-.0158c-.072-.0757-.1028-.1852-.0824-.2334,0,0,.0187-.0441.0374-.0391.0183.0042.0112.0599.0112.0599-.0092.0212.0087.1099.072.176M1.1222,5.149c.3974.5622.067,1.0931-.2418,1.0931,0,0,.4669-.5122.0624-.8938-.2276-.2143-.7586-.6558-.7586-1.1256s.4469-.6279.8047-.6279c.4232,0,.6416.223.7024.1581.0603-.0649-.0886-.2093-.0886-.2093,0,0,.3071-.0558.2842.3162-.0042.0653.0524.1061.0741.0374.0312-.099-.0187-.2746-.0187-.2746,0,0,.149.042.2189.3258.0699.2834.0512.367.0512.367,0,0-.1847-.2039-.2713-.1019,0,0-.4032-.4885-.8355-.4885-.4327,0-.3861.3907-.1956.5904.1906.2001.7398.7631.7398,1.2192,0,.4556-.3212.5855-.3212.5855,0,0,.3021-.5347-.1115-1.0232-.0682-.0803-.1456-.0196-.0949.052M.7927,2.3915c.0662-.1469.1939-.0745.1939-.0745,0,0-.0162-.1161.077-.1594.0932-.0433.1856.0483.2168.0304s.0083-.156.087-.1914c.1244-.0558.1057.186.1552.161.0495-.0246,0-.2168.0682-.285.0682-.0682.1573-.1186.1902-.0221.0329.0965.0129.2938.1223.2938.109,0,.1835-.0857.2085-.0424.0246.0433-.1606.0928-.161.1831-.0004.0899-.0994.0524-.1552.0587-.0562.0062-.2671.0374-.2671.2979,0,.31.372.2934.372.2934l.1556.2268.037.3416-.3412-.0994s-.099-.0928-.2293-.3965c-.1302-.3042-.087-.4769-.087-.5859,0-.1086-.077-.0986-.1003-.0262-.0237.0724-.0112.1656-.0483.1843-.0374.0183-.0816-.1294-.139-.0828-.1777.1448.4178.9508.4178.9508-.1673-.062-.5014-.3275-.5014-.3275,0,0-.2925.0795-.2676-.1498.0246-.2297.1952-.052.2355-.2047.0499-.186-.3063-.2272-.2397-.3741M2.3194,2.9757c.0454,0,.0824.0366.0824.082s-.037.082-.0824.082c-.0266,0-.0499-.0125-.0649-.0325-.0275-.0179-.0508.0429-.0333.1003l.0466.1257c.0974.2613.0999.449.0861.5501-.005.0374-.0553.0254-.0516-.0112.0108-.0957.0087-.2721-.0841-.5205l-.0466-.1252c-.0287-.0878-.0175-.2505.1477-.2505M2.3968,4.4595l.0395-.2567c.0533.0166.092.0666.092.1252,0,.0728-.0587.1315-.1315.1315M6.6884,4.4595c-.0728,0-.1319-.0587-.1319-.1315,0-.0587.0387-.1086.0924-.1252l.0395.2567ZM2.5782,3.1388c.2247.119.8297.0237,1.0219-.082.1918-.1053.5954-.1373.5954-.1373.0112.0728.0454.1402.0986.1935.0666.0662.1548.1028.2484.1028s.1818-.0366.2484-.1028c.0533-.0533.087-.1207.0986-.1935,0,0,.4032.032.5954.1373.1922.1057.7973.201,1.0219.082l.1868.1485c-.1731.4644-.0678.7311-.0678.7311-.0608.0121-.1165.0416-.161.0861-.0599.0599-.0932.139-.0932.2234,0,.1748.1423.3162.3167.3162,0,0,.2168.4652.2168,1.2774,0,1.3274-.563,2.5049-.5946,2.5674-.0316.0624-.2293.057-.1802-.1015.0495-.1585.0121-.2085-.1681-.1648-.1793.0437-.8181.2355-1.178,1.0977-.0362.087-.1485.1361-.2418-.186-.0932.3221-.2056.273-.2418.186-.3599-.8622-.9986-1.054-1.1784-1.0977s-.2168.0062-.1677.1648-.1485.1639-.1806.1015c-.0316-.0624-.5942-1.24-.5942-2.5674,0-.8122.2168-1.2774.2168-1.2774.1743,0,.3162-.1415.3162-.3162,0-.0845-.0329-.1635-.0924-.2234-.0449-.0445-.1011-.0741-.1619-.0861,0,0,.1057-.2667-.067-.7311l.1864-.1485ZM2.7904,2.8242c.1057,0,.0716.1806-.0012.1806-.0533,0-.0965-.0141-.1244-.0291l-.1069-.0566s.1273-.0949.2326-.0949M2.9077,2.5321c.0778-.0366.1669-.094.1789-.0562.0125.0374-.0366.0387-.0329.1003.0025.0391-.0591.0899-.1228.1236-.0578.0304-.0674-.1469-.0233-.1677M3.3542,2.3415c.0832-.0212.1431-.0608.1506-.0216.0075.0387-.0416.0337-.0454.0953-.005.0757-.2588.1527-.2588.1527.0312-.0849.0703-.2051.1535-.2264M3.7865,2.2196c.0857-.0104.1494-.042.1519-.0025.0029.0395-.0449.0283-.0566.089-.0141.0745-.2759.119-.2759.119.0416-.0803.0953-.1947.1806-.2056M2.9851,2.8284s.59-.3683,1.1164-.3541c0,0-.5122.4369-.8014.4893-.1019.0183-.2189.0374-.3266.0433,0,0,.0204-.1007.0117-.1785M4.2309,2.1531c.0861,0,.1535-.0233.151.0162-.0021.0395-.0483.0225-.0674.0816-.0229.072-.2884.0836-.2884.0836.0512-.0745.1186-.1814.2047-.1814M4.5426,2.6981c.0924,0,.1664.0745.1664.1664,0,.0924-.0741.1669-.1664.1669-.092,0-.1664-.0745-.1664-.1669,0-.092.0745-.1664.1664-.1664M4.5426,2.2009c.0137,0,.0836.0591.0836.0907,0,.015-.057.0046-.0836.0046s-.0836.0104-.0836-.0046c0-.0316.0699-.0907.0836-.0907M4.8542,2.1531c.0857,0,.1535.1069.2047.1814,0,0-.2651-.0117-.2884-.0836-.0191-.0591-.0649-.042-.0674-.0816s.0649-.0162.151-.0162M5.2986,2.2196c.0853.0108.1386.1252.1802.2056,0,0-.2617-.0445-.2755-.119-.0117-.0608-.0595-.0495-.057-.089.0025-.0395.0666-.0079.1523.0025M5.5803,2.3199c.0075-.0391.067.0004.1506.0216.0832.0212.1223.1415.1535.2264,0,0-.2542-.077-.2588-.1527-.0037-.0616-.0528-.0566-.0454-.0953M6.1117,3.0069c-.1082-.0058-.2247-.025-.3266-.0433-.2892-.0524-.8018-.4893-.8018-.4893.5264-.0141,1.1168.3541,1.1168.3541-.0087.0778.0117.1785.0117.1785M5.9985,2.4759c.0121-.0379.1011.0196.1789.0562.0441.0208.0345.1981-.0237.1677-.0637-.0337-.1248-.0845-.1228-.1236.0042-.0616-.0449-.0628-.0325-.1003M6.2944,2.8242c.1053,0,.2326.0949.2326.0949l-.1065.0566c-.0283.015-.0712.0291-.1244.0291-.0728,0-.1069-.1806-.0017-.1806M6.4637,8.9155c-.042-.0558-.0745-.1161.0183-.1531.0445-.0179.0512.0416.0512.1344,0,.0932.0416.1257.0882.1535.0466.0283.0374.0653-.0374.0978-.0741.0329-.1019.0187-.0974-.0512.0046-.0695.0187-.1257-.0229-.1814M5.4122,9.3712c0,.0437-.0354.0791-.0791.0791-.0433,0-.0791-.0354-.0791-.0791,0-.0433.0358-.0786.0791-.0786.0437,0,.0791.0354.0791.0786M5.9657,8.8086s-.0928.1302-.1394.1723c0,0-.0603-.0141-.1302-.0329-.0699-.0183-.1723,0-.1723,0,.1631-.181.4419-.1394.4419-.1394M6.1799,8.8922c.0882,0,.1577.0836.1577.0836,0,0-.2418.1211-.2979.0878-.0562-.0337-.0645-.0412-.0645-.0412,0,0,.1161-.1302.2047-.1302M5.5516,8.7574c-.2463.1069-.3204.1598-.3204.1598.2505-.3133.5347-.4436.7078-.4968-.0037.092.0333.1752.1019.2289,0,0-.2426.0012-.4893.1082M3.1099,9.0225s-.0083.0075-.0645.0412c-.0566.0333-.2979-.0878-.2979-.0878,0,0,.0695-.0836.1581-.0836.0882,0,.2043.1302.2043.1302M3.561,8.948s-.1019-.0183-.1719,0c-.0699.0187-.1302.0329-.1302.0329-.0466-.042-.1394-.1723-.1394-.1723,0,0,.2788-.0416.4415.1394M3.8306,9.3712c0,.0437-.0354.0791-.0786.0791-.0437,0-.0791-.0354-.0791-.0791,0-.0433.0354-.0786.0791-.0786.0433,0,.0786.0354.0786.0786M3.5331,8.7574c-.2463-.1069-.4893-.1082-.4893-.1082.0691-.0537.1061-.1369.1024-.2289.1727.0533.4573.1835.7074.4968,0,0-.0737-.0528-.3204-.1598M2.5986,9.097c.0046.0699-.0237.0841-.0978.0512-.0745-.0325-.0836-.0695-.037-.0978.0462-.0279.0882-.0603.0882-.1535,0-.0928.0067-.1523.0512-.1344.0928.037.0603.0974.0183.1531-.0416.0558-.0275.1119-.0229.1814M2.0218,4.395c.0616-.0595.1252.0229.1011.0657-.0241.0424-.0965.1157-.1107.2085,0,0-.1024-.1673.0096-.2742M2.1342,7.7621c-.0337-.0466-.0945-.0795-.0678-.1735.0133.0067.0067-.02.0266-.0137.0071.0674.0408.1273.0412.1872M1.9952,5.9217c0-.8434.2251-1.3349.2343-1.3557.0146-.0391.0712-.0241.0479.0225-.0096.02-.2293.5014-.2293,1.3332,0,1.203.4332,2.2694.5734,2.5515.0133.027-.0387.0437-.0466.0246-.1228-.2909-.5796-1.3669-.5796-2.5761M2.118,8.4924c-.0849-.1019.1153-.2767.1872-.1997.0841.0882-.1024.3021-.1872.1997M1.6182,9.325c0-.0379.0158-.0728.0408-.0978l.1515.2251c-.0166.0067-.035.0108-.0537.0108-.0766,0-.1386-.062-.1386-.1381M1.4822,9.4877c.0653.1257.2189.2047.3441.1307.1257-.0745.1656-.1356.2047-.0978.0391.037.0774.0699.1024.1673.0254.097.0574.1544-.0141.2043-.0945.067-.2031-.1161-.2031-.1161-.062.062-.1365.2326-.1365.2326-.0374-.0624-.1169-.2642-.1506-.3079,0,0-.119.0474-.1748.1128-.0558.0649-.1099.1036-.1107.0587-.0021-.1069-.0137-.258-.035-.4748-.0104-.1082-.0745-.1922-.1673-.2193-.0308-.0087-.1282-.0275-.221.0558.042-.0757.1519-.2176.4402-.4357.0112-.0083.0183-.0137.0241-.0183.0553-.0454.1157-.0703.1207-.0129.005.057.0183.2555.0466.2929.0279.037.0137.0558-.042.0974-.0558.042-.0932.2047-.0279.3304M1.9969,10.1172c.0745.0433.1644.0183.2234.0216.0587.0029.0961.0092.0961.0649v.2268c0,.0399-.0437.0279-.0778-.0283-.0341-.0558-.0216-.1302-.0216-.1302-.1394-.0121-.2201-.1548-.2201-.1548M4.9961,10.6985c-.1344-.0499-.2871-.0741-.4536-.0741s-.3192.0241-.4536.0741c-.1327.0495-.2451.1107-.2164.1565.0466.0745.0216.1207.0216.1207-.1332.0254-.2638.0387-.3882.0387-.4286,0-.8384-.1448-1.173-.4003,0,0,.2884-.0657.2884-.5913,0-.2651-.0229-.4045-.0229-.4045.7115,0,.89-.2472.89-.2472,0,.0707.027.1369.077.1868.0495.0495.1161.077.1864.077.1452,0,.2634-.1182.2634-.2638,0,0,.0666.0608.0865.1352.0233.0857-.0308.0932-.1053.1485-.1548.1161.0865.4069.2605.2792.0932-.0678.2854-.2105.2854-.2105,0,0,.1922.1427.285.2105.1739.1277.4157-.1631.2605-.2792-.0745-.0553-.1286-.0628-.1053-.1485.0204-.0745.087-.1352.087-.1352,0,.1456.1182.2638.2634.2638.0703,0,.1365-.0275.1864-.077.0495-.0499.077-.1161.077-.1868,0,0,.1785.2472.89.2472,0,0-.0229.1394-.0229.4045,0,.5255.2879.5913.2879.5913-.3341.2555-.744.4003-1.1726.4003-.1248,0-.2551-.0133-.3882-.0387,0,0-.025-.0462.0212-.1207.0291-.0458-.0836-.1069-.216-.1565M6.9672,8.4924c-.0853.1024-.2713-.1115-.1877-.1997.0728-.077.2725.0978.1877.1997M6.8461,10.4023c-.0341.0562-.0774.0682-.0774.0283v-.2268c0-.0558.037-.062.0961-.0649.0591-.0033.149.0216.2234-.0216,0,0-.0807.1427-.2205.1548,0,0,.0125.0745-.0216.1302M7.2747,9.4523l.1515-.2251c.025.025.0404.0599.0404.0978,0,.0761-.0616.1381-.1381.1381-.0187,0-.037-.0042-.0537-.0108M7.603,9.4877c.0649-.1257.0279-.2884-.0279-.3304-.0562-.0416-.0699-.0603-.042-.0974.0279-.0374.0416-.2359.0466-.2929.0046-.0574.0649-.0325.1211.0129.005.0046.0121.01.0237.0183.2884.218.3982.3599.4402.4357-.0932-.0832-.1906-.0645-.221-.0558-.0928.027-.1569.1111-.1673.2193-.0212.2168-.0329.3678-.035.4748-.0008.0449-.0549.0062-.1107-.0587-.0558-.0653-.1748-.1128-.1748-.1128-.0341.0437-.1136.2455-.151.3079,0,0-.0745-.1706-.1361-.2326,0,0-.1086.1831-.2035.1161-.0712-.0499-.0387-.1074-.0137-.2043.0254-.0974.0632-.1302.1024-.1673.0391-.0379.0791.0233.2047.0978.1252.0741.2788-.005.3441-.1307M6.951,7.7621c.0004-.0599.0341-.1198.0412-.1872.02-.0062.0133.0204.0266.0137.0262.094-.0341.1269-.0678.1735M7.0633,4.395c.1115.1069.0092.2742.0092.2742-.0137-.0928-.0865-.166-.1103-.2085-.0246-.0429.0395-.1252.1011-.0657M7.09,5.9217c0,1.2092-.4569,2.2852-.5796,2.5761-.0079.0191-.0603.0025-.0466-.0246.1398-.2821.5734-1.3486.5734-2.5515,0-.8318-.2197-1.3132-.2297-1.3332-.0229-.0466.0337-.0616.0479-.0225.0096.0208.2347.5122.2347,1.3557M6.7658,2.9757c.1648,0,.1768.1627.1473.2505l-.0466.1252c-.0924.2484-.0945.4248-.0836.5205.0037.0366-.047.0487-.0516.0112-.0137-.1011-.0112-.2888.0861-.5501l.0466-.1257c.0179-.0574-.0062-.1182-.0329-.1003-.0154.02-.0387.0325-.0653.0325-.0458,0-.0824-.0366-.0824-.082s.0366-.082.0824-.082M6.9735,2.1019c.025-.0433.099.0424.2085.0424s.0895-.1972.1223-.2938.1219-.0462.1902.0221c.0682.0682.0187.2605.0682.285.0495.025.0308-.2168.1548-.161.0791.0354.0558.1735.0874.1914.0308.0179.1236-.0737.2168-.0304.0932.0433.077.1594.077.1594,0,0,.1277-.0724.1939.0745.0662.1469-.2896.1881-.2401.3741.0408.1527.211-.025.2355.2047.025.2293-.2676.1498-.2676.1498,0,0-.3337.2655-.5014.3275,0,0,.5959-.806.4182-.9508-.0574-.0466-.1015.1011-.139.0828-.037-.0187-.025-.1119-.0483-.1843-.0237-.0724-.1003-.0824-.1003.0262,0,.109.0433.2817-.087.5859-.1302.3038-.2293.3965-.2293.3965l-.3416.0994.0379-.3416.1548-.2268s.372.0166.372-.2934c0-.2605-.211-.2917-.2667-.2979-.0558-.0062-.1548.0312-.1552-.0587-.0004-.0903-.1856-.1398-.161-.1831M.6495,5.8272s-.0233-.1302-.0512-.1627.1348-.082.1719-.0046c.0703.149-.1207.1673-.1207.1673M.6171,6.1622c-.1069,0-.2093-.1257-.2093-.1257,0,0,.1764-.0416.2185-.0791,0,0,.0741.0745.1323.0978.0587.0229-.0345.1069-.1415.1069M.2996,5.8039c0-.0541.0445-.0986.099-.0986s.0986.0445.0986.0986c0,.0549-.0441.099-.0986.099s-.099-.0441-.099-.099M8.5796,5.4228c-.3042,0-.3782.2821-.3695.3691.0087.0874.0037.1298-.0183.0737-.0799-.2056.0083-.3179.077-.3828l.0682-.0632c.2796-.2576.7482-.6891.7482-1.1967,0-.7257-.7893-.9483-.7893-.9483.0225-.0108.0528-.0187.0732-.0362.0458-.0395.1198-.1286.1028-.2879-.0137-.1273-.0653-.2143-.1527-.2596.0836-.0612.2264-.1868.1415-.3749-.0533-.1186-.1361-.1664-.196-.1864-.0079-.0025-.0154-.0046-.0229-.0067-.03-.0541-.0766-.1015-.1423-.1323-.0616-.0287-.1203-.0329-.171-.0266-.0246-.052-.0653-.104-.1352-.1356-.0399-.0179-.0816-.0258-.1219-.0237-.0121-.0221-.027-.0433-.0462-.0624-.1319-.1319-.2443-.1398-.315-.1232-.0841.0191-.0886.0179-.0886.0179,0,0-.3162-.1581-.6416.149-.3258.3067-.253.6612-.253.6612-.5305-.2879-1.1385-.4519-1.7842-.4519s-1.2537.1639-1.7842.4519c0,0,.0728-.3545-.253-.6612-.3254-.3071-.642-.149-.642-.149,0,0-.0042.0012-.0886-.0179-.0707-.0166-.1827-.0087-.3146.1232-.0191.0191-.0341.0404-.0466.0624-.0399-.0021-.0816.0058-.1219.0237-.0699.0316-.1103.0836-.1348.1356-.0512-.0062-.1094-.0021-.1714.0266-.0653.0308-.1119.0782-.1419.1323-.0075.0021-.0154.0042-.0229.0067-.0599.02-.1427.0678-.196.1864-.0849.1881.0578.3137.1415.3749-.0878.0454-.139.1323-.1527.2596-.0171.1594.057.2484.1028.2879.0204.0175.0503.0254.0732.0362,0,0-.7893.2226-.7893.9483,0,.5076.4681.9391.7477,1.1967l.0682.0632c.0691.0649.1573.1773.0774.3828-.0221.0562-.027.0137-.0183-.0737.0087-.087-.0653-.3691-.3695-.3691-.5954,0-.4527.9766.2975.9766.2792,0,.5072-.0974.5072-.0974-.134.1436-.119.372-.1065.5559.0029.0412.0054.0803.0054.109,0,.0587.0079.1257-.0358.1386q-.0008-.0004-.0017-.0008c-.1269.0204-.1315-.2031-.1315-.2031-.1115.0466-.1814.228-.1652.3653.0129.1481.1153.2975.2871.3225,0,0-.2538.1556-.1856.3978.0682.2418.0999.3479.0999.3479-.0295.0304-.0624.0616-.0986.0945-.3329.2971-.5547.5709-.5547.9371,0,.2297.0699.352.1161.4327.0087.0154.0204.0362.0233.0445,0,.0275-.0029.0503-.0054.0724-.0067.0574-.025.2097.1352.29l.0953.0012c-.0291.1244-.0079.3591.0337.4194.042.0608.2018-.0545.2018-.0545.0657.1094.1386.2139.2176.3129l-.1336.1627c-.1044.1186-.0965.2925.0175.4128.0649.0687.1456.1003.2247.1094-.0628.1694.0042.32.1111.3874.1236.0778.2784.0441.3766-.0824l.2022-.3c.4373.2555.9421.3974,1.4668.3974.6691,0,1.0007-.1444,1.0007-.1444.0171-.0429-.1007-.181-.1007-.181.0487-.0112.0957-.0221.1365-.0221.0404,0,.0874.0108.1365.0221,0,0-.1178.1381-.1011.181,0,0,.332.1444,1.0011.1444.5247,0,1.0294-.1419,1.4668-.3974l.2018.3c.0986.1265.2534.1602.377.0824.1069-.0674.1735-.218.1111-.3874.0791-.0092.1598-.0408.2243-.1094.1144-.1203.1219-.2942.0179-.4128l-.1336-.1627c.0791-.099.1519-.2035.2176-.3129,0,0,.1594.1153.2014.0545.0416-.0603.0632-.295.0341-.4194l.0949-.0012c.1606-.0803.1423-.2326.1356-.29-.0029-.0221-.0054-.0449-.0054-.0724.0029-.0083.0146-.0291.0233-.0445.0462-.0807.1157-.2031.1157-.4327,0-.3662-.2214-.64-.5542-.9371-.0362-.0329-.0687-.0641-.099-.0945,0,0,.032-.1061.1003-.3479.0678-.2422-.1856-.3978-.1856-.3978.1719-.025.2738-.1743.2871-.3225.0162-.1373-.0537-.3187-.1652-.3653,0,0-.0046.2234-.1315.2031q-.0008.0004-.0017.0008c-.0437-.0129-.0358-.0799-.0358-.1386,0-.0287.0025-.0678.005-.109.0129-.1839.0283-.4124-.1065-.5559,0,0,.2284.0974.5076.0974.7502,0,.893-.9766.2975-.9766"/>
            </g>
          </g>
        </g>
        <g id="g11622">
          <g id="g11624">
            <g id="g11630">
              <path id="path11632" class="cls-1" d="M1.5332,10.451c.0054-.0266-.0012-.0583-.0087-.0824l-.0108-.0399c-.0079-.0291-.0166-.0653.02-.0878.0329-.0204.0674-.0012.0824.0233.0437.0703-.03.1115-.0158.1348.0067.0108.0187.0104.0308.0029.0129-.0079.0337-.0208.0437-.0312.0058-.0062.0071-.0133.0075-.0208-.0004-.0387-.0129-.0795-.0329-.1111-.0187-.0304-.0458-.0578-.082-.0691-.0366-.0112-.0811-.0062-.1173.0162-.0333.0204-.0528.0533-.0574.0878-.0029.0275.0062.0624.0154.0874.0058.0175.0154.0474.0158.0662.0008.0187-.0083.035-.0258.0462-.0404.025-.0816,0-.0999-.0295-.0121-.0191-.0183-.0429-.0162-.0662.0025-.0212.0112-.0354.0216-.0541.0071-.0129.0108-.0241.0037-.0358-.0075-.0125-.0266-.0125-.0408-.0042-.0304.0191-.0391.0657-.0379.0949.0021.0337.0146.0657.032.094.0212.035.0516.0616.0936.0745.0391.0117.0845.0058.1228-.0183.0295-.0183.0495-.0466.0562-.0778"/>
            </g>
            <g id="g11634">
              <path id="path11636" class="cls-1" d="M1.8924,10.6721c.0129-.0112.0179-.0087.0312-.0042.0075.0029.015.005.0229-.0025.0146-.0125.0037-.0258-.0046-.0354l-.0291-.0333c-.0083-.0096-.02-.0221-.0341-.0096-.0083.0071-.0075.0141-.0058.0221.0025.0141.0046.0191-.0083.0304l-.1398.1207c-.0241.0212-.0558.0491-.0861.0578-.0325.0092-.0657-.0054-.0841-.0262-.0204-.0237-.0291-.0562-.0117-.0911.0141-.0291.0424-.0545.0666-.0753l.1302-.1128c.02-.0146.0212-.0187.0408-.0108.0071.0037.0137.0042.0216-.0025.0133-.0117.005-.025-.0029-.0337l-.0637-.0741c-.0075-.0083-.0196-.0158-.0316-.0054-.0083.0071-.0071.0137-.0067.0216l.0012.0067c.0025.0125-.0096.0204-.0187.0283l-.1307.1132c-.0408.0354-.0811.0761-.0882.129-.0054.0449.0191.0911.0429.1186.0287.0329.0728.0637.1236.0587.0495-.0046.0945-.0424.1323-.0753l.1327-.1148Z"/>
            </g>
            <g id="g11638">
              <path id="path11640" class="cls-1" d="M1.992,10.8768c-.0166-.025-.0358-.0566-.0079-.089.0246-.03.0632-.0221.0853-.0037.0637.0537.0058.1157.027.1332.0096.0083.0204.0046.03-.0062.0096-.0117.0254-.0304.0316-.0433.0037-.0079.0029-.015.0008-.0221-.0125-.037-.037-.0716-.0657-.0957-.027-.0229-.0612-.0408-.099-.0399-.0383,0-.0795.0183-.1065.0508-.0254.03-.0341.067-.0275.1015.0054.027.025.0578.0412.0786.0112.0146.0295.0399.0358.0578.0067.0171.0029.0358-.0104.052-.0308.0362-.0774.025-.1044.0025-.0171-.0146-.0304-.0354-.0354-.0583-.0046-.0208-.0004-.0366.0037-.0583.0025-.0141.0033-.0262-.0075-.035-.0112-.0096-.0295-.0037-.0399.0092-.0233.027-.0171.0741-.0071.1015.0125.0316.0345.0583.0595.0795.0312.0266.0687.0429.1123.0416.0412-.0004.082-.0204.1111-.0549.0225-.0262.0325-.0595.0295-.0911-.0033-.0266-.0191-.0549-.0337-.0757l-.0229-.035Z"/>
            </g>
            <g id="g11642">
              <path id="path11644" class="cls-1" d="M2.2935,11.3163c-.0345.0125-.0716.0108-.0986-.0054-.0325-.02-.0528-.0537-.0499-.0978.0029-.0374.0204-.0836.0408-.1169.0225-.037.0512-.0695.0878-.0899.0362-.0191.0737-.0212.1044-.0029.0158.0096.0291.027.0354.0483.0067.0212.0042.037.0004.0595-.0021.0129-.0062.032.0054.0391.0108.0067.0229.0037.0304-.0087.0067-.0112.0266-.0474.03-.0583.0025-.0092-.0004-.0179-.0042-.0258-.0146-.0391-.0462-.0741-.0799-.0945-.094-.057-.2314-.0216-.3004.0924-.0682.1128-.035.2351.057.2909.0295.0179.0666.0283.1028.0262.0229-.0017.0674-.01.0824-.0345.0058-.01.0037-.0221-.0042-.027-.0108-.0067-.0279.0017-.0395.0054"/>
            </g>
            <g id="g11646">
              <path id="path11648" class="cls-1" d="M2.4792,11.4554c-.0075-.0104,0-.0221.005-.0337l.1182-.2588c.005-.0117.0092-.025.0216-.0262l.0067-.0012c.0079-.0012.0146-.0021.0191-.0121.0067-.0146-.0042-.0241-.0146-.0287l-.0874-.0399c-.01-.0046-.0241-.0062-.0308.0083-.0046.01-.0008.0154.0029.0225l.0037.0058c.0075.0104,0,.0221-.005.0333l-.1182.2588c-.005.0117-.0087.025-.0216.0262l-.0067.0008c-.0079.0017-.0146.0025-.0191.0125-.0062.0146.0042.0241.0141.0287l.0878.0395c.01.005.0241.0067.0308-.0079.0046-.01.0012-.0154-.0033-.0225l-.0033-.0054Z"/>
            </g>
            <g id="g11650">
              <path id="path11652" class="cls-1" d="M2.8472,11.3011c-.0221.067-.0903.0712-.139.0637l.0433-.1319c.0037-.0121.0075-.025.0179-.0312.01-.0058.0237-.0029.0337.0004.0399.0133.0599.0503.0441.099M2.9225,11.2196c-.0229-.0266-.0541-.0395-.0849-.0499l-.1485-.0487c-.0108-.0037-.025-.0037-.03.0117-.0033.01.0008.015.0054.0216l.0042.0054c.0087.0096.0025.0216-.0012.0337l-.0886.2705c-.0037.0121-.0062.0254-.0187.0283l-.0067.0017c-.0075.0021-.0137.0037-.0175.0141-.005.0154.0067.0237.0175.027l.0899.0295c.0108.0033.032.0121.0383-.0071.0037-.0108.0012-.0158-.0058-.0225-.0067-.0058-.0129-.0104-.0133-.0216.0004-.0058.0017-.0129.0033-.0196l.0279-.0857c.0441.0121.0932.0221.1398.0117.0454-.0092.0911-.0374.1086-.0911.0137-.0416.005-.0807-.0196-.109"/>
            </g>
            <g id="g11654">
              <path id="path11656" class="cls-1" d="M3.2309,11.2585l-.233-.0408c-.0108-.0017-.025,0-.0275.0158-.0021.0104.0025.015.0083.0212l.005.0042c.01.0083.0054.0212.0033.0337l-.0491.2805c-.0021.0121-.0025.0262-.0146.0308l-.0058.0025c-.0075.0037-.0133.0062-.015.0166-.0033.0158.0096.0225.0204.0241l.2438.0424c.0225.0037.027.0025.0374-.0208.0075-.0141.0179-.0358.0204-.052.0021-.0108-.0054-.0204-.0141-.0221-.0133-.0025-.0279.0133-.0374.0221-.0262.0241-.0462.0229-.0757.0175-.0678-.0129-.0732-.0179-.0628-.0782l.0179-.1015.0749.0133c.0341.0058.0266.0254.0437.0287.0196.0033.0233-.0304.0258-.0462.0025-.0146.0071-.0408-.0104-.0437-.0171-.0029-.015.0196-.0503.0133l-.0753-.0129.0187-.109c.0012-.0079.0075-.0133.0158-.0154.0096-.0025.0316.0008.042.0021.015.0029.0366.0079.0491.0137.0133.0067.02.015.027.0295.005.0104.0092.0196.02.0216.0129.0021.02-.0087.0225-.0225.0021-.0121.0058-.0466.0012-.057-.0046-.0092-.0183-.0104-.0262-.0117"/>
            </g>
            <g id="g11658">
              <path id="path11660" class="cls-1" d="M3.3962,11.4798l.0025-.1148c.0004-.0125.0008-.0304.0087-.0391.0075-.0092.027-.0112.0379-.0108.0395.0004.0724.0225.0716.0745-.0017.0695-.0728.0899-.1207.0903M3.6267,11.677c-.0141-.01-.0171-.0187-.0233-.0366-.0162-.0528-.035-.1044-.067-.1469.0408-.0212.0782-.0578.0795-.1136.0004-.0379-.0175-.0716-.0454-.0886-.0246-.0154-.0566-.0175-.0836-.0179l-.1802-.0033c-.0112-.0004-.025.0037-.025.02-.0004.0104.005.0141.0117.0187l.0054.0042c.0108.0067.0087.0204.0083.0329l-.0062.2838c-.0004.0125.0017.0262-.0096.0325l-.0062.0033c-.0062.005-.0121.0083-.0121.0187-.0004.0162.0133.0208.0241.0208l.097.0021c.0108.0004.0246-.0037.025-.0196.0004-.0108-.005-.0146-.0117-.0191l-.0054-.0037c-.0112-.0071-.0087-.0204-.0083-.0329l.0021-.1061.0503-.0083c.0191.0266.0599.1094.0591.1398-.0004.0166-.0221.0146-.0225.0325-.0004.0204.0179.02.03.0204l.0994.0021c.0092,0,.0262-.0008.0266-.0166,0-.0108-.0054-.0133-.0121-.0183"/>
            </g>
            <g id="g11662">
              <path id="path11664" class="cls-1" d="M3.973,11.5696c-.0129.0017-.0225.0208-.0291.0325-.0179.0308-.0374.035-.0674.0387-.0687.0079-.0753.0046-.0828-.0562l-.0129-.1024.0757-.0092c.0341-.005.0329.0166.0499.0146.02-.0025.0133-.0358.0112-.052-.0017-.015-.005-.0408-.0229-.0383-.0171.0021-.0087.0229-.0441.0279l-.0757.0096-.0137-.1099c-.0012-.0079.0029-.015.01-.0191.0087-.0058.0304-.0092.0412-.0104.015-.0017.037-.0037.0508-.0017.0141.0025.0233.0087.0345.0204.0079.0083.0146.0158.0254.0146.0129-.0012.0166-.0137.0146-.0279-.0012-.0121-.0075-.0462-.0154-.0549-.0071-.0071-.0204-.0046-.0287-.0033l-.2343.0295c-.0108.0017-.0241.0071-.0221.0233.0012.0104.0075.0133.0146.0175l.0058.0025c.0121.0054.0117.0191.0133.0316l.0358.2821c.0017.0125.0054.0258-.005.0337l-.005.0042c-.0058.0054-.0112.01-.0096.0204.0021.0158.0162.0183.027.0171l.2455-.0312c.0225-.0025.0262-.0054.0295-.0312.0029-.0154.0062-.0391.0042-.0553-.0012-.0112-.0117-.0183-.0204-.0171"/>
            </g>
            <g id="g11666">
              <path id="path11668" class="cls-1" d="M5.718,11.2773c-.0071-.0058-.0254-.0046-.0333-.0046l-.2197.0008c-.0112,0-.025.0042-.025.0204,0,.0104.0058.0141.0125.0191l.0054.0033c.0112.0062.0096.0204.0096.0329l.0008.2846c0,.0125.0021.0258-.0092.0325l-.0054.0037c-.0067.0046-.0121.0083-.0121.0191,0,.0158.0137.02.025.02h.0961c.0108,0,.0246-.0046.0246-.0204,0-.0108-.0054-.0146-.0121-.0191l-.0058-.0037c-.0112-.0062-.0092-.02-.0092-.0329l-.0004-.1236h.0737c.0345-.0004.0308.0204.0479.0204.0204,0,.0175-.0341.0175-.0499,0-.015,0-.0408-.0179-.0408-.0171,0-.0112.0216-.0474.0216l-.0737.0004-.0004-.1003c0-.0121-.0012-.0287.0071-.037.0083-.0087.0341-.0087.0441-.0087.0383,0,.0599.0012.0861.0362.0062.0075.0125.0158.0225.0158.0162,0,.0137-.0208.0133-.0333-.0021-.0162-.0021-.047-.0146-.0566"/>
            </g>
            <g id="g11670">
              <path id="path11672" class="cls-1" d="M6.1003,11.6177l-.0058-.0025c-.0121-.0046-.0129-.0183-.015-.0304l-.0508-.2805c-.0021-.0121-.0067-.0254.0033-.0337l.005-.0042c.0054-.0058.0104-.0104.0083-.0208-.0029-.0162-.0171-.0179-.0283-.0158l-.0945.0171c-.0108.0021-.0233.0087-.0204.0246.0017.0104.0079.0129.015.0162l.0062.0029c.0121.0042.0125.0179.0146.0304l.0508.28c.0021.0121.0067.0254-.0029.0341l-.005.0042c-.0058.0058-.0104.0104-.0083.0204.0025.0166.0166.0183.0279.0162l.0945-.0175c.0108-.0017.0237-.0083.0208-.0241-.0021-.0104-.0079-.0129-.0154-.0166"/>
            </g>
            <g id="g11674">
              <path id="path11676" class="cls-1" d="M6.5483,11.1374c-.0021-.0071-.0037-.0137-.0042-.0196-.0008-.0108.0054-.0162.0117-.0221.0067-.0075.0087-.0125.0046-.0229-.0071-.0191-.0279-.0092-.0387-.005l-.0408.0158c-.0108.0042-.0329.0108-.0254.0295.0037.0104.0096.0129.0187.0137.0087.0004.0166,0,.0237.0087.0033.0042.0071.0108.01.0171l.0716.1839-.1044-.0803c-.0404-.0308-.097-.0757-.139-.0999-.0175-.0108-.02-.0087-.0374-.0021l-.0645.025c-.0125.005-.027.0108-.0196.0291.005.0137.015.0129.0254.0129.0258-.0008.0304.0208.0404.0449l.0949.2459c.0025.0067.0042.0137.0046.0191.0004.0112-.0058.0162-.0121.0225-.0067.0071-.0087.0125-.0046.0229.0071.0187.0279.0092.0387.005l.0412-.0162c.0108-.0042.0325-.0104.0254-.0295-.0042-.0108-.0096-.0129-.0187-.0137-.0092,0-.0171,0-.0241-.0087-.0033-.0042-.0067-.0104-.01-.0171l-.0899-.2322.2401.1818c.0129.0104.0445.0374.0566.0441.0108.0062.0175.0037.0279-.0004.0287-.0112.0266-.0204.015-.0508l-.1169-.3017Z"/>
            </g>
            <g id="g11678">
              <path id="path11680" class="cls-1" d="M7.0115,11.2407h-.0062c-.0133.0004-.0187-.0125-.0254-.0229l-.151-.2413c-.0067-.0104-.0158-.0208-.01-.0325l.0033-.0058c.0025-.0075.0054-.0137,0-.0225-.0087-.0137-.0225-.01-.032-.0042l-.0816.0512c-.0092.0058-.0187.0166-.01.03.0058.0096.0125.0096.0204.01h.0062c.0133-.0004.0187.0125.0254.0229l.151.2409c.0067.0108.0158.0212.01.0329l-.0029.0058c-.0029.0075-.0058.0133-.0004.0225.0087.0137.0225.01.032.0042l.0816-.0512c.0092-.0058.0187-.0166.01-.0304-.0058-.0087-.0125-.0087-.0204-.0096"/>
            </g>
            <g id="g11682">
              <path id="path11684" class="cls-1" d="M7.181,10.8741l-.0782-.0845c-.0083-.0092-.0208-.0221-.0212-.0337-.0008-.0121.0117-.027.0191-.0341.0291-.0275.0682-.0341.1036.0037.0474.0508.0108.1153-.0233.1485M7.4839,10.8546c-.0175.0033-.0254-.0012-.0429-.01-.0483-.0262-.0978-.0503-.1498-.0583.0141-.0437.0154-.0961-.0229-.1369-.0254-.0275-.062-.0391-.094-.032-.0283.0062-.0524.0266-.0724.0458l-.1315.1232c-.0079.0075-.0154.0196-.0042.0316.0071.0075.0137.0067.0216.0058l.0067-.0012c.0125-.0029.0204.0083.0287.0175l.1939.2081c.0083.0092.0196.0179.0158.03l-.0021.0067c-.0012.0079-.0029.0141.0046.0225.0104.0112.0237.0054.0312-.0025l.0712-.0657c.0079-.0075.015-.02.0042-.032-.0071-.0079-.0137-.0067-.0216-.0058l-.0067.0012c-.0125.0029-.0204-.0083-.0291-.0175l-.072-.0778.0304-.0408c.032.0058.1194.037.1398.0591.0112.0121-.0058.0258.0062.0387.0137.015.027.0021.0358-.0062l.0724-.0678c.0071-.0067.0187-.0187.0079-.0304-.0075-.0079-.0133-.0058-.0212-.005"/>
            </g>
            <g id="g11686">
              <path id="path11688" class="cls-1" d="M7.7824,10.3778c-.0096-.0062-.0216-.0037-.0266.0037-.0075.0108.0008.0308.0054.0433.0108.0337.0008.0512-.0158.0761-.0395.0566-.0462.0595-.097.025l-.0853-.0578.0433-.0632c.0191-.0283.0341-.0133.0437-.0275.0112-.0171-.0179-.0337-.0316-.0429-.0121-.0083-.0337-.0229-.0437-.0083-.0096.0141.0121.0221-.0083.0516l-.0429.0632-.092-.062c-.0067-.0046-.0087-.0125-.0075-.0204.0017-.01.0137-.0287.0196-.0374.0083-.0125.0221-.0304.0325-.0391.0112-.0096.0221-.0125.0379-.0129.0117,0,.0216,0,.0279-.0092.0075-.0108.0004-.0216-.0108-.0295-.0104-.0071-.0399-.025-.0516-.0246-.0104,0-.0171.0125-.0216.0191l-.1327.1952c-.0062.0096-.0104.0229.0029.032.0087.0062.015.0033.0225.0008l.0062-.0029c.0117-.0054.0216.0042.032.0108l.2355.1598c.0104.0071.0229.0129.0221.0258v.0067c0,.0083,0,.015.0087.0208.0133.0092.0246.0004.0308-.0092l.139-.2047c.0125-.0187.0129-.0233-.0042-.0429-.0096-.0121-.025-.0308-.0383-.0395"/>
            </g>
            <g id="g11690">
              <path id="path11692" class="cls-1" d="M4.5792,11.2363c-.0137.0021-.0233.0225-.03.0354-.0183.0325-.0391.0374-.0712.042-.072.0104-.0791.0071-.0886-.0574l-.0162-.1082.0803-.0121c.0362-.0054.035.0175.0528.0146.0216-.0033.0137-.0387.0108-.0553-.0021-.0158-.0062-.0433-.025-.0404-.0179.0025-.0087.025-.0466.0304l-.0803.0121-.0171-.1161c-.0012-.0083.0029-.0158.0104-.0208.0087-.0058.032-.01.0433-.0117.0158-.0025.0395-.0046.0541-.0029.0154.0021.025.0083.037.0208.0087.0087.0158.0166.0275.015.0137-.0021.0171-.0154.015-.03-.0017-.0129-.0096-.0491-.0179-.0578-.0079-.0079-.0216-.0046-.0304-.0033l-.248.037c-.0121.0021-.0254.0083-.0233.0254.0021.0112.0083.0141.0162.0179l.0062.0029c.0125.0054.0125.0196.0146.0329l.0445.2992c.0021.0129.0067.027-.0042.0358l-.0054.0046c-.0062.0058-.0112.0108-.0096.0221.0025.0166.0175.0191.0291.0175l.2601-.0391c.0241-.0037.0279-.0062.0308-.0337.0021-.0166.0058-.042.0033-.0587-.0021-.0121-.0129-.0196-.0225-.0179"/>
            </g>
            <g id="g11694">
              <path id="path11696" class="cls-1" d="M4.9036,10.9459l-.2692-.0562c-.0067-.0012-.0187-.0046-.0246-.0012-.0096.0058-.02.0366-.0237.0474-.0021.0062-.0054.0125-.0067.0191-.0029.0146.0025.025.015.0279.0241.005.0362-.0462.0961-.0337.0225.005.0183.0154.0141.0379l-.0616.295c-.0029.0133-.0033.0279-.0166.0325l-.0067.0025c-.0079.0037-.0141.0058-.0166.0171-.0037.0166.01.0241.0212.0266l.1003.0208c.0117.0021.0266.0008.03-.0158.0025-.0112-.0025-.0162-.0083-.0225l-.005-.005c-.0104-.0092-.005-.0229-.0025-.0358l.0616-.2954c.0046-.0225.0054-.0337.0279-.0291.0599.0125.0503.0641.0745.0691.0129.0025.0221-.005.025-.0191.0012-.0071.0012-.0141.0017-.0204.0004-.0117.0033-.0441-.0029-.0533-.0037-.005-.0166-.0071-.0229-.0083"/>
            </g>
            <g id="g11698">
              <path id="path11700" class="cls-1" d="M4.0366,6.6437c0,.6878,0,.8359.3974.8359.6046,0,.9783-.2372.9783-.8717,0-.8122-.5934-.9009-1.2749-.9009h-.1007v.9366ZM4.0366,5.4935h.1602c.5214,0,1.0552-.166,1.0552-.7948,0-.5334-.3616-.6104-.848-.6104-.1123,0-.2372.0117-.3674.0237v1.3815ZM3.5027,4.6871c0-.2667,0-.5751-.1302-.7769.5218,0,1.0552-.0591,1.577-.0591.4627,0,.8834.2014.8834.7174s-.409.7648-.8301.9429v.0117c.5518.1244,1.0257.3437,1.0257.9841,0,.9366-.7111,1.2096-1.5175,1.2096-.4032,0-.8006-.0237-1.2038-.0237.1956-.4211.1956-1.0315.1956-1.4884v-1.5175Z"/>
            </g>
            <g id="g11702">
              <path id="path11704" class="cls-1" d="M11.8216,6.1948c0,1.0286,0,1.2504.5942,1.2504.9042,0,1.463-.3549,1.463-1.3036,0-1.2146-.8867-1.3478-1.9066-1.3478h-.1506v1.401ZM11.8216,4.4746h.2393c.7806,0,1.5783-.2484,1.5783-1.1884,0-.7977-.5405-.9133-1.2679-.9133-.1685,0-.3545.0179-.5497.0358v2.0659ZM11.0235,3.2687c0-.399,0-.8601-.1952-1.1618.7802,0,1.5783-.0886,2.3589-.0886.6916,0,1.3211.3017,1.3211,1.0731s-.6121,1.1439-1.2416,1.4098v.0179c.8247.186,1.5342.5143,1.5342,1.4718,0,1.401-1.064,1.8088-2.2698,1.8088-.6029,0-1.1971-.0354-1.8001-.0354.2925-.6296.2925-1.5429.2925-2.2257v-2.2698Z"/>
            </g>
            <g id="g11706">
              <path id="path11708" class="cls-1" d="M16.9002,4.9446c.4344,0,.6653,0,.6653-.337,0-.3279-.2397-.6737-.6741-.6737-.5588,0-.7985.5405-.9046,1.0107h.9133ZM15.9335,5.2105c-.0179.1685-.0354.3104-.0354.4968,0,.8243.3724,1.6136,1.2945,1.6136.4348,0,.8605-.1773,1.0735-.4165v.0974c0,.4698-.7452.9046-1.4014.9046-1.1618,0-1.7114-1.0465-1.7114-2.1196,0-1.1526.6383-2.1192,1.8533-2.1192.8513,0,1.3569.5588,1.3569,1.1351,0,.4078-.2925.4078-.8426.4078h-1.5874Z"/>
            </g>
            <g id="g11710">
              <path id="path11712" class="cls-1" d="M18.9848,5.2283c0-.6296,0-1.2412-.2305-1.4276.3283-.0087.6383-.0441.7448-.0441.1598,0,.062.4431.1598.4431.0441,0,.3366-.5322.8601-.5322.3104,0,.4877.1244.4877.337,0,.1685-.0886.2929-.3104.2929-.1685,0-.3458-.0266-.5588-.0266-.4431,0-.4964.31-.4964.7003v1.8267c0,.3279,0,.7095.1594.9666h-.9753c.1598-.2572.1598-.6387.1598-.9666v-1.5695Z"/>
            </g>
            <g id="g11714">
              <path id="path11716" class="cls-1" d="M26.2464,4.9446c.4344,0,.6649,0,.6649-.337,0-.3279-.2393-.6737-.6737-.6737-.5588,0-.7981.5405-.9046,1.0107h.9133ZM25.2798,5.2105c-.0179.1685-.0354.3104-.0354.4968,0,.8243.3724,1.6136,1.2945,1.6136.4344,0,.8601-.1773,1.0731-.4165v.0974c0,.4698-.7448.9046-1.401.9046-1.1618,0-1.7114-1.0465-1.7114-2.1196,0-1.1526.6383-2.1192,1.8533-2.1192.8509,0,1.3565.5588,1.3565,1.1351,0,.4078-.2925.4078-.8422.4078h-1.5874Z"/>
            </g>
            <g id="g11718">
              <path id="path11720" class="cls-1" d="M28.1312,7.7643c.1598-.2484.1598-.6296.1598-.9579V2.5859c0-.3637,0-.7095-.2309-.8867l.8871-.1419v5.2491c0,.3283,0,.7095.1594.9579h-.9753Z"/>
            </g>
            <g id="g11722">
              <path id="path11724" class="cls-1" d="M31.2414,4.9446c.4344,0,.6649,0,.6649-.337,0-.3279-.2393-.6737-.6737-.6737-.5588,0-.7981.5405-.9046,1.0107h.9133ZM30.2395,5.7073c0,.8243.3724,1.6136,1.2945,1.6136.4344,0,.8601-.1773,1.0731-.4165v.0974c0,.4698-.7452.9046-1.401.9046-1.1618,0-1.7114-1.0465-1.7114-2.1196,0-1.1526.6383-2.1192,1.8533-2.1192.8509,0,1.3565.5588,1.3565,1.1351,0,.4078-.2925.4078-.8426.4078h-1.587"/>
            </g>
            <g id="g11726">
              <path id="path11728" class="cls-1" d="M36.1794,3.8095c-.1598.2838-.2393.4698-.3637.7802l-1.25,3.2011c-.2397.6029-.9932,2.5066-2.398,2.5066-.7735,0-1.5304-.466-1.4589-1.0007,2.1488,1.3357,3.9064-.2551,3.1532-2.492l-.3162-1.071c-.1332-.4519-.461-1.5516-.7627-1.9241.1773-.0179.5497-.0533.6562-.0533.1506,0,.1952.0799.2484.2572l.7627,2.5981c.0441.1419.062.2659.124.2659.0533,0,.0886-.1419.1332-.2659l.4519-1.4098c.0799-.2397.2572-.816.2572-1.0731,0-.1594-.0441-.2305-.0974-.3192h.8601Z"/>
            </g>
            <g id="g11730">
              <path id="path11732" class="cls-1" d="M21.4489,6.3623c0-.4444-.0087-1.0041-.0087-1.6702,0-.64.0087-1.173.0087-1.6082,0-.8085-.0358-1.2795-.2755-1.4393l.9063-.1336v3.8918c.8264-.5775,1.2263-1.1106,1.2263-1.386,0-.089-.0179-.1689-.0712-.2488h.8971l-1.1459,1.2263c-.089.0886-.1956.1952-.3375.3108,1.0927,1.3948,1.5725,2.3102,1.8833,2.4346h-.9237l-1.3061-1.9727c-.0712-.1153-.1423-.1777-.1956-.1777-.0087,0-.0179.0092-.0266.0092v1.0128c0,.6308.0179,1.0041.1864,1.1285h-1.0128c.1689-.1069.1956-.5688.1956-1.3773"/>
            </g>
          </g>
        </g>
      </g>
    </g>
  </g>
</svg>