<?xml version="1.0" encoding="UTF-8"?>
<svg id="Layer_2" data-name="Layer 2" xmlns="http://www.w3.org/2000/svg" viewBox="0 0 31.5227 6.236">
  <defs>
    <style>
      .cls-1 {
        fill: #bfbfbf;
      }
    </style>
  </defs>
  <g id="Layer_1-2" data-name="Layer 1">
    <g id="Page-1">
      <path id="Shape" class="cls-1" d="M4.5732,5.6117l-.0936.6204H0c.1853-.4292.1736-.6712.1736-.9814V.9858C.1736.6854.1853.422,0,.0045h4.3703l.0078.6321c-.0819-.0332-.1483-.0624-.2088-.0897-.1619-.0605-.3668-.1171-.5795-.1151H1.194v2.4388h2.8114l-.1385.48H1.194v2.4407h2.5344c.4273.0078.8526-.2341.8526-.2341l-.0117.0527c0,.002.002.002.0039.002ZM11.3159,6.2321c.0605-.3063.0605-.7394.0117-1.0926l-.398-2.9343-2.1734,4.025h-.4136l-2.2086-4.2064-.4292,3.1802c-.0468.3668-.0605.8311-.0215,1.0282h-.7765c.1502-.318.1873-.4565.2575-.9794L5.8667.0045h.357l2.5773,4.8971L11.3764.0045h.2692l.7258,5.2365c.0722.5209.1268.6712.2712.9911h-1.3267ZM17.8577,6.2321l-1.034-2.2807h-2.0798l-1.0204,2.2807h-.8116c.2575-.32.3453-.4682.5268-.8663L15.8501.0045h.2712l2.3724,5.2112c.2536.5092.3726.6672.7355,1.0165h-1.3716ZM24.3644,6.2321l-1.034-2.2807h-2.0798l-1.0204,2.2807h-.8116c.2575-.32.3453-.4682.5268-.8663L22.3568.0045h.2712l2.3744,5.2112c.2536.5092.3726.6672.7355,1.0165h-1.3735ZM30.2603,6.236c-.6224-.5677-1.4281-1.3208-2.4368-2.5149-.2887-.3375-.4917-.3804-.6224-.3883v1.9179c0,.3083,0,.5521.1756.9814h-1.3696c.1853-.4292.1736-.6712.1736-.9814V.9819c0-.3005.0117-.5638-.1736-.9814h1.3423c.917,0,3.0846-.0819,3.0846,1.7091,0,.9462-.7511,1.4555-1.633,1.5842l-.2614.0254s2.8602,2.7958,2.9831,2.9168h-1.2623ZM28.6391,2.9369l-.002.002c.5775-.2185.7726-.7668.7531-1.2311-.0215-.4468-.2224-1.4184-2.1871-1.3404v2.6553s1.1004.0605,1.4086-.0741c.0176-.0078.0273-.0117.0273-.0117ZM21.4495,3.5163h1.6798l-.8467-1.8593-.8331,1.8593ZM14.9448,3.5163h1.6798l-.8467-1.8593-.8331,1.8593Z"/>
    </g>
  </g>
</svg>