<?xml version="1.0" encoding="UTF-8"?>
<svg id="Layer_1" xmlns="http://www.w3.org/2000/svg" version="1.1" viewBox="0 0 888.6 444" fill="#bfbfbf">
  <!-- Generator: Adobe Illustrator 30.6.0, SVG Export Plug-In . SVG Version: 2.1.4 Build 109)  -->
  <polygon points="571.8 .2 502.7 .2 502.7 102.7 409.2 102.7 409.3 .2 340.2 .2 340.2 268.8 409.3 268.7 409.2 159.5 502.7 159.5 502.7 268.8 571.8 268.7 571.8 .2"/>
  <path d="M185.5,166v-63.3c0,0,83,0,83,0V.2s-102.5,0-102.5,0v83s-63.6,0-63.6,0V.2S0,.2,0,.2v102.5s83,0,83,0v63.3s-83,0-83,0v102.8s102.4,0,102.4,0v-83c0,0,63.6,0,63.6,0v83s102.5-.1,102.5-.1v-102.7s-83,0-83,0ZM83.2,249H19.3v-63.2h63.8v63.2ZM19.4,83.3V19.7s63.8,0,63.8,0v63.6s-63.8,0-63.8,0ZM102.4,166.1v-63.4s63.7,0,63.7,0v63.4s-63.7,0-63.7,0ZM185.3,19.7h63.8v63.6h-63.8V19.7ZM249.2,249h-63.7v-63.2h63.7v63.2Z"/>
  <rect x="716.4" y="0" width="64.9" height="268.8"/>
  <rect x="821.2" y="0" width="65" height="268.7"/>
  <rect x="611.4" y="88" width="65.1" height="180.9"/>
  <circle cx="644.2" cy="34.9" r="34.9"/>
  <path d="M558.5,378v15.8s18,0,18,0v11.5c-8.6,5.4-20.1,6.8-29.1,1.5-8.8-5.1-12.8-14.4-12.2-24.3.5-8.8,5.7-18,14.8-21.9,10.2-4.3,21.3-1.2,29.6,6.7l11.7-13.9c-17-15.9-47.2-15.7-63.8,1.5-8.9,9.2-12.6,21.9-11.2,35,1.8,16.9,12.7,30.3,29.1,34.8,17.1,4.7,35.1.5,48.6-10.9v-36c0,0-35.6,0-35.6,0Z"/>
  <polygon points="325.3 343.4 325.2 375.8 292.3 375.8 292.2 343.4 274 343.4 274 425.1 292.2 425.2 292.3 392.5 325.1 392.5 325.4 425.5 343.5 424.9 343.5 343.3 325.3 343.4"/>
  <path d="M886.2,380.1c-5.2-14.4-19.9-22.1-34.5-17.5-4.3,1.3-7.7,4.6-11.1,7.7l-.3-7.9h-17.8s0,81.6,0,81.6h18s0-26.1,0-26.1c7.4,7.9,16.6,10.2,26.7,7.7,18.4-4.5,25.5-27.2,19-45.5ZM865.6,406.6c-6.5,6.9-16.4,5.6-21.6-1.4-4.8-6.4-5-15.3-.6-22,4.8-7.2,14.1-8.9,21-3.1,7.6,6.4,8.3,19,1.2,26.5Z"/>
  <path d="M130.3,364.3c-10.7-5.8-22.5-3.2-30,6.2l-.2-30.6h-17.7c0,.1,0,85.3,0,85.3h17.7c0,0,.3-37,.3-37,0-6.4,5.9-10.8,11.3-10.6,5.5.2,10.1,4.8,10.2,10.9l.2,36.6h18c0,0-.2-43.1-.2-43.1,0-7-3.7-14.6-9.5-17.8Z"/>
  <path d="M696.3,360.4c-18.5,0-33.5,15-33.5,33.5s15,33.5,33.5,33.5,33.5-15,33.5-33.5-15-33.5-33.5-33.5ZM696.8,411.1c-8.5.2-15.6-6.4-16.6-15.2-1.1-9.7,5.3-18.3,14.6-19,9.5-.7,17.9,6.8,17.7,17.6-.2,9.5-7.3,16.5-15.6,16.6Z"/>
  <path d="M165.2,369.9c-12.3,12.5-13.2,34.2-.9,47,13.5,14.1,37.6,13,50.2-1.8l-10.8-9.7c-7,7.4-16.7,9-24.6,3.8-2.7-1.8-4.5-5.9-5-9h42.9c1-10.8-.7-22.7-9.2-30.9-11.4-11-31.2-10.9-42.6.7ZM173.8,388.8c0-7,6-13.1,12.9-13,6.8,0,12.5,5.9,12.7,13h-25.6Z"/>
  <path d="M785.3,362.5l-.2,36.4c0,6.9-5.4,11.5-11.4,11.3-6.2-.2-10-5-10.2-11.6v-36.1c0,0-18.1,0-18.1,0l.2,43.5c0,5.5,2.7,12.4,6.9,15.7,10.2,8.3,24.5,5.8,32.3-4.1l.6,7.8h17.6c0-.1,0-62.9,0-62.9h-17.7Z"/>
  <polygon points=".5 360.1 25.2 360.3 25.3 425.4 43.5 425 43.5 360.2 68.1 360.2 68.3 343.4 .4 343.5 .5 360.1"/>
  <rect x="403.2" y="339.9" width="18.1" height="85.6"/>
  <rect x="441.3" y="340" width="18.2" height="85.3"/>
  <path d="M632.4,373.5l-.5-11.2-17.8.2v62.7s18,0,18,0l.4-28.7c.2-10.5,9.4-17.2,19.5-16.2v-18.8c-8.3-1-16.1,3.7-19.7,12Z"/>
  <rect x="365.2" y="362.2" width="18.1" height="63.3"/>
  <rect x="364.4" y="339.9" width="19.6" height="15.8"/>
</svg>