<svg xmlns="http://www.w3.org/2000/svg" xmlns:xlink="http://www.w3.org/1999/xlink" viewBox="0 0 220.62 118.47"><defs><style>.cls-1{fill:none;}.cls-2{clip-path:url(#clip-path);}.cls-3{fill:#bfbfbf;}</style><clipPath id="clip-path" transform="translate(0 0)"><rect class="cls-1" width="220.62" height="118.47"/></clipPath></defs><title>logo</title><g id="Layer_2" data-name="Layer 2"><g id="Layer_1-2" data-name="Layer 1"><g class="cls-2"><path class="cls-3" d="M117.66,15s.18-9.46-7.39-14.95c-7.58,5.49-7.4,15-7.4,15-3.46-.68-7.75,2.7-7.75,2.7,14.07.06,15.15,24,15.15,24s1.08-23.92,15.15-24c0,0-4.29-3.38-7.76-2.7" transform="translate(0 0)"/><path class="cls-3" d="M151.41,29.4h0c-7.56-5.5-16.5-2.39-16.5-2.39-.43-3.51-5-6.54-5-6.54,4.3,13.39-18.1,21.84-18.1,21.84s23.07-6.39,27.5,7c0,0,1.88-5.12.15-8.21,0,0,9.06-2.76,11.92-11.66" transform="translate(0 0)"/><path class="cls-3" d="M69.21,29.4h0C76.77,23.9,85.71,27,85.71,27c.43-3.51,5-6.54,5-6.54-4.3,13.39,18.11,21.84,18.11,21.84s-23.08-6.39-27.51,7c0,0-1.87-5.12-.15-8.21,0,0-9.06-2.76-11.92-11.66" transform="translate(0 0)"/><path class="cls-3" d="M137.58,54c-11.28,8.19-26.12-10-26.4-10.38h0c.25.38,13.16,20,2,28.3,0,0,5.46.18,7.85-2.42,0,0,5.45,7.74,14.8,7.69,2.87-8.91-2.87-16.43-2.87-16.43,3.19-1.51,4.66-6.76,4.66-6.76" transform="translate(0 0)"/><path class="cls-3" d="M83,54c11.28,8.19,26.12-10,26.4-10.38h0c-.25.38-13.16,20-2,28.3,0,0-5.46.18-7.85-2.42,0,0-5.45,7.74-14.8,7.69-2.87-8.91,2.87-16.43,2.87-16.43C84.43,59.24,83,54,83,54" transform="translate(0 0)"/><path class="cls-3" d="M11.41,118.25c-.73,0-1.64-.85-2.74-2.54-.47-.71-1-1.42-1.46-2.14a9,9,0,0,0-1.7-1.83,3.07,3.07,0,0,0-1.88-.8v2.48a13.43,13.43,0,0,0,.3,3.85,1.38,1.38,0,0,0,.39.45,1.1,1.1,0,0,0,.56.23,5.92,5.92,0,0,0,.83,0l0,.25H0L0,118a2.45,2.45,0,0,0,1.56-.41q.54-.45.54-4.17v-5.3A23.48,23.48,0,0,0,2,105a1.89,1.89,0,0,0-.4-1A2.45,2.45,0,0,0,0,103.53l0-.23H5.75l0,.23a6.18,6.18,0,0,0-.83,0,1.21,1.21,0,0,0-.56.24,1.24,1.24,0,0,0-.38.45,2.81,2.81,0,0,0-.18.83,26.32,26.32,0,0,0-.13,3v2.44a4.91,4.91,0,0,0,2.19-1.21,11.35,11.35,0,0,0,2.24-2.52,4.89,4.89,0,0,0,1-2.59.64.64,0,0,0-.23-.54,1.45,1.45,0,0,0-.82-.17l0-.23h5.3l-.05.23a3.84,3.84,0,0,0-3.35,1.56c-.36.51-.7,1-1,1.61a11.79,11.79,0,0,1-1.48,2,11.49,11.49,0,0,1-2.36,2,4.7,4.7,0,0,1,3.37,1.61,15.67,15.67,0,0,1,1.7,2.28c.61,1,1.08,1.65,1.42,2.08A3.67,3.67,0,0,0,14.34,118l0,.25Z" transform="translate(0 0)"/><path class="cls-3" d="M30.94,108.1v10.26h-.66L20.21,105.65v7.73a16.88,16.88,0,0,0,.2,3.08,1.88,1.88,0,0,0,.64,1.24,2.74,2.74,0,0,0,1.47.3l.05.25H17.31l0-.25a2.75,2.75,0,0,0,1.48-.3,2,2,0,0,0,.65-1.24,16.88,16.88,0,0,0,.2-3.08V108.1a16.63,16.63,0,0,0-.2-3.06,1.91,1.91,0,0,0-.64-1.22,2.88,2.88,0,0,0-1.49-.29l0-.23h2.9L30.41,116V108.1a15.59,15.59,0,0,0-.21-3,1.83,1.83,0,0,0-.65-1.23,2.91,2.91,0,0,0-1.49-.29l0-.23h5.3l0,.23a2.93,2.93,0,0,0-1.5.29,1.87,1.87,0,0,0-.64,1.23,16.88,16.88,0,0,0-.19,3" transform="translate(0 0)"/><path class="cls-3" d="M41.88,108.12v5.3a21.4,21.4,0,0,0,.14,3.12,1.82,1.82,0,0,0,.39,1A2.45,2.45,0,0,0,44,118l.05.25H38.25l0-.25a5.82,5.82,0,0,0,.83,0,1.27,1.27,0,0,0,.57-.23,1.2,1.2,0,0,0,.38-.44,3.13,3.13,0,0,0,.21-.82,27.82,27.82,0,0,0,.1-3v-5.3a23.81,23.81,0,0,0-.13-3.09,1.83,1.83,0,0,0-.38-1.09,2.53,2.53,0,0,0-1.58-.41l0-.23H44l-.05.23a2.45,2.45,0,0,0-1.56.41c-.35.3-.53,1.69-.53,4.18" transform="translate(0 0)"/><path class="cls-3" d="M61.51,114.26v2.65a11.29,11.29,0,0,1-5.64,1.56,7.27,7.27,0,0,1-5.49-2.2,8.36,8.36,0,0,1-.07-11,7,7,0,0,1,5.43-2.19,11.28,11.28,0,0,1,3,.42,8.18,8.18,0,0,1,2.24.89v2.73l-.23,0a3.53,3.53,0,0,0-1.67-2.61,6.16,6.16,0,0,0-3.36-.9,4.82,4.82,0,0,0-4.16,2A10,10,0,0,0,51.64,116,5.12,5.12,0,0,0,56,118a4.44,4.44,0,0,0,4-1.79v-1.67a8.9,8.9,0,0,0-.27-2.91c-.18-.37-.69-.55-1.55-.55l0-.21h5.23l0,.21c-.81,0-1.32.19-1.53.58a7,7,0,0,0-.31,2.63" transform="translate(0 0)"/><path class="cls-3" d="M80.81,108.14v5.29a12.39,12.39,0,0,0,.32,3.85,1.17,1.17,0,0,0,.93.68,5.76,5.76,0,0,0,.82.05l0,.25H77.15l0-.25A6.08,6.08,0,0,0,78,118a1.17,1.17,0,0,0,.58-.23,1.12,1.12,0,0,0,.38-.44,3.13,3.13,0,0,0,.21-.82,27.82,27.82,0,0,0,.1-3v-2.35H70.66v2.35a21.4,21.4,0,0,0,.14,3.12,1.82,1.82,0,0,0,.39,1,2.45,2.45,0,0,0,1.56.41l0,.25H67l0-.25a5.82,5.82,0,0,0,.83-.05,1.17,1.17,0,0,0,.57-.23,1.12,1.12,0,0,0,.38-.44,3.13,3.13,0,0,0,.21-.82,27.82,27.82,0,0,0,.1-3v-5.29A23.89,23.89,0,0,0,69,105a1.83,1.83,0,0,0-.38-1.09,2.53,2.53,0,0,0-1.58-.41l0-.23H72.8l0,.23a2.45,2.45,0,0,0-1.56.41c-.35.3-.53,1.69-.53,4.19v2.39h8.65v-2.39a12.7,12.7,0,0,0-.32-3.87,1,1,0,0,0-.37-.45,1.28,1.28,0,0,0-.58-.24c-.21,0-.49,0-.84,0l0-.23h5.77l0,.23c-.34,0-.62,0-.82,0a1.25,1.25,0,0,0-.94.69,3.36,3.36,0,0,0-.21.83c-.07.63-.1,1.64-.1,3" transform="translate(0 0)"/><path class="cls-3" d="M87.1,103.3H99.41v3.07l-.21,0c0-1.74-1.73-2.61-5.17-2.61v9.7a11.53,11.53,0,0,0,.36,3.85,1.08,1.08,0,0,0,.45.45,1.53,1.53,0,0,0,.68.23,8.5,8.5,0,0,0,1,0l0,.25H90l0-.25a9.23,9.23,0,0,0,1,0,1.43,1.43,0,0,0,.68-.24,1.37,1.37,0,0,0,.45-.45,2.8,2.8,0,0,0,.24-.83,26.39,26.39,0,0,0,.11-3v-9.7q-5.18,0-5.17,2.61l-.26,0Z" transform="translate(0 0)"/><path class="cls-3" d="M116.43,117.74c.17,0,.52,0,1,0a10.43,10.43,0,0,0,1.76-.17,7.64,7.64,0,0,0,2-.65,6,6,0,0,0,1.75-1.23,5.58,5.58,0,0,0,1.22-2,9.09,9.09,0,0,0,0-5.8,5.74,5.74,0,0,0-1.21-2,6.6,6.6,0,0,0-1.76-1.25,9.13,9.13,0,0,0-3.91-.83,8.94,8.94,0,0,0-1.66.13v9.76a24.26,24.26,0,0,0,.12,3.06,1.27,1.27,0,0,0,.67,1m-.11-14.44a17.68,17.68,0,0,1,5.51.64,10.52,10.52,0,0,1,1.78.85,5.19,5.19,0,0,1,1.52,1.33,6.53,6.53,0,0,1,1,2,8.63,8.63,0,0,1,.39,2.68,8.52,8.52,0,0,1-.39,2.67,6.65,6.65,0,0,1-1,2,5.83,5.83,0,0,1-1.45,1.34,8.75,8.75,0,0,1-1.63.84,12.49,12.49,0,0,1-1.71.45,14.76,14.76,0,0,1-2.59.23H112l0-.25a2.45,2.45,0,0,0,1.56-.41c.35-.3.53-1.69.53-4.17v-5.3A23.48,23.48,0,0,0,114,105a1.82,1.82,0,0,0-.39-1,2.45,2.45,0,0,0-1.56-.41l0-.23Z" transform="translate(0 0)"/><path class="cls-3" d="M135.3,103.79v6.56h1.35a4.22,4.22,0,0,0,2.69-.84,3,3,0,0,0,1.07-2.48q0-3.24-3.72-3.24Zm7.31,14.46a1.5,1.5,0,0,1-1.06-.54,5.92,5.92,0,0,1-.94-1.36c-.28-.54-.6-1.13-1-1.76s-.74-1.23-1.11-1.79a5.4,5.4,0,0,0-1.41-1.41,3.55,3.55,0,0,0-1.82-.62v2.65a21.38,21.38,0,0,0,.14,3.13,1.82,1.82,0,0,0,.39,1,2.55,2.55,0,0,0,1.58.41l.05.25h-5.73l0-.25a2.47,2.47,0,0,0,1.54-.39c.27-.21.43-.91.47-2.09,0-.47,0-1.17,0-2.1V108a25.51,25.51,0,0,0-.12-3.14,1.54,1.54,0,0,0-.39-1,2.55,2.55,0,0,0-1.54-.37l0-.25h5q5.38,0,5.38,3.63a3.47,3.47,0,0,1-1.1,2.62,4.41,4.41,0,0,1-2.66,1.22,8.52,8.52,0,0,1,2.89,3.38c.34.64.7,1.25,1.09,1.84a3.73,3.73,0,0,0,3.24,2l.05.25Z" transform="translate(0 0)"/><path class="cls-3" d="M155.44,104.45l-3,8.61h6.17Zm4.14,13.42q.33-.14.33-.66a19.67,19.67,0,0,0-1.14-3.64h-6.51a15.89,15.89,0,0,0-.92,3.41c0,.46.12.75.35.86A3.62,3.62,0,0,0,153,118l0,.25H148.2l0-.25a3.49,3.49,0,0,0,1-.11,1.81,1.81,0,0,0,.77-.57,4.7,4.7,0,0,0,.8-1.33c.26-.59.57-1.4.92-2.46l1.9-5.49a17.69,17.69,0,0,0,1-3.53c0-.41-.1-.68-.3-.8a2.51,2.51,0,0,0-1.15-.18l0-.23h3.53l3.78,10.23c.64,1.7,1.07,2.77,1.29,3.23a2.12,2.12,0,0,0,.63.87,2.31,2.31,0,0,0,1.35.37l0,.25h-5.34l0-.25a3.74,3.74,0,0,0,1.15-.13" transform="translate(0 0)"/><path class="cls-3" d="M180.32,114.26v2.65a11.29,11.29,0,0,1-5.64,1.56,7.27,7.27,0,0,1-5.49-2.2,7.65,7.65,0,0,1-2.09-5.5,7.76,7.76,0,0,1,2-5.48,7,7,0,0,1,5.43-2.19,11.28,11.28,0,0,1,3,.42,8.18,8.18,0,0,1,2.24.89v2.73l-.23,0a3.53,3.53,0,0,0-1.67-2.61,6.18,6.18,0,0,0-3.36-.9,4.82,4.82,0,0,0-4.16,2,8.61,8.61,0,0,0-1.43,5.2,8.47,8.47,0,0,0,1.49,5.23,5.12,5.12,0,0,0,4.35,2,4.45,4.45,0,0,0,4-1.79v-1.67a8.9,8.9,0,0,0-.27-2.91c-.18-.37-.69-.55-1.55-.55l0-.21h5.23l0,.21c-.81,0-1.32.19-1.53.58a7,7,0,0,0-.31,2.63" transform="translate(0 0)"/><path class="cls-3" d="M193.85,118a4.79,4.79,0,0,0,4.15-2,8.77,8.77,0,0,0,1.42-5.2,8.44,8.44,0,0,0-1.5-5.22,5,5,0,0,0-4.22-2,4.79,4.79,0,0,0-4.14,2,8.68,8.68,0,0,0-1.42,5.2,8.54,8.54,0,0,0,1.49,5.23,5,5,0,0,0,4.22,2m-.14-14.88a7.38,7.38,0,0,1,5.51,2.11,7.47,7.47,0,0,1,2.06,5.45,8,8,0,0,1-2,5.57,6.91,6.91,0,0,1-5.42,2.24,7.14,7.14,0,0,1-5.5-2.25,7.88,7.88,0,0,1-2.08-5.58,7.51,7.51,0,0,1,2-5.44,7.13,7.13,0,0,1,5.43-2.1" transform="translate(0 0)"/><path class="cls-3" d="M218.25,108.1v10.26h-.66l-10.07-12.71v7.73a16.88,16.88,0,0,0,.2,3.08,1.84,1.84,0,0,0,.64,1.24,2.74,2.74,0,0,0,1.47.3l0,.25h-5.26l0-.25a2.69,2.69,0,0,0,1.47-.3,1.93,1.93,0,0,0,.66-1.24,16.88,16.88,0,0,0,.2-3.08V108.1a16.63,16.63,0,0,0-.2-3.06,1.91,1.91,0,0,0-.64-1.22,2.88,2.88,0,0,0-1.49-.29l0-.23h2.9L217.72,116V108.1a15.59,15.59,0,0,0-.21-3,1.83,1.83,0,0,0-.65-1.23,2.91,2.91,0,0,0-1.49-.29l-.05-.23h5.3l0,.23a2.93,2.93,0,0,0-1.5.29,1.83,1.83,0,0,0-.64,1.23,16.88,16.88,0,0,0-.19,3" transform="translate(0 0)"/></g></g></g></svg>