<?xml version="1.0" encoding="UTF-8"?>
<svg id="Layer_2" data-name="Layer 2" xmlns="http://www.w3.org/2000/svg" viewBox="0 0 25.0955 17.0332">
  <defs>
    <style>
      .cls-1 {
        fill: #bfbfbf;
      }
    </style>
  </defs>
  <g id="Layer_1-2" data-name="Layer 1">
    <g id="uuid-32631fa5-1c71-4990-b2c7-2e8f125a3537" data-name="Layer 1-2">
      <path class="cls-1" d="M25.0546,8.5038s.0332-.0459.0383-.051h-.7172s.0306.0383.0383.051l.023.0383c.0077.0128.0332.0689.0383.0817.0164.0431.0292.0875.0383.1327.0128.0638.0153.1404.0153.2297v1.9983l-2.0213-2.5394h-.4747s.0306.0383.0383.051l.023.0383c.0077.0128.0332.0689.0383.0817.0164.0431.0292.0875.0383.1327.0128.074.0153.1633.0153.2705v2.1081c0,.1072,0,.1965-.0153.2705-.0026.0153-.0077.0306-.0102.0459-.0051.0153-.0077.0306-.0128.0434-.0051.0153-.0102.0281-.0153.0434-.0117.0277-.0245.0549-.0383.0817l-.023.0383c-.0077.0128-.0332.0459-.0383.051h.7197s-.0306-.0383-.0383-.051l-.023-.0383c-.0138-.0267-.0266-.054-.0383-.0817-.0109-.0284-.0203-.0574-.0281-.0868-.0051-.0153-.0077-.0306-.0102-.0459-.0102-.0536-.0128-.1148-.0153-.1863v-1.9958l1.9932,2.4884h.5028s-.0306-.0383-.0383-.051l-.023-.0383c-.0138-.0267-.0266-.054-.0383-.0817-.0051-.0128-.0102-.0281-.0153-.0434s-.0102-.0306-.0128-.0434c-.0051-.0153-.0077-.0306-.0102-.0459-.0128-.0613-.0153-.1353-.0153-.2195v-2.2051c0-.0842.0026-.1582.0153-.2195.0026-.0153.0077-.0306.0102-.0459.0051-.0153.0077-.0306.0128-.0434.0051-.0153.0102-.0281.0153-.0434s.0306-.0689.0383-.0817l.023-.0383M20.79,10.076c0-.9341-.7759-1.687-1.7176-1.6513-.8575.0332-1.5543.7299-1.5874,1.5874-.0357.9418.7172,1.7176,1.6513,1.7176s1.6538-.7401,1.6538-1.6538M20.3127,10.076c0,.7172-.4594,1.3016-1.1791,1.3016s-1.174-.5793-1.174-1.2991.4568-1.3016,1.174-1.3016,1.1791.5819,1.1791,1.3016M15.7469,16.9694h.6253c-.07-.0988-.1306-.2039-.1812-.3139l-.9953-2.3046-.2654-.6431h-.5283c.0306.1327.0281.2246-.1404.6406l-.9698,2.2383c-.0715.1531-.1863.2756-.2603.3803h.6738c0-.1353.0536-.3063.1531-.5793l.1557-.3701h1.4216l.1608.3752c.097.2705.1506.4415.1506.5742M15.3283,15.6805h-1.2225l.6202-1.4598.6023,1.4598ZM16.0838,10.7446c.074-.1991.1097-.4237.1097-.6738,0-.2246-.0332-.4339-.0995-.6304s-.1633-.3701-.2961-.5155c-.1378-.1498-.3056-.269-.4926-.3496-.1965-.0868-.4262-.1276-.6865-.1276h-1.2812s.0306.0383.0383.051l.023.0383c.0077.0128.0332.0689.0383.0817s.0102.0281.0153.0434.0102.0306.0128.0434c.0051.0153.0077.0306.0102.0459.0102.0587.0153.1276.0153.2067v2.2383c0,.0791-.0051.148-.0153.2067-.0026.0153-.0077.0306-.0102.0459-.0051.0153-.0077.0306-.0128.0434s-.0102.0281-.0153.0434c-.0051.0128-.0306.0689-.0383.0817l-.023.0383c-.0077.0128-.0332.0459-.0383.051h1.2812c.2374,0,.4543-.0383.6508-.1174.194-.0791.3599-.1889.4977-.3292.1378-.1429.2425-.3139.3165-.5155M15.7775,10.0709c0,.1812-.0255.3471-.0766.5028s-.1251.2884-.2195.4007c-.097.1123-.2169.2016-.3624.2654s-.3114.097-.4977.097h-.684v-2.5241h.684c.1838,0,.3471.0306.49.0944.1429.0638.2654.148.365.2578.0995.1097.1735.2425.2246.3981s.0766.3241.0766.5079M11.7732,13.7664s.0332-.0459.0383-.051h-.7325s.0306.0383.0383.051l.023.0383c.0077.0128.0332.0689.0383.0817s.0102.0281.0153.0434c.0051.0153.0077.0281.0128.0434,0,.0077.0026.0153.0051.023l.0102,1.3654c0,.1557-.0153.3088-.0459.4568-.0306.1506-.0817.2833-.1557.3981-.0715.1148-.171.2093-.2935.2807-.1225.0715-.2782.1072-.4645.1072s-.3369-.0357-.4568-.1046c-.12-.0689-.2195-.1633-.2935-.2756-.074-.1148-.1276-.2476-.1582-.3956-.0318-.1537-.048-.3101-.0485-.467l-.0077-1.2301c0-.0408.0051-.0791.0128-.1123.0026-.0153.0077-.0306.0102-.0459.0051-.0153.0077-.0306.0128-.0434.0051-.0153.0102-.0281.0153-.0434.0051-.0128.0306-.0689.0383-.0817l.023-.0383c.0077-.0128.0332-.0459.0383-.051h-.7325s.0306.0383.0383.051l.023.0383c.0077.0128.0332.0689.0383.0817s.0102.0281.0153.0434c.0051.0153.0077.0281.0128.0434,0,.0077.0026.0153.0051.023l.0102,1.3654c0,.2093.023.416.0715.6125.0485.1991.1276.3777.2374.5309s.2552.2782.4364.3701c.1787.0919.4032.1404.6636.1404s.4696-.0459.6483-.1327.3241-.2093.4364-.3624.194-.3292.245-.5283c.051-.1965.0766-.4109.0766-.6329l-.0077-1.2327c0-.0408.0051-.0766.0128-.1097.0026-.0153.0077-.0306.0102-.0459.0051-.0153.0077-.0306.0128-.0434s.0102-.0281.0153-.0434c.0051-.0128.0306-.0689.0383-.0817l.023-.0383M11.694,8.5038s.0332-.0459.0383-.051h-.7172s.0306.0383.0383.051l.023.0383c.0077.0128.0332.0689.0383.0817.0164.0431.0292.0875.0383.1327.0128.0638.0153.1404.0153.2297v1.9983l-2.0213-2.5394h-.4747s.0306.0383.0383.051l.023.0383c.0077.0128.0332.0689.0383.0817s.0102.0281.0153.0434.0102.0306.0128.0434c.0051.0153.0077.0306.0102.0459.0128.074.0153.1633.0153.2705v2.1081c0,.1072,0,.1965-.0153.2705-.0026.0153-.0077.0306-.0102.0459-.0051.0153-.0077.0306-.0128.0434s-.0102.0281-.0153.0434-.0306.0689-.0383.0817l-.023.0383c-.0077.0128-.0332.0459-.0383.051h.7197s-.0306-.0383-.0383-.051l-.023-.0383c-.0138-.0267-.0266-.054-.0383-.0817-.0109-.0284-.0203-.0574-.0281-.0868-.0051-.0153-.0077-.0306-.0102-.0459-.0102-.0536-.0128-.1148-.0153-.1863v-1.9958l1.9932,2.4884h.3496v-2.7308c0-.0842.0026-.1582.0153-.2195.0026-.0153.0077-.0306.0102-.0459.0051-.0153.0077-.0306.0128-.0434.0051-.0153.0102-.0281.0153-.0434s.0306-.0689.0383-.0817l.023-.0383M7.1767,15.3462c0-.9341-.7759-1.687-1.7176-1.6513-.8575.0332-1.5543.7299-1.5874,1.5874-.0355.9124.6753,1.6808,1.5877,1.7164.0212.0008.0423.0012.0635.0013.2935,0,.5691-.0766.809-.2118l.2118.245h.5002l-.4007-.4696c.3421-.3133.5367-.756.536-1.2199M6.6994,15.3462c0,.3573-.1148.6814-.319.9162l-.3063-.3573h-.5002l.513.5972c-.1633.0919-.3522.1429-.5666.1429-.7172,0-1.174-.5793-1.174-1.2991s.4568-1.3016,1.174-1.3016,1.1791.5819,1.1791,1.3016M7.1767,10.076c0-.9341-.7759-1.687-1.7176-1.6513-.8575.0332-1.5543.7299-1.5874,1.5874-.0357.9418.7172,1.7176,1.6513,1.7176s1.6538-.7401,1.6538-1.6538M6.6994,10.076c0,.7172-.4594,1.3016-1.1791,1.3016s-1.174-.5793-1.174-1.2991.4568-1.3016,1.174-1.3016,1.1791.5819,1.1791,1.3016M2.3761,11.643l.0791-.4568s-.0383.0306-.051.0383l-.0383.023c-.0267.0138-.054.0266-.0817.0383-.0153.0051-.0281.0102-.0434.0153s-.0306.0102-.0434.0128c-.0153.0051-.0306.0077-.0459.0102-.074.0128-.1633.0153-.2705.0153H.6151v-2.3557c0-.0893.0026-.1684.0153-.2297.0026-.0153.0077-.0306.0102-.0459.0051-.0153.0077-.0306.0128-.0434.0051-.0153.0102-.0281.0153-.0434.0051-.0128.0306-.0689.0383-.0817l.023-.0383c.0077-.0128.0332-.0459.0383-.051H.0255s.0306.0383.0383.051l.023.0383c.0077.0128.0332.0689.0383.0817.0164.0431.0292.0875.0383.1327.0102.0536.0128.12.0153.1914v2.2638c0,.074-.0051.1378-.0153.1914-.0026.0153-.0077.0306-.0102.0459-.0051.0153-.0077.0306-.0128.0434-.0051.0153-.0102.0281-.0153.0434s-.0306.0689-.0383.0817l-.023.0383c-.0077.0128-.0332.0459-.0383.051h2.3403l.0102-.0638v.0026ZM.0868,14.236c-.0587.12-.0868.2578-.0868.4135,0,.1276.0204.2399.0638.3318.0434.0919.1072.171.1914.2348s.1889.12.3139.1659.2705.0893.4364.1276c.1506.0357.2833.074.4007.1072.1174.0357.2169.0766.2961.1225s.1404.0995.1812.1633.0613.1404.0613.2322c0,.1659-.0638.2884-.194.3726-.1276.0817-.3088.1251-.5411.1251-.1251,0-.245-.0128-.3599-.0383-.1148-.0255-.222-.0613-.3216-.1021-.0995-.0408-.1889-.0868-.2654-.1404-.0766-.051-.1404-.1021-.1889-.1531v.49c.1276.0817.268.148.4135.1991.2246.0791.4645.1174.7146.1174.1684,0,.3241-.0179.4696-.0536.1429-.0357.268-.0893.3752-.1659.1046-.0766.1889-.171.2501-.2858.0613-.1148.0919-.2501.0919-.4058,0-.1455-.0255-.2705-.0766-.3726-.051-.1021-.1251-.1863-.2195-.2578-.097-.0689-.2118-.1276-.3496-.1761-.1353-.0485-.2884-.0893-.4568-.1251-.1455-.0332-.2731-.0664-.3803-.097s-.1965-.0664-.268-.1072-.1251-.0919-.1582-.1506-.051-.1327-.051-.2195c0-.1659.0587-.2961.1761-.3905.1174-.0944.3037-.1429.5589-.1429.097,0,.1914.0102.2833.0306.1619.0353.3165.0983.4568.1863.0613.0408.1097.0817.1455.1251v-.4696c-.0868-.051-.1812-.097-.2807-.1353-.1787-.0664-.3777-.1021-.5972-.1021-.1684,0-.3241.0204-.467.0613s-.268.1046-.3726.1863c-.1046.0817-.1863.1838-.245.3037M18.0489,14.2309v2.2127c0,.0842-.0026.1582-.0153.2169-.0026.0153-.0077.0306-.0102.0459-.0051.0153-.0077.0306-.0128.0434-.0051.0153-.0102.0281-.0153.0434-.0117.0277-.0245.0549-.0383.0817l-.023.0383c-.0077.0128-.0332.0459-.0383.051h.7172s-.0306-.0383-.0383-.051l-.023-.0383c-.0138-.0267-.0266-.054-.0383-.0817-.0055-.0143-.0106-.0288-.0153-.0434-.0051-.0153-.0102-.0281-.0128-.0434-.0051-.0153-.0077-.0306-.0102-.0459-.0102-.0561-.0153-.12-.0153-.1965v-.6687h.8626l.7452,1.1714h.467l-.7886-1.248c.1046-.0281.1991-.0715.2833-.1327s.1557-.1353.2169-.2195c.123-.1814.1879-.3959.1863-.6151,0-.1276-.0255-.2552-.074-.3777-.0485-.1251-.1174-.2348-.2042-.3343s-.1914-.1787-.3114-.2374c-.12-.0613-.2527-.0893-.3981-.0893h-1.5492s.0306.0383.0383.051l.023.0383c.0077.0128.0332.0689.0383.0817.0164.0431.0292.0875.0383.1327.0128.0613.0153.1353.0153.2169M18.4598,14.0752h.9596c.0791,0,.1557.0179.2271.0536s.1353.0842.1889.1455c.0536.0638.097.1353.1276.2169.0332.0817.0485.1684.0485.2578s-.0128.1735-.0408.2578c-.0281.0817-.0664.1557-.1148.2169-.0485.0638-.1072.1123-.1761.1506-.0689.0357-.1455.0536-.2322.0536h-.9877v-1.3552.0026ZM22.5586,14.2845v2.1081c0,.1072,0,.1965-.0153.2705-.0026.0153-.0077.0306-.0102.0459-.0051.0153-.0077.0306-.0128.0434-.0051.0153-.0102.0281-.0153.0434-.0117.0277-.0245.0549-.0383.0817l-.023.0383c-.0077.0128-.0332.0459-.0383.051h2.3021l.0919-.5206s-.0383.0306-.051.0383l-.0383.023c-.0267.0138-.054.0266-.0817.0383-.0284.0109-.0574.0203-.0868.0281-.0153.0051-.0306.0077-.0459.0102-.074.0128-.1633.0153-.2705.0153h-1.2506v-1.1255h1.1663c.0664,0,.1251,0,.171.0102.0102,0,.0204.0051.0281.0077l.0281.0077c.0102.0026.0179.0051.0281.0102.0077.0026.0434.0204.051.023.0077.0051.0153.0102.0255.0153.0077.0051.0281.0204.0332.023v-.4415h-1.5287v-1.0566h1.1791c.1072,0,.1965,0,.2705.0153.0153.0026.0306.0077.0459.0102.0153.0051.0306.0077.0434.0128.0153.0051.0281.0102.0434.0153.0128.0051.0689.0306.0817.0383l.0383.023c.0128.0077.0459.0332.051.0383l-.0791-.4568-.0102-.0638h-2.2306s.0306.0383.0383.051l.023.0383c.0077.0128.0332.0689.0383.0817.0051.0128.0102.0281.0153.0434.0051.0153.0102.0281.0128.0434.0051.0153.0077.0306.0102.0459.0128.074.0153.1633.0153.2705M12.6894,2.6721h2.0622V.7197c-.1557-.0561-.3803-.1327-.564-.1787-.2399-.0613-.4364-.1046-.6202-.1353-.3675-.0613-.6738-.0817-.8779-.0893v2.3582-.0026ZM12.4035,2.9554h-2.0622v.3216c0,.5206.1148.9622.3573,1.3526.2297.3675.5309.6278.7708.8141l.0179.0102.0077.0077c.3241.2399.6534.4288.8754.5462l.0332.0179v-3.0703Z"/>
      <path class="cls-1" d="M14.9506,3.277c0,.5589-.1251,1.0362-.3879,1.4573-.2476.3981-.5742.6763-.8295.8754h-.0051c-.3369.2527-.6814.4543-.9111.5768l-.2705.1455-.2705-.1455c-.2297-.1225-.5768-.3216-.9111-.5717h-.0051c-.2552-.2016-.5819-.4798-.8295-.8779-.2629-.4237-.3905-.9009-.3879-1.4598V.5793l.0995-.0383c.0893-.0357.4568-.1608.7605-.2348.2093-.051.4237-.0944.6355-.1251.2195-.0332.5513-.0715.906-.0715.416,0,.8116.0536,1.054.0944.2118.0357.4262.0817.6329.1378.2042.0536.4109.1225.6176.1965l.0995.0357v2.6976l.0026.0051ZM14.2641.2374c-.2118-.0536-.4288-.1046-.6431-.1404-.4237-.0715-.7988-.097-1.0719-.097-.2935,0-.6074.0255-.9239.0715-.2169.0306-.4339.0766-.6457.1276-.4313.0995-.9469.3037-.9469.3037v2.7742c0,.5793.1302,1.077.4058,1.5185.2578.4135.5921.7018.855.9035s.0051.0051.0051.0051c.342.2552.6942.4568.9264.5819l.2705.1455.0536.0281.0536-.0281.2705-.1455c.2348-.1251.5844-.3267.9264-.5819h.0051c.2629-.2067.5998-.4926.8575-.9086.2731-.439.4058-.9366.4058-1.516V.5028s-.4517-.1761-.8014-.2654"/>
      <path class="cls-1" d="M10.9412,1.1638h.8652v.8652h-.8652v-.8652Z"/>
      <path class="cls-1" d="M11.9442,2.1668h-1.1408v-1.1408h1.1408v1.1408ZM11.6685.3803c-.2271.0332-.4517.0817-.6227.1225-.245.0561-.5232.1506-.7044.2144v1.9524h2.0622V.3139c-.2322.0077-.4798.0281-.735.0664M14.0701,4.2162l-.2169-.1659.2169-.1684.2246.1684-.2246.1684v-.0026ZM13.746,4.747l-.1684-.4313.1684-.2169.1659.2169-.1684.4313h.0026ZM13.1896,4.0503l.2246-.1684.2169.1659-.2169.1684-.2246-.1684v.0026ZM13.746,3.351l.1684.4339-.1659.2169-.1684-.2169.1684-.4339h-.0026ZM12.6894,2.9554v3.0703l.0332-.0179c.2246-.12.5615-.3139.8856-.5564l.0077-.0051c.2425-.1863.5462-.4492.7759-.8167.2425-.3905.3599-.832.3573-1.3526v-.3216h-2.0622.0026Z"/>
    </g>
  </g>
</svg>