<svg viewBox="0 0 585.6 125.3" xmlns="http://www.w3.org/2000/svg">
<g fill="#bfbfbf">
 <path d="m204 50.1c0-12.4-8.7-21.1-22-21.1h-29.6v67.4h11.8v-25.2h11.7l15 25.2h13.6l-16.5-26.5c8.1-1.4 16-7.8 16-19.8zm-39.8 10.7v-21.4h16.2c6.7 0 11.5 4.2 11.5 10.7s-4.8 10.7-11.5 10.7h-16.2z"/>
 <path d="M219.6,96.3h46.1V85.9H231.4V67.2h30.2V56.8H231.4V39.4h34.3V28.9H219.6Z"/>
 <path d="m307.6 28.9h-25.1v67.4h25.1c21 0 35.3-13.8 35.3-33.6s-14.3-33.8-35.3-33.8zm0 57h-13.2v-46.5h13.2c15.1 0 23.1 10.3 23.1 23.3 0 12.7-8.5 23.2-23.1 23.2z"/>
 <path d="m409.6 50.1c0-12.4-8.7-21.1-22-21.1h-29.6v67.4h11.8v-25.2h11.7l15 25.2h13.6l-16.5-26.5c8.1-1.4 16-7.8 16-19.8zm-39.8 10.7v-21.4h16.2c6.7 0 11.5 4.2 11.5 10.7s-4.8 10.7-11.5 10.7h-16.2z"/>
 <path d="M572.4,28.9l-13.1,52-13.9-52H536l-13.9,52-13.2-52H495.7L515,96.3h12.6l13-49.7,13.2,49.7h12.6l19.2-67.4Z"/>
 <path d="m454.9 27.8a34.9 34.9 0 1 0 34.9 34.9 34.868 34.868 0 0 0-34.9-34.9zm0 57a22.2 22.2 0 1 1 22.2-22.2 22.15 22.15 0 0 1-22.2 22.2z"/>
 <path d="M62.6,40.5A20.25,20.25,0,1,0,42.3,20.2,20.208,20.208,0,0,0,62.6,40.5Zm0-30.7A10.4,10.4,0,1,1,52.2,20.2,10.392,10.392,0,0,1,62.6,9.8Z"/>
 <path d="M62.6,67.3A62.683,62.683,0,0,0,4.9,29H0v4.9A62.549,62.549,0,0,0,57.5,96.2a54.017,54.017,0,0,1-6.8,21.7,4.842,4.842,0,0,0,1.8,6.7,5.491,5.491,0,0,0,2.4.7,4.909,4.909,0,0,0,4.2-2.4,62.2,62.2,0,0,0,8.2-26.5A62.7,62.7,0,0,0,125.2,34V29h-4.9A62.578,62.578,0,0,0,62.6,67.3ZM10,39.1A52.758,52.758,0,0,1,57.4,86.4,52.849,52.849,0,0,1,10,39.1ZM67.7,86.4A52.948,52.948,0,0,1,115.1,39,52.767,52.767,0,0,1,67.7,86.4Z"/>
</g>
</svg>
