<?xml version="1.0" encoding="UTF-8"?>
<svg id="Layer_2" data-name="Layer 2" xmlns="http://www.w3.org/2000/svg" viewBox="0 0 23.9259 9.8844">
  <defs>
    <style>
      .cls-1 {
        fill: #bfbfbf;
      }
    </style>
  </defs>
  <g id="Layer_1-2" data-name="Layer 1">
    <g id="Group_32" data-name="Group 32">
      <path id="Path_85" data-name="Path 85" class="cls-1" d="M13.4386.0001v1.7454h1.6794v-.2952h-1.3666v-.4839h.8503v-.2949h-.8503v-.372h1.2954V.0001h-1.6083Z"/>
      <path id="Path_86" data-name="Path 86" class="cls-1" d="M8.6962,0v.2876h.7001v1.4578h.3119V.2876h.6998v-.2876h-1.7118Z"/>
      <path id="Path_87" data-name="Path 87" class="cls-1" d="M12.4952,0v.6591h-1.1103v-.6591h-.3124v1.7454h.3124v-.7866h1.1103v.7866h.3124V0h-.3124Z"/>
      <g id="Group_34" data-name="Group 34">
        <g id="Group_33" data-name="Group 33">
          <path id="Path_88" data-name="Path 88" class="cls-1" d="M3.1719,4.3971c-1.9002,0-3.1719,1.0921-3.1719,2.738s1.2717,2.7381,3.1719,2.7381c1.9077,0,3.1794-1.0921,3.1794-2.738s-1.2719-2.7381-3.1794-2.7381M3.1719,8.9904c-1.3017,0-2.1695-.7407-2.1695-1.8553s.8678-1.8555,2.1695-1.8555c1.339,0,2.2368.7407,2.2368,1.8553s-.8977,1.8555-2.2368,1.8555"/>
          <path id="Path_89" data-name="Path 89" class="cls-1" d="M20.7466,4.4085c-1.9002,0-3.1719,1.0921-3.1719,2.738s1.2717,2.738,3.1719,2.738c1.9077,0,3.1794-1.0921,3.1794-2.738s-1.2717-2.738-3.1794-2.738M20.7466,9.0017c-1.3017,0-2.1695-.7405-2.1695-1.8553s.8672-1.8553,2.1695-1.8553c1.3392,0,2.2368.7405,2.2368,1.8552s-.8977,1.8553-2.2368,1.8553"/>
          <path id="Path_90" data-name="Path 90" class="cls-1" d="M13.3593,8.7901l-.9049-1.8889,1.1534-2.418h-.9426l-.6834,1.4321-.6862-1.431h-.9576l1.1681,2.4262-.8974,1.8796-2.1628-4.3069h-1.0174l2.6255,5.2361h1.0548l.8713-1.8262.8791,1.8262h1.0548l2.6255-5.2361h-1.0163l-2.164,4.3069Z"/>
        </g>
      </g>
    </g>
  </g>
</svg>