<?xml version="1.0" encoding="UTF-8"?>
<svg id="Layer_2" data-name="Layer 2" xmlns="http://www.w3.org/2000/svg" viewBox="0 0 221.2 221.2">
  <defs>
    <style>
      .cls-1 {
        fill: #e2c27a;
      }
    </style>
  </defs>
  <g id="Layer_1-2" data-name="Layer 1">
    <g>
      <g>
        <polygon class="cls-1" points="72.5002 128.359 83.4804 76.6442 72.5002 76.6442 72.5002 128.359"/>
        <g>
          <path class="cls-1" d="M128.0298,76.6442l-55.3746,73.5591,38.2514-21.8443,38.2514,21.1537v-72.8686h-21.1282Z"/>
          <polygon class="cls-1" points="96.905 76.6442 72.5004 140.1056 112.0723 76.6442 96.905 76.6442"/>
        </g>
      </g>
      <path class="cls-1" d="M110.6,177.7113c-37.0051,0-67.1108-30.1061-67.1108-67.1113s30.1056-67.111,67.1108-67.111,67.1113,30.1059,67.1113,67.111-30.1061,67.1113-67.1113,67.1113ZM110.6,45.549c-35.8691,0-65.0508,29.182-65.0508,65.0511s29.1818,65.0513,65.0508,65.0513,65.0513-29.1818,65.0513-65.0513-29.1818-65.0511-65.0513-65.0511Z"/>
      <path class="cls-1" d="M110.6,221.2c-29.5424,0-57.3165-11.5042-78.2061-32.3939C11.5042,167.9165,0,140.1424,0,110.6S11.5042,53.2836,32.3939,32.3941C53.2836,11.5045,81.0577,0,110.6,0s57.3165,11.5045,78.2061,32.3941c20.8897,20.8894,32.3939,48.6635,32.3939,78.2059s-11.5042,57.3165-32.3939,78.2061c-20.8897,20.8897-48.6638,32.3939-78.2061,32.3939ZM110.6,2.0599C50.7509,2.0599,2.0599,50.7509,2.0599,110.6s48.6909,108.5401,108.5401,108.5401,108.5401-48.6909,108.5401-108.5401S170.4492,2.0599,110.6,2.0599Z"/>
      <polygon class="cls-1" points="207.1019 104.0238 208.0753 107.4015 211.453 108.3749 208.0753 109.3484 207.1019 112.7261 206.1284 109.3484 202.7508 108.3749 206.1284 107.4015 207.1019 104.0238"/>
      <polygon class="cls-1" points="15.5515 110.6002 16.5249 113.9779 19.9026 114.9513 16.5249 115.9248 15.5515 119.3025 14.578 115.9248 11.2003 114.9513 14.578 113.9779 15.5515 110.6002"/>
      <g>
        <polygon class="cls-1" points="11.474 99.5648 32.4928 104.3339 33.0199 102.0109 19.6436 98.9758 31.9077 94.1831 32.1358 94.0945 22.9735 84.2999 36.3498 87.3349 36.8773 85.0103 15.8585 80.2412 27.9323 93.1408 11.474 99.5648"/>
        <path class="cls-1" d="M26.5951,58.5178l13.1397,19.7059.1393.2161,1.3761-2.1691-2.8883-4.4818,5.0363-7.9384,5.2473.7634,1.389-2.1895-23.4395-3.9066ZM31.536,61.7171l9.3133,1.7704-3.8645,6.0914-5.4488-7.8618Z"/>
        <polyline class="cls-1" points="61.3856 43.5254 55.2534 42.3275 54.9218 30.0162 54.9139 29.6886 52.5614 31.5402 53.1116 49.0788 44.3773 37.9819 42.398 39.5398 55.363 56.0119 57.3449 54.4519 55.5062 52.116 55.317 44.7478 66.807 46.9327 66.8798 46.9471 69.2702 45.0656 61.3856 43.5254"/>
        <path class="cls-1" d="M91.9371,25.3813c-.0855-.191-.1635-.3601-.2331-.5042l-8.7336,2.9501.7371,2.1822,6.5216-2.2029.1439.4261c.2487.7363.3207,1.4816.2165,2.2324-.1042.7508-.3685,1.4666-.7914,2.147-.4229.6804-.9816,1.2845-1.677,1.8144s-1.4875.944-2.3758,1.2441c-1.1342.3831-2.2583.5429-3.3765.4773-1.1161-.0646-2.1708-.3349-3.1641-.8109-.9928-.4745-1.8566-1.1304-2.5915-1.9677-.7359-.8353-1.291-1.8119-1.6677-2.9273-.3895-1.153-.5493-2.2823-.4821-3.3906.0677-1.1067.3413-2.1363.8206-3.0889.4783-.9504,1.1281-1.786,1.9492-2.5067.8202-.7186,1.7885-1.2673,2.9038-1.6441.7175-.2424,1.4799-.3725,2.2835-.3908.8047-.0205,1.6039.0569,2.401.2309.795.173,1.5501.4451,2.2648.8145l.9667-2.0003c-.7094-.4777-1.5464-.8372-2.5132-1.0797-.9662-.2408-1.9842-.3403-3.0528-.2952-1.0702.0456-2.1047.238-3.1058.5761-1.4177.4789-2.6615,1.1783-3.7303,2.096-1.0698.9199-1.9095,1.9889-2.5195,3.2055-.6101,1.2166-.9666,2.5326-1.0671,3.9453-.1015,1.4148.093,2.8483.5846,4.3037.4921,1.4569,1.2067,2.7147,2.1454,3.7782.9366,1.0624,2.0322,1.8879,3.2832,2.4758,1.2526.5874,2.5889.9267,4.0079,1.0146,1.4195.0895,2.8577-.1118,4.313-.6034,1.2485-.4217,2.3312-1.0143,3.2531-1.7778.9219-.7635,1.6577-1.6543,2.209-2.673s.8794-2.1191.9855-3.3034c.1051-1.1822-.0493-2.3884-.4642-3.6166-.0577-.1708-.1248-.354-.2009-.5482-.0766-.1958-.1579-.39-.2439-.5826Z"/>
        <polygon class="cls-1" points="108.1772 12.8397 105.8427 12.8064 105.5443 33.7544 117.9329 33.9309 117.9653 31.6559 107.9113 31.5126 108.1772 12.8397"/>
        <path class="cls-1" d="M151.0158,24.2233c-.5346-1.2302-1.2924-2.3105-2.2771-3.2404-.9868-.9289-2.1799-1.654-3.5828-2.1747-1.3843-.5138-2.7537-.7399-4.1061-.6793-1.353.0622-2.6321.3864-3.8383.9704-1.2063.5841-2.2765,1.4003-3.2085,2.4477-.9305,1.048-1.6675,2.3018-2.2089,3.7605-.542,1.4603-.801,2.8898-.7803,4.2926.0229,1.4019.3031,2.714.8396,3.9344.5365,1.2204,1.296,2.296,2.2813,3.2243.9847.9299,2.17,1.6521,3.5543,2.1659,1.4029.5207,2.7801.7497,4.1346.6881,1.3524-.0607,2.6315-.3848,3.8393-.9683,1.2063-.5841,2.2749-1.4009,3.2069-2.4483.931-1.0495,1.664-2.2925,2.1992-3.7342.5415-1.4587.801-2.8898.7797-4.2911-.0229-1.4019-.2998-2.7181-.8328-3.9478ZM147.0771,34.5732c-.7216.8274-1.5423,1.4752-2.46,1.9424-.9198.4681-1.9027.7259-2.9517.7722-1.0511.0473-2.1078-.128-3.1743-.5239s-1.9817-.9525-2.7458-1.6736c-.7663-.7201-1.3445-1.5573-1.7345-2.5116-.3906-.9528-.5853-1.9775-.5829-3.0719.0014-1.0966.2153-2.2147.6388-3.3556.4304-1.1595,1.0007-2.1543,1.7151-2.9861.7123-.8309,1.5284-1.4804,2.4467-1.9491.9177-.4672,1.9038-.729,2.9584-.7856,1.0524-.0556,2.1114.1135,3.1779.5094s1.9794.9587,2.7422,1.6881c.7607.7304,1.3356,1.5716,1.7278,2.525.3901.9543.5894,1.9808.5963,3.0786.0079,1.1-.2043,2.2276-.6347,3.3872-.4235,1.1409-.9956,2.1262-1.7193,2.9546Z"/>
        <path class="cls-1" d="M171.6109,47.413c-.157-.5961-.4525-1.1636-.8116-1.7171.8011.2339,1.595.336,2.3733.1756,1.0362-.2137,1.9249-.764,2.6671-1.6522.6913-.8273,1.1053-1.6966,1.2433-2.607.1378-.9127.0039-1.8175-.4018-2.7168-.4068-.898-1.0772-1.7383-2.0098-2.5176l-6.5231-5.4509-13.4337,16.0761,6.7527,5.6428c.7803.6521,1.5806,1.1333,2.4018,1.4425.82.3081,1.6304.4445,2.4278.4083.7963-.0349,1.5596-.2418,2.2911-.6195.7305-.3765,1.3975-.9246,1.9997-1.6453.5874-.7029.9613-1.4701,1.1218-2.2992.1582-.8288.1265-1.6677-.0988-2.5197ZM168.4811,34.17l4.432,3.7035c.9491.7931,1.4905,1.6485,1.6218,2.5641.1313.9156-.1296,1.7642-.7817,2.5446-.4093.4898-.899.8283-1.4704,1.0144s-1.1645.2099-1.7789.0736-1.1964-.4352-1.7471-.8954l-4.5932-3.8382,4.3174-5.1667ZM166.9366,51.9108c-.6551.2089-1.3377.216-2.0486.025-.7121-.1921-1.4109-.5756-2.0999-1.1514l-4.8228-4.0301,4.7394-5.6717,4.7074,3.9336c.7042.5885,1.2254,1.2179,1.5614,1.8887.3372.6718.4815,1.3397.4341,2.0025-.0464.6615-.2996,1.2688-.7608,1.8207-.4856.5811-1.0571.9763-1.7101,1.1826Z"/>
        <polygon class="cls-1" points="188.7755 92.6302 207.1019 89.0393 206.653 86.7481 186.0938 90.7765 188.4762 102.9351 190.709 102.4976 188.7755 92.6302"/>
        <path class="cls-1" d="M196.2803,61.4591l-23.3208,2.569-.3283.0334,1.3712,2.3088,5.3338-.5522,4.7984,8.0795-3.0726,4.3595,1.3822,2.3273,13.8361-19.1253ZM182.0472,65.5773l8.9197-1.0319-5.2865,7.1494-3.6332-6.1175Z"/>
      </g>
      <g>
        <polygon class="cls-1" points="209.6784 123.0151 188.6596 118.246 188.1325 120.569 201.5088 123.6041 189.2447 128.3968 189.0166 128.4854 198.1789 138.28 184.8026 135.245 184.2751 137.5696 205.2939 142.3387 193.2201 129.4391 209.6784 123.0151"/>
        <path class="cls-1" d="M194.5573,164.0621l-13.1397-19.7059-.1393-.2161-1.3761,2.1691,2.8883,4.4818-5.0363,7.9384-5.2473-.7634-1.389,2.1895,23.4395,3.9066ZM189.6164,160.8628l-9.3133-1.7704,3.8645-6.0914,5.4488,7.8618Z"/>
        <polyline class="cls-1" points="159.7668 179.0545 165.899 180.2524 166.2306 192.5637 166.2385 192.8913 168.591 191.0397 168.0408 173.5011 176.7751 184.598 178.7544 183.0401 165.7894 166.5681 163.8075 168.128 165.6462 170.4639 165.8354 177.8322 154.3454 175.6472 154.2726 175.6328 151.8822 177.5143 159.7668 179.0545"/>
        <path class="cls-1" d="M129.2153,197.1986c.0855.191.1635.3601.2331.5042l8.7336-2.9501-.7371-2.1822-6.5216,2.2029-.1439-.4261c-.2487-.7363-.3207-1.4816-.2165-2.2324.1042-.7508.3685-1.4666.7914-2.147.4229-.6804.9816-1.2845,1.677-1.8144s1.4875-.944,2.3758-1.2441c1.1342-.3831,2.2583-.5429,3.3765-.4773,1.1161.0646,2.1708.3349,3.1641.8109.9928.4745,1.8566,1.1304,2.5915,1.9677.7359.8353,1.291,1.8119,1.6677,2.9273.3895,1.153.5493,2.2823.4821,3.3906-.0677,1.1067-.3413,2.1363-.8206,3.0889-.4783.9504-1.1281,1.786-1.9492,2.5067-.8202.7186-1.7885,1.2673-2.9038,1.6441-.7175.2424-1.4799.3725-2.2835.3908-.8047.0205-1.6039-.0569-2.401-.2309-.795-.173-1.5501-.4451-2.2648-.8145l-.9667,2.0003c.7094.4777,1.5464.8372,2.5132,1.0797.9662.2408,1.9842.3403,3.0528.2952,1.0702-.0456,2.1047-.238,3.1058-.5761,1.4177-.4789,2.6615-1.1783,3.7303-2.096,1.0698-.9199,1.9095-1.9889,2.5195-3.2055.6101-1.2166.9666-2.5326,1.0671-3.9453.1015-1.4148-.093-2.8483-.5846-4.3037-.4921-1.4569-1.2067-2.7147-2.1454-3.7782-.9366-1.0624-2.0322-1.8879-3.2832-2.4758-1.2526-.5874-2.5889-.9267-4.0079-1.0146-1.4195-.0895-2.8577.1118-4.313.6034-1.2485.4217-2.3312,1.0143-3.2531,1.7778s-1.6577,1.6543-2.209,2.673-.8794,2.1191-.9855,3.3034c-.1051,1.1822.0493,2.3884.4642,3.6166.0577.1708.1248.354.2009.5482.0766.1958.1579.39.2439.5826Z"/>
        <polygon class="cls-1" points="112.9752 209.7402 115.3097 209.7735 115.6081 188.8255 103.2195 188.649 103.1871 190.9241 113.2411 191.0673 112.9752 209.7402"/>
        <path class="cls-1" d="M70.1366,198.3566c.5346,1.2302,1.2924,2.3105,2.2771,3.2404.9868.9289,2.1799,1.654,3.5828,2.1747,1.3843.5138,2.7537.7399,4.1061.6793,1.353-.0622,2.6321-.3864,3.8383-.9704,1.2063-.5841,2.2765-1.4003,3.2085-2.4477.9305-1.048,1.6675-2.3018,2.2089-3.7605.542-1.4603.801-2.8898.7803-4.2926-.0229-1.4019-.3031-2.714-.8396-3.9344-.5365-1.2204-1.296-2.296-2.2813-3.2243-.9847-.9299-2.17-1.6521-3.5543-2.1659-1.4029-.5207-2.7801-.7497-4.1346-.6881-1.3524.0607-2.6315.3848-3.8393.9683-1.2063.5841-2.2749,1.4009-3.2069,2.4483-.931,1.0495-1.664,2.2925-2.1992,3.7342-.5415,1.4587-.801,2.8898-.7797,4.2911.0229,1.4019.2998,2.7181.8328,3.9478ZM74.0753,188.0067c.7216-.8274,1.5423-1.4752,2.46-1.9424.9198-.4681,1.9027-.7259,2.9517-.7722,1.0511-.0473,2.1078.128,3.1743.5239,1.0665.3959,1.9817.9525,2.7458,1.6736.7663.7201,1.3445,1.5573,1.7345,2.5116.3906.9528.5853,1.9775.5829,3.0719-.0014,1.0966-.2153,2.2147-.6388,3.3556-.4304,1.1595-1.0007,2.1543-1.7151,2.9861-.7123.8309-1.5284,1.4804-2.4467,1.9491-.9177.4672-1.9038.729-2.9584.7856-1.0524.0556-2.1114-.1135-3.1779-.5094s-1.9794-.9587-2.7422-1.6881c-.7607-.7304-1.3356-1.5716-1.7278-2.525-.3901-.9543-.5894-1.9808-.5963-3.0786-.0079-1.1.2043-2.2276.6347-3.3872.4235-1.1409.9956-2.1262,1.7193-2.9546Z"/>
        <path class="cls-1" d="M49.5415,175.1669c.157.5961.4525,1.1636.8116,1.7171-.8011-.2339-1.595-.336-2.3733-.1756-1.0362.2137-1.9249.764-2.6671,1.6522-.6913.8273-1.1053,1.6966-1.2433,2.607-.1378.9127-.0039,1.8175.4018,2.7168.4068.898,1.0772,1.7383,2.0098,2.5176l6.5231,5.4509,13.4337-16.0761-6.7527-5.6428c-.7803-.6521-1.5806-1.1333-2.4018-1.4425-.82-.3081-1.6304-.4445-2.4278-.4083-.7963.0349-1.5596.2418-2.2911.6195-.7305.3765-1.3975.9246-1.9997,1.6453-.5874.7029-.9613,1.4701-1.1218,2.2992-.1582.8288-.1265,1.6677.0988,2.5197ZM52.6713,188.4099l-4.432-3.7035c-.9491-.7931-1.4905-1.6485-1.6218-2.5641-.1313-.9156.1296-1.7642.7817-2.5446.4093-.4898.899-.8283,1.4704-1.0144.5715-.1862,1.1645-.2099,1.7789-.0736s1.1964.4352,1.7471.8954l4.5932,3.8382-4.3174,5.1667ZM54.2158,170.6691c.6551-.2089,1.3377-.216,2.0486-.025.7121.1921,1.4109.5756,2.0999,1.1514l4.8228,4.0301-4.7394,5.6717-4.7074-3.9336c-.7042-.5885-1.2254-1.2179-1.5614-1.8887-.3372-.6718-.4815-1.3397-.4341-2.0025.0464-.6615.2996-1.2688.7608-1.8207.4856-.5811,1.0571-.9763,1.7101-1.1826Z"/>
        <polygon class="cls-1" points="32.3769 129.9497 14.0505 133.5406 14.4994 135.8318 35.0586 131.8034 32.6762 119.6448 30.4434 120.0823 32.3769 129.9497"/>
        <path class="cls-1" d="M24.8721,161.1208l23.3208-2.569.3283-.0334-1.3712-2.3088-5.3338.5522-4.7984-8.0795,3.0726-4.3595-1.3822-2.3273-13.8361,19.1253ZM39.1052,157.0026l-8.9197,1.0319,5.2865-7.1494,3.6332,6.1175Z"/>
      </g>
    </g>
  </g>
</svg>